<?xml version="1.0" encoding="UTF-8"?>
<svg width="35px" height="35px" viewBox="0 0 35 35" version="1.1" xmlns="http://www.w3.org/2000/svg" xmlns:xlink="http://www.w3.org/1999/xlink">
    <!-- Generator: sketchtool 51.2 (57519) - http://www.bohemiancoding.com/sketch -->
    <title>A8BD594C-221B-4752-891A-BDE7FA0443D3</title>
    <desc>Created with sketchtool.</desc>
    <defs></defs>
    <g id="instar-web" stroke="none" stroke-width="1" fill="none" fill-rule="evenodd">
        <g id="Web-App-Wallet" transform="translate(-593.000000, -701.000000)">
            <g id="history" transform="translate(576.000000, 701.000000)">
                <g id="1">
                    <g transform="translate(17.000000, 0.000000)">
                        <circle id="Oval-2" fill="#FFDFC9" cx="17.5" cy="17.5" r="17.5"></circle>
                        <g id="Group" transform="translate(9.000000, 9.000000)" fill="#F2904D" fill-rule="nonzero">
                            <path d="M8.33155971,9.25687954 L8.33155971,0.68537169 C8.33155971,0.306851361 8.64555094,0 9.00845859,0 C9.38229956,0 9.68535759,0.306145247 9.68535759,0.68537169 L9.68535759,9.23996237 L12.3458346,6.57948536 C12.6041724,6.32114756 13.0374778,6.3182547 13.3029482,6.58372513 C13.5606549,6.84143177 13.570317,7.27770999 13.3071881,7.54083887 L9.53149333,11.3165337 C9.51657711,11.3351154 9.5005602,11.353013 9.48344991,11.3701233 C9.35014989,11.5034233 9.1745334,11.5690603 9,11.5686699 C8.8254666,11.5690603 8.64985011,11.5034233 8.51655009,11.3701233 C8.4994398,11.353013 8.48342289,11.3351154 8.46850667,11.3165337 L4.69281189,7.54083887 C4.42968304,7.27770999 4.43934516,6.84143177 4.69705175,6.58372513 C4.9625222,6.3182547 5.39582765,6.32114756 5.65416544,6.57948536 L8.33155971,9.25687954 Z M16.7142857,15.4285714 L16.7142857,9.6312924 C16.7142857,9.28263921 17.0124861,9 17.3571429,9 C17.7121831,9 18,9.29298921 18,9.6312924 L18,16.0829933 C18,16.4316465 17.7017997,16.7142857 17.3571429,16.7142857 C17.357023,16.7142857 11.7856843,16.7142857 0.643126783,16.7142857 C0.467473641,16.7142857 0.308267794,16.6413567 0.192200169,16.5259458 C0.0719637686,16.4099889 0,16.2521562 0,16.0829933 L0,9.6312924 C0,9.28263921 0.29820033,9 0.642857143,9 C0.997897333,9 1.28571429,9.29298921 1.28571429,9.6312924 L1.28571429,15.4285714 L16.7142857,15.4285714 Z" id="Shape"></path>
                        </g>
                    </g>
                </g>
            </g>
        </g>
    </g>
</svg>