<?xml version="1.0" encoding="UTF-8"?>
<svg width="35px" height="35px" viewBox="0 0 35 35" version="1.1" xmlns="http://www.w3.org/2000/svg" xmlns:xlink="http://www.w3.org/1999/xlink">
    <!-- Generator: sketchtool 51.2 (57519) - http://www.bohemiancoding.com/sketch -->
    <title>DE9643D3-BA69-49C3-8959-B61AE74BFCE0</title>
    <desc>Created with sketchtool.</desc>
    <defs></defs>
    <g id="instar-web" stroke="none" stroke-width="1" fill="none" fill-rule="evenodd">
        <g id="Web-App-Wallet" transform="translate(-593.000000, -769.000000)">
            <g id="history" transform="translate(576.000000, 701.000000)">
                <g id="1-copy" transform="translate(0.000000, 68.000000)">
                    <g id="1" transform="translate(17.000000, 0.000000)">
                        <circle id="Oval-2" fill="#E3F6F7" cx="17.5" cy="17.5" r="17.5"></circle>
                        <g id="Group" transform="translate(8.000000, 11.000000)" fill="#60C5B1" fill-rule="nonzero">
                            <path d="M17.6571429,2.57142857 C17.8285714,2.57142857 18,2.74285714 18,2.91428571 L18,3.94285714 C18,4.11428571 17.8285714,4.28571429 17.6571429,4.28571429 L1.2,4.28571429 C0.857142857,4.28571429 0.685714286,3.77142857 1.02857143,3.6 L6.34285714,0.857142857 C6.51428571,0.771428571 6.85714286,0.942857143 6.85714286,1.2 L6.85714286,2.57142857 L17.6571429,2.57142857 Z M1.2,9.42857143 C1.02857143,9.42857143 0.857142857,9.25714286 0.857142857,9.08571429 L0.857142857,8.05714286 C0.857142857,7.88571429 1.02857143,7.71428571 1.2,7.71428571 L17.5714286,7.8 C17.9142857,7.8 18.0857143,8.31428571 17.7428571,8.48571429 L12.5142857,11.1428571 C12.3428571,11.2285714 12,11.0571429 12,10.8 L12,9.42857143 L1.2,9.42857143 Z" id="Combined-Shape" transform="translate(9.420843, 6.000000) scale(-1, 1) translate(-9.420843, -6.000000) "></path>
                        </g>
                    </g>
                </g>
            </g>
        </g>
    </g>
</svg>