<?xml version="1.0" encoding="UTF-8"?>
<svg width="24px" height="28px" viewBox="0 0 24 28" version="1.1" xmlns="http://www.w3.org/2000/svg" xmlns:xlink="http://www.w3.org/1999/xlink">
    <!-- Generator: sketchtool 51.2 (57519) - http://www.bohemiancoding.com/sketch -->
    <title>B004A7D9-CA51-4221-98DF-88EF93A74D9E</title>
    <desc>Created with sketchtool.</desc>
    <defs></defs>
    <g id="instar-web" stroke="none" stroke-width="1" fill="none" fill-rule="evenodd">
        <g id="Web-App-Exchange" transform="translate(-26.000000, -186.000000)" fill="#8C9FBF" fill-rule="nonzero">
            <g id="menu" transform="translate(0.000000, 60.000000)">
                <g id="d5menu" transform="translate(23.000000, 44.000000)">
                    <g id="activities" transform="translate(3.000000, 82.000000)">
                        <path d="M19.4444444,1.55555556 C21.6222222,1.55555556 23.3333333,3.26666667 23.3333333,5.44444444 L23.3333333,24.1111111 C23.3333333,26.2888889 21.6222222,28 19.4444444,28 L3.88888889,28 C1.71111111,28 0,26.2888889 0,24.1111111 L0,5.44444444 C0,3.26666667 1.71111111,1.55555556 3.88888889,1.55555556 L4.82222222,1.55555556 C5.13333333,0.622222222 5.98888889,0 7,0 L16.3333333,0 C17.3444444,0 18.2,0.622222222 18.5111111,1.55555556 L19.4444444,1.55555556 Z M7,1.55555556 C6.53333333,1.55555556 6.22222222,1.86666667 6.22222222,2.33333333 C6.22222222,2.8 6.53333333,3.11111111 7,3.11111111 L16.3333333,3.11111111 C16.8,3.11111111 17.1111111,2.8 17.1111111,2.33333333 C17.1111111,1.86666667 16.8,1.55555556 16.3333333,1.55555556 L7,1.55555556 Z M21.7777778,24.1111111 L21.7777778,5.44444444 C21.7777778,4.12222222 20.7666667,3.11111111 19.4444444,3.11111111 L18.5111111,3.11111111 C18.2,4.04444444 17.3444444,4.66666667 16.3333333,4.66666667 L7,4.66666667 C5.98888889,4.66666667 5.13333333,4.04444444 4.82222222,3.11111111 L3.88888889,3.11111111 C2.56666667,3.11111111 1.55555556,4.12222222 1.55555556,5.44444444 L1.55555556,24.1111111 C1.55555556,25.4333333 2.56666667,26.4444444 3.88888889,26.4444444 L19.4444444,26.4444444 C20.7666667,26.4444444 21.7777778,25.4333333 21.7777778,24.1111111 Z M17.1111111,14.7777778 C17.5777778,14.7777778 17.8888889,15.0888889 17.8888889,15.5555556 C17.8888889,16.0222222 17.5777778,16.3333333 17.1111111,16.3333333 L6.22222222,16.3333333 C5.75555556,16.3333333 5.44444444,16.0222222 5.44444444,15.5555556 C5.44444444,15.0888889 5.75555556,14.7777778 6.22222222,14.7777778 L17.1111111,14.7777778 Z M17.1111111,9.33333333 C17.5777778,9.33333333 17.8888889,9.64444444 17.8888889,10.1111111 C17.8888889,10.5777778 17.5777778,10.8888889 17.1111111,10.8888889 L6.22222222,10.8888889 C5.75555556,10.8888889 5.44444444,10.5777778 5.44444444,10.1111111 C5.44444444,9.64444444 5.75555556,9.33333333 6.22222222,9.33333333 L17.1111111,9.33333333 Z M17.1111111,20.2222222 C17.5777778,20.2222222 17.8888889,20.5333333 17.8888889,21 C17.8888889,21.4666667 17.5777778,21.7777778 17.1111111,21.7777778 L6.22222222,21.7777778 C5.75555556,21.7777778 5.44444444,21.4666667 5.44444444,21 C5.44444444,20.5333333 5.75555556,20.2222222 6.22222222,20.2222222 L17.1111111,20.2222222 Z" id="Combined-Shape"></path>
                    </g>
                </g>
            </g>
        </g>
    </g>
</svg>