<?xml version="1.0" encoding="UTF-8"?>
<svg width="28px" height="28px" viewBox="0 0 28 28" version="1.1" xmlns="http://www.w3.org/2000/svg" xmlns:xlink="http://www.w3.org/1999/xlink">
    <!-- Generator: sketchtool 51.2 (57519) - http://www.bohemiancoding.com/sketch -->
    <title>A702BFE2-5724-4ECD-8147-19030BCB19C2</title>
    <desc>Created with sketchtool.</desc>
    <defs></defs>
    <g id="instar-web" stroke="none" stroke-width="1" fill="none" fill-rule="evenodd">
        <g id="Web-App-Exchange" transform="translate(-24.000000, -104.000000)" fill-rule="nonzero" stroke="#8C9FBF" stroke-width="1.5">
            <g id="menu" transform="translate(0.000000, 60.000000)">
                <g id="d5menu" transform="translate(23.000000, 44.000000)">
                    <g id="dashboard" transform="translate(1.000000, 0.000000)">
                        <path d="M1.55555556,0.75 C1.11065951,0.75 0.75,1.11065951 0.75,1.55555556 L0.75,14 C0.75,14.444896 1.11065951,14.8055556 1.55555556,14.8055556 L10.8888889,14.8055556 C11.3337849,14.8055556 11.6944444,14.444896 11.6944444,14 L11.6944444,1.55555556 C11.6944444,1.11065951 11.3337849,0.75 10.8888889,0.75 L1.55555556,0.75 Z M1.55555556,18.6388889 C1.11065951,18.6388889 0.75,18.9995484 0.75,19.4444444 L0.75,26.4444444 C0.75,26.8893405 1.11065951,27.25 1.55555556,27.25 L10.8888889,27.25 C11.3337849,27.25 11.6944444,26.8893405 11.6944444,26.4444444 L11.6944444,19.4444444 C11.6944444,18.9995484 11.3337849,18.6388889 10.8888889,18.6388889 L1.55555556,18.6388889 Z M17.1111111,13.1944444 C16.6662151,13.1944444 16.3055556,13.555104 16.3055556,14 L16.3055556,26.4444444 C16.3055556,26.8893405 16.6662151,27.25 17.1111111,27.25 L26.4444444,27.25 C26.8893405,27.25 27.25,26.8893405 27.25,26.4444444 L27.25,14 C27.25,13.555104 26.8893405,13.1944444 26.4444444,13.1944444 L17.1111111,13.1944444 Z M17.1111111,0.75 C16.6662151,0.75 16.3055556,1.11065951 16.3055556,1.55555556 L16.3055556,8.55555556 C16.3055556,9.0004516 16.6662151,9.36111111 17.1111111,9.36111111 L26.4444444,9.36111111 C26.8893405,9.36111111 27.25,9.0004516 27.25,8.55555556 L27.25,1.55555556 C27.25,1.11065951 26.8893405,0.75 26.4444444,0.75 L17.1111111,0.75 Z" id="Combined-Shape"></path>
                    </g>
                </g>
            </g>
        </g>
    </g>
</svg>