<?xml version="1.0" encoding="UTF-8"?>
<svg width="29px" height="26px" viewBox="0 0 29 26" version="1.1" xmlns="http://www.w3.org/2000/svg" xmlns:xlink="http://www.w3.org/1999/xlink">
    <!-- Generator: sketchtool 51.2 (57519) - http://www.bohemiancoding.com/sketch -->
    <title>B65EC355-B43B-4D00-8811-64B3B3F59174</title>
    <desc>Created with sketchtool.</desc>
    <defs>
        <linearGradient x1="100%" y1="100%" x2="0%" y2="0%" id="linearGradient-1">
            <stop stop-color="#5172C1" offset="0%"></stop>
            <stop stop-color="#64D1B5" offset="100%"></stop>
        </linearGradient>
    </defs>
    <g id="instar-web" stroke="none" stroke-width="1" fill="none" fill-rule="evenodd">
        <g id="Web-App-Exchange" transform="translate(-23.000000, -346.000000)" fill="url(#linearGradient-1)" fill-rule="nonzero" stroke="url(#linearGradient-1)" stroke-width="0.35">
            <g id="menu" transform="translate(0.000000, 60.000000)">
                <g id="d5menu" transform="translate(23.000000, 44.000000)">
                    <g id="exchange" transform="translate(0.000000, 242.000000)">
                        <path d="M12.7651692,15.2033739 C13.1581625,14.853239 13.3872992,14.3571172 13.3872992,13.8598276 L14.3051573,8.60430052 L17.1559966,8.60430052 L17.319853,8.45831366 C17.7461418,8.07851424 17.9752786,7.58239248 17.9752786,7.0566062 C17.9752786,6.53081991 17.7461353,6.03469816 17.3531486,5.68456327 L11.5529596,-0.445717079 C11.1599664,-0.795851971 10.5698211,-1 9.97967589,-1 C9.38953066,-1 8.79938542,-0.795846132 8.37440745,-0.416052549 L2.63943324,5.71539569 C1.78685559,6.47499454 1.78685559,7.72954724 2.63943324,8.51881062 L2.80328964,8.66479748 L5.65412894,8.66479748 L6.57198698,13.8905432 C6.57198698,14.9706124 7.58842104,15.8465336 8.80069627,15.8465336 L11.193262,15.8465336 C11.7821291,15.8168808 12.3389787,15.583074 12.7652676,15.2032863 L12.7651692,15.2033739 Z M11.1599008,14.853239 L8.76733511,14.853239 C8.11190949,14.853239 7.62034027,14.3856139 7.62034027,13.8016664 L6.53862582,7.67021818 L3.2614977,7.67135863 C2.93378489,7.26306257 2.99907183,6.70761176 3.4253541,6.32781233 L9.16032831,0.226145413 C9.58661714,-0.153654009 10.3406188,-0.153654009 10.733612,0.196492561 L16.533801,6.38604357 C16.7629444,6.59019744 16.8615139,6.82400416 16.8615139,7.11597789 C16.8615139,7.32013176 16.7962269,7.52427394 16.6643749,7.69992534 L13.3872468,7.69992534 L12.3055324,13.8313736 L12.3055324,13.8610264 C12.3068124,14.3868127 11.8152412,14.8532699 11.1598156,14.8532699 L11.1599008,14.853239 Z M26.2346902,17.7148151 L26.0708338,17.5688282 L23.2199945,17.5688282 L22.3021364,12.3430825 C22.2688539,11.2915099 21.2857024,10.4155887 20.0734271,10.4155887 L17.6808614,10.4155887 C17.0907162,10.4155887 16.5338666,10.6197426 16.1075778,10.9995362 C15.7145846,11.3496711 15.4854478,11.8457928 15.4854478,12.3430825 L14.5675897,17.5986095 L11.7167504,17.5986095 L11.5196115,17.7149435 C11.0933227,18.094743 10.8641859,18.5908647 10.8641859,19.116651 C10.8641859,19.6424373 11.0933292,20.1385591 11.4863159,20.4886939 L17.2865049,26.4160525 C17.7127938,26.795852 18.2696434,27 18.8597886,27 C19.4499338,27 20.0067834,26.7958461 20.465057,26.386388 L26.233458,20.5171322 C26.6597468,20.1373328 26.8888836,19.641211 26.8888836,19.1154247 C26.8901636,18.5907771 26.6597402,18.0946554 26.234736,17.714856 L26.2346902,17.7148151 Z M17.6807303,11.3792772 L20.073296,11.3792772 C20.695426,11.3792772 21.2202909,11.8469023 21.2202909,12.4308498 L22.3020053,18.5325167 L25.6125602,18.5325167 C25.7431341,18.7081564 25.8096991,18.9123161 25.8096991,19.1164641 C25.8096991,19.378785 25.6791252,19.6422504 25.4486906,19.8463985 L19.6802897,25.7439757 C19.2540009,26.1237752 18.4999993,26.1237752 18.1070061,25.7736286 L12.306817,19.84627 C11.9138238,19.4961351 11.8805282,18.9406843 12.1762431,18.5620528 L15.4867979,18.5620528 L16.5685124,12.4306045 L16.5685124,12.4009517 C16.5339485,11.8170042 17.0588035,11.3790436 17.6809335,11.3790436 L17.6807303,11.3792772 Z" id="Shape" transform="translate(14.444444, 13.000000) rotate(90.000000) translate(-14.444444, -13.000000) "></path>
                    </g>
                </g>
            </g>
        </g>
    </g>
</svg>