<?xml version="1.0" encoding="UTF-8"?>
<svg width="28px" height="25px" viewBox="0 0 28 25" version="1.1" xmlns="http://www.w3.org/2000/svg" xmlns:xlink="http://www.w3.org/1999/xlink">
    <!-- Generator: sketchtool 51.2 (57519) - http://www.bohemiancoding.com/sketch -->
    <title>223EB84C-1624-4943-BD4F-90032652DD5A</title>
    <desc>Created with sketchtool.</desc>
    <defs></defs>
    <g id="instar-web" stroke="none" stroke-width="1" fill="none" fill-rule="evenodd">
        <g id="Web-App-Exchange" transform="translate(-24.000000, -427.000000)" fill="#8C9FBF" fill-rule="nonzero">
            <g id="menu" transform="translate(0.000000, 60.000000)">
                <g id="d5menu" transform="translate(23.000000, 44.000000)">
                    <g id="referral" transform="translate(1.000000, 323.000000)">
                        <path d="M18.1176471,14.9333333 L16.4705882,14.9333333 L16.4705882,9.2962963 C16.4705882,8.74401155 16.022873,8.2962963 15.4705882,8.2962963 L2.64705882,8.2962963 C2.09477407,8.2962963 1.64705882,8.74401155 1.64705882,9.2962963 L1.64705882,22.2296296 C1.64705882,22.7819144 2.09477407,23.2296296 2.64705882,23.2296296 L15.4705882,23.2296296 C16.022873,23.2296296 16.4705882,22.7819144 16.4705882,22.2296296 L16.4705882,19.9111111 L18.1176471,19.9111111 L18.1176471,22.8888889 C18.1176471,23.9934584 17.2222166,24.8888889 16.1176471,24.8888889 L2,24.8888889 C0.8954305,24.8888889 1.3527075e-16,23.9934584 0,22.8888889 L0,8.63703704 C-1.3527075e-16,7.53246754 0.8954305,6.63703704 2,6.63703704 L16.1176471,6.63703704 C17.2222166,6.63703704 18.1176471,7.53246754 18.1176471,8.63703704 L18.1176471,14.9333333 Z M9.88235294,9.95555556 L11.5294118,9.95555556 L11.5294118,15.5925926 C11.5294118,16.1448773 11.977127,16.5925926 12.5294118,16.5925926 L25.3529412,16.5925926 C25.9052259,16.5925926 26.3529412,16.1448773 26.3529412,15.5925926 L26.3529412,2.65925926 C26.3529412,2.10697451 25.9052259,1.65925926 25.3529412,1.65925926 L12.5294118,1.65925926 C11.977127,1.65925926 11.5294118,2.10697451 11.5294118,2.65925926 L11.5294118,4.97777778 L9.88235294,4.97777778 L9.88235294,2 C9.88235294,0.8954305 10.7777834,2.02906125e-16 11.8823529,0 L26,0 C27.1045695,-2.02906125e-16 28,0.8954305 28,2 L28,16.2518519 C28,17.3564214 27.1045695,18.2518519 26,18.2518519 L11.8823529,18.2518519 C10.7777834,18.2518519 9.88235294,17.3564214 9.88235294,16.2518519 L9.88235294,9.95555556 Z" id="Combined-Shape"></path>
                    </g>
                </g>
            </g>
        </g>
    </g>
</svg>