<?xml version="1.0" encoding="UTF-8"?>
<svg width="28px" height="26px" viewBox="0 0 28 26" version="1.1" xmlns="http://www.w3.org/2000/svg" xmlns:xlink="http://www.w3.org/1999/xlink">
    <!-- Generator: sketchtool 51.2 (57519) - http://www.bohemiancoding.com/sketch -->
    <title>2DC7EC50-BBA9-4C39-91F4-06C22F62F536</title>
    <desc>Created with sketchtool.</desc>
    <defs></defs>
    <g id="instar-web" stroke="none" stroke-width="1" fill="none" fill-rule="evenodd">
        <g id="Web-App-Exchange" transform="translate(-24.000000, -265.000000)" fill="#8C9FBF" fill-rule="nonzero">
            <g id="menu" transform="translate(0.000000, 60.000000)">
                <g id="d5menu" transform="translate(23.000000, 44.000000)">
                    <g id="wallet" transform="translate(1.000000, 161.000000)">
                        <path d="M26.3475275,11.6992407 L26.3475275,10.9780233 C26.3475275,9.15364282 25.1155619,7.59941035 23.3961225,7.00409734 L23.3961225,4.02259488 C23.3961225,1.80463072 21.4817685,0 19.1289499,0 L4.26717261,0 C1.94877276,0 0.0755715297,1.7101142 0.0022446989,3.89316367 C0.00199528791,3.89880645 0.00124705495,9.60553524 0,21.01335 C0,21.4027017 0.33520837,21.7186972 0.748232968,21.7186972 C1.16125757,21.7186972 1.49646594,21.4027017 1.49646594,21.01335 L1.49646594,7.0633465 C2.29258581,7.73801106 3.34160843,8.15240252 4.49426132,8.15240252 L21.8536403,8.15240252 C22.0175033,8.15240252 22.177251,8.16827283 22.3340059,8.19225464 C22.4297797,8.23422279 22.5356546,8.25926262 22.6482637,8.25926262 C23.9202597,8.59077578 24.8510616,9.68265319 24.8510616,10.9783759 L24.8510616,11.6639734 L19.3335917,11.6639734 C18.2101199,11.6639734 17.2961533,12.5255549 17.2961533,13.584281 L17.2961533,16.7957267 C17.2961533,17.8548054 18.2101199,18.716387 19.3335917,18.716387 L24.8720121,18.716387 C24.8592921,18.7675247 24.8514357,18.8204257 24.8514357,18.8754428 L24.8514357,21.0369792 C24.8514357,22.5950911 23.506861,23.8629526 21.8536403,23.8629526 L2.17024972,23.8629526 C1.75722512,23.8629526 1.42201676,24.1789481 1.42201676,24.5682997 C1.42201676,24.9576514 1.75722512,25.2736469 2.17024972,25.2736469 L21.8536403,25.2736469 C24.3317879,25.2736469 26.3479016,23.373089 26.3479016,21.0369792 L26.3479016,18.8754428 C26.3479016,18.8091401 26.3351816,18.7463643 26.3168499,18.6853517 C27.2715952,18.5266486 28,17.7408919 28,16.7957267 L28,13.584281 C28,12.649696 27.2873081,11.8695821 26.3475275,11.6992407 Z M1.49758828,3.93971658 C1.54510108,2.52091076 2.76172788,1.411047 4.2667985,1.411047 L19.1289499,1.411047 C20.6568417,1.411047 21.8996566,2.58262864 21.8996566,4.02294755 L21.8996566,6.74417691 C21.8891814,6.74417691 16.0872582,6.74347156 4.4938872,6.74206087 C2.84927114,6.74170819 1.51105648,5.48689559 1.49758828,3.93971658 Z M26.5035341,16.7957267 C26.5035341,17.0768075 26.2611066,17.3056927 25.9629357,17.3056927 L19.3335917,17.3056927 C19.0354208,17.3056927 18.7926192,17.0771602 18.7926192,16.7957267 L18.7926192,13.584281 C18.7926192,13.3032002 19.0350467,13.0746677 19.3335917,13.0746677 L25.9629357,13.0746677 C26.2611066,13.0746677 26.5035341,13.3032002 26.5035341,13.584281 L26.5035341,16.7957267 Z M19.3434265,3.42446048 C19.7060364,3.42446048 20,3.74045601 20,4.12980765 C20,4.51915928 19.7057079,4.83515481 19.3430981,4.83515481 L4.41303141,4.83515481 C4.05042155,4.83515481 3.7561295,4.51915928 3.7561295,4.12980765 C3.7561295,3.74045601 4.05042155,3.42446048 4.41303141,3.42446048 L19.3434265,3.42446048 Z M22.4814077,16.2314489 C23.0915531,16.2314489 23.5861737,15.7651781 23.5861737,15.1900039 C23.5861737,14.6148296 23.0915531,14.1485588 22.4814077,14.1485588 C21.8712623,14.1485588 21.3766418,14.6148296 21.3766418,15.1900039 C21.3766418,15.7651781 21.8712623,16.2314489 22.4814077,16.2314489 Z" id="Combined-Shape"></path>
                    </g>
                </g>
            </g>
        </g>
    </g>
</svg>