<?xml version="1.0" encoding="UTF-8"?>
<svg width="40px" height="40px" viewBox="0 0 40 40" version="1.1" xmlns="http://www.w3.org/2000/svg" xmlns:xlink="http://www.w3.org/1999/xlink">
    <!-- Generator: sketchtool 51.2 (57519) - http://www.bohemiancoding.com/sketch -->
    <title>9DDE2595-5D95-4FB6-8430-6B4A1435D2B8</title>
    <desc>Created with sketchtool.</desc>
    <defs></defs>
    <g id="instar-web" stroke="none" stroke-width="1" fill="none" fill-rule="evenodd">
        <g id="Web-App-Exchange" transform="translate(-234.000000, -534.000000)">
            <g id="table" transform="translate(205.000000, 371.000000)">
                <g id="1-copy-3" transform="translate(29.000000, 163.000000)">
                    <g id="Group-2">
                        <circle id="Oval" fill="#F79D0E" cx="20" cy="20" r="20"></circle>
                        <g id="bitcoin-digital-currency-symbol" transform="translate(13.333333, 9.523810)" fill="#FFFFFF" fill-rule="nonzero">
                            <path d="M12.8959682,11.9812065 C12.6079627,11.4142656 12.2153424,10.9694793 11.7181075,10.6547517 C11.375904,10.4305622 10.878669,10.2207437 10.2301839,10.0332006 C10.8345544,9.79895123 11.321706,9.50721741 11.6884877,9.1479393 C12.0590506,8.78578696 12.3382332,8.37189857 12.5317074,7.9069927 C12.729593,7.43993115 12.8323171,6.94700158 12.8323171,6.42532976 C12.8323171,5.71180343 12.6464054,5.05360593 12.2758425,4.45289292 C11.9027587,3.85217992 11.375904,3.39374105 10.6877156,3.0761392 C10.4230278,2.95182897 10.1066629,2.85769811 9.75689685,2.78153115 L9.75689685,0 L7.41819098,0 L7.41819098,2.59470653 L5.9119913,2.59470653 L5.9119913,0 L3.57202502,0 L3.57202502,2.59470653 L0,2.59470653 L0,4.773369 L0.539458966,4.773369 C0.903719809,4.773369 1.15391281,4.81217104 1.28058483,4.888338 C1.40788707,4.96306784 1.50178822,5.06438427 1.55535599,5.19444295 C1.60955397,5.3216274 1.63476233,5.62054679 1.63476233,6.08832689 L1.63476233,14.8812994 C1.63476233,15.3433311 1.60955397,15.6336278 1.55535599,15.764405 C1.50178822,15.8980565 1.40914748,15.9972172 1.28058483,16.0748213 C1.15391281,16.1452398 0.903719809,16.1797305 0.539458966,16.1797305 L0,16.1797305 L0,18.3562373 L3.57202502,18.3562373 L3.57202502,20.952381 L5.9119913,20.952381 L5.9119913,18.3562373 L7.24362307,18.3562373 C7.30223252,18.3562373 7.36021175,18.3562373 7.41693057,18.3562373 L7.41693057,20.952381 L9.75563643,20.952381 L9.75563643,18.1356406 C10.1520379,18.0501324 10.4980227,17.9380376 10.7923304,17.802949 C11.5996282,17.4350482 12.2247956,16.8990053 12.6672023,16.1948202 C13.1140206,15.489198 13.3333333,14.71675 13.3333333,13.8803506 C13.3327031,13.1840696 13.187755,12.5510216 12.8959682,11.9812065 Z M5.05616738,5.13480278 L6.57118999,5.13480278 C7.45600353,5.13480278 8.07423863,5.19803573 8.41770257,5.32593874 C8.75864568,5.44809329 9.02333349,5.65719316 9.20294308,5.94964554 C9.38633392,6.24640926 9.47645381,6.60281315 9.47645381,7.01526442 C9.47645381,7.41262601 9.37940162,7.76328145 9.1909691,8.0693864 C8.9962345,8.37692847 8.71074979,8.60399223 8.33199414,8.75129626 C7.95134786,8.90434873 7.36588363,8.98123425 6.57308062,8.98123425 L5.05805801,8.98123425 L5.05616738,5.13480278 Z M9.33717761,14.8834551 C9.06492729,15.272194 8.74289045,15.5330299 8.35279104,15.6551845 C7.97025413,15.7787761 7.48373273,15.8420091 6.89574766,15.8420091 L5.88615273,15.8420091 C5.5508815,15.8420091 5.34480314,15.8197338 5.26728742,15.7787761 C5.18977171,15.7421298 5.13809456,15.6666814 5.10343306,15.5624907 C5.08011533,15.4769825 5.06057885,15.196027 5.05679759,14.7088459 L5.05679759,11.2957039 L6.84533094,11.2957039 C7.63561311,11.2957039 8.21288462,11.3783378 8.59731216,11.5457614 C8.97858865,11.7110293 9.26911503,11.9553385 9.45502671,12.2822815 C9.64850089,12.6034762 9.74681351,12.9950893 9.74681351,13.4664622 C9.74744371,14.0190319 9.61068835,14.4875306 9.33717761,14.8834551 Z" id="Shape"></path>
                        </g>
                    </g>
                </g>
            </g>
        </g>
    </g>
</svg>