<?xml version="1.0" encoding="UTF-8"?>
<svg width="14px" height="10px" viewBox="0 0 14 10" version="1.1" xmlns="http://www.w3.org/2000/svg" xmlns:xlink="http://www.w3.org/1999/xlink">
    <!-- Generator: sketchtool 51.2 (57519) - http://www.bohemiancoding.com/sketch -->
    <title>28ACF392-604A-48A3-B18C-482DF294BF99</title>
    <desc>Created with sketchtool.</desc>
    <defs></defs>
    <g id="instar-web" stroke="none" stroke-width="1" fill="none" fill-rule="evenodd">
        <g id="Web-App-Exchange" transform="translate(-284.000000, -126.000000)" fill="#303864" fill-rule="nonzero">
            <g id="graph" transform="translate(205.000000, 99.000000)">
                <g id="1">
                    <path d="M91.2752787,34.9084629 L84.1681868,34.9084629 L84.1681868,35.97828 C84.1681868,36.2415011 83.9505266,36.4568221 83.6800654,36.4568221 C83.5793809,36.4568221 83.4826462,36.4244032 83.4056495,36.3687589 L81.3589334,34.8358832 C81.2937857,34.7908842 81.2385083,34.733305 81.1896519,34.667013 C80.8880965,34.2707321 80.9749609,33.7084795 81.3762178,33.4143284 L81.3791792,33.4143284 L83.403658,31.8997853 C83.4826257,31.8455928 83.579358,31.8117221 83.6800449,31.8117221 C83.9500133,31.8117221 84.1681663,32.0255939 84.1681663,32.2902642 L84.1681663,33.3600813 L91.2752582,33.3600813 C91.7110587,33.3600813 92.0649351,33.7055636 92.0649351,34.134261 C92.0649351,34.5629583 91.7110587,34.9084406 91.2752582,34.9084406 L91.2752787,34.9084629 Z M90.1366657,30.1937709 L88.0977832,31.7188428 C88.0153611,31.7730354 87.9206049,31.8117444 87.8149778,31.8117444 C87.5464876,31.8117444 87.3268564,31.5978726 87.3268564,31.3346516 L87.3268564,30.2633851 L80.2182483,30.2633851 C79.7854043,30.2633851 79.4285714,29.9179028 79.4285714,29.4892055 C79.4285714,29.0605082 79.7854043,28.7150259 80.2182483,28.7150259 L87.3268564,28.7150259 L87.3268564,27.6452088 C87.3268564,27.3819877 87.5464876,27.1666667 87.8149778,27.1666667 C87.9240517,27.1666667 88.025234,27.1990856 88.1042017,27.26102 L90.1164247,28.7692457 L90.1164247,28.772149 C90.5241001,29.064888 90.6075026,29.6251958 90.3074254,30.023471 C90.2551096,30.0883088 90.1983514,30.1425014 90.136653,30.1937905 L90.1366657,30.1937709 Z" id="Shape"></path>
                </g>
            </g>
        </g>
    </g>
</svg>