<?xml version="1.0" encoding="UTF-8"?>
<svg width="153px" height="50px" viewBox="0 0 153 50" version="1.1" xmlns="http://www.w3.org/2000/svg" xmlns:xlink="http://www.w3.org/1999/xlink">
    <!-- Generator: sketchtool 51.2 (57519) - http://www.bohemiancoding.com/sketch -->
    <title>07D019F0-6392-4ECD-96C4-8F4F66B20DC4</title>
    <desc>Created with sketchtool.</desc>
    <defs></defs>
    <g id="instar-web" stroke="none" stroke-width="1" fill="none" fill-rule="evenodd">
        <g id="iPhone-X-Responsive" transform="translate(-26.000000, -2435.000000)">
            <g id="DOWNLOAD" transform="translate(19.000000, 2006.000000)">
                <g id="Group-16" transform="translate(7.000000, 429.000000)">
                    <g id="appstore">
                        <path d="M152.768084,43.2561404 C152.768084,46.9795322 149.745566,50 146.016758,50 L6.75308325,50 C3.02398278,50 0,46.9795322 0,43.2561404 L0,6.84356725 C0,3.12017544 3.02398278,0.100584795 6.75308325,0.100584795 L146.016758,0.100584795 C149.745566,0.100584795 152.768084,3.12017544 152.768084,6.84356725 L152.768084,43.2561404" id="Fill-135" fill="#000000"></path>
                        <path d="M39.8376861,33.0839181 C39.0289091,34.8739766 38.6417971,35.672807 37.6008115,37.2546784 C36.1475311,39.4637427 34.1001129,42.2140351 31.5630947,42.2371345 C29.3080651,42.2578947 28.7291541,40.7716374 25.6694469,40.7885965 C22.6097397,40.8052632 21.9708,42.2631579 19.7154775,42.2426901 C17.1784593,42.2192982 15.2379215,39.7353801 13.784934,37.527193 C9.72201531,31.351462 9.29742201,24.1038012 11.8031081,20.2508772 C13.5840574,17.5125731 16.3922297,15.9096491 19.0340785,15.9096491 C21.7233646,15.9096491 23.4138316,17.3824561 25.6375292,17.3824561 C27.7941703,17.3824561 29.1089455,15.9073099 32.2178469,15.9073099 C34.568044,15.9073099 37.0582105,17.1847953 38.8327177,19.3950292 C33.0193033,22.5760234 33.9633646,30.8675439 39.8376861,33.0839181" id="Fill-136" fill="#FFFFFE"></path>
                        <path d="M29.8594507,13.4403509 C30.9882833,11.9926901 31.8468402,9.94736842 31.5355694,7.85789474 C29.6907847,7.98479532 27.5315081,9.15701754 26.2711981,10.6853801 C25.1271388,12.0730994 24.1830775,14.1309942 24.5508632,16.1307018 C26.5651923,16.1929825 28.6492134,14.9915205 29.8594507,13.4403509" id="Fill-137" fill="#FFFFFE"></path>
                        <path d="M53.5959732,22.9701754 C53.7924574,23.7336257 54.0044612,24.5266082 54.2770794,25.3833333 L55.8454392,29.9190058 L51.3816459,29.9190058 L52.928044,25.3538012 C53.1637665,24.6137427 53.3874833,23.8140351 53.5959732,22.9701754 Z M52.2150201,20.1573099 L46.3951636,37.2637427 L49.0601455,37.2637427 L50.7977569,32.0111111 L56.4328421,32.0111111 L58.2196478,37.2637427 L60.9584211,37.2637427 L55.1133818,20.1573099 L52.2150201,20.1573099 Z" id="Fill-138" fill="#FFFFFE"></path>
                        <path d="M67.8438603,26.7347953 C70.1545263,26.7347953 71.1884842,28.8719298 71.1884842,30.9897661 C71.1884842,33.721345 69.8690239,35.4184211 67.7454718,35.4184211 C66.2957053,35.4184211 65.0415445,34.4330409 64.6919139,33.0166667 C64.6318852,32.7973684 64.5999675,32.5067251 64.5999675,32.1789474 L64.5999675,30.0976608 C64.5999675,29.9090643 64.642134,29.6804094 64.6822507,29.4587719 C64.6951349,29.3880117 64.7091904,29.3172515 64.7194392,29.248538 C65.1059656,27.7678363 66.3891158,26.7347953 67.8438603,26.7347953 Z M68.4895349,24.5918129 C66.7241053,24.5918129 65.310356,25.2725146 64.3689301,26.5657895 L64.2655636,24.8643275 L61.8948689,24.8643275 L61.9089244,25.0818713 C61.9789091,26.1418129 62.0078986,27.3084795 62.0078986,28.9836257 L62.0078986,42.1690058 L64.5999675,42.1690058 L64.5999675,36.0157895 C65.4040593,36.9766082 66.688088,37.5359649 68.1428325,37.5359649 C69.6578986,37.5359649 71.0534928,36.9435673 72.070467,35.8687135 C73.2057416,34.6704678 73.8045646,32.9482456 73.8045646,30.8903509 C73.8045646,29.0722222 73.284511,27.5 72.2988689,26.3450292 C71.3334316,25.2143275 69.9811751,24.5918129 68.4895349,24.5918129 Z" id="Fill-139" fill="#FFFFFE"></path>
                        <path d="M81.1913167,26.7347953 C83.5008115,26.7347953 84.5350622,28.8719298 84.5350622,30.9897661 C84.5350622,33.721345 83.2147234,35.4184211 81.0923426,35.4184211 C79.6431617,35.4184211 78.3878297,34.4330409 78.0387847,33.0166667 C77.978756,32.7973684 77.9474239,32.5067251 77.9474239,32.1789474 L77.9474239,30.0976608 C77.9474239,29.9078947 77.9890048,29.6783626 78.03,29.4564327 C78.0428842,29.3868421 78.0557684,29.3172515 78.0674813,29.248538 C78.4525435,27.7678363 79.7362794,26.7347953 81.1913167,26.7347953 Z M81.8364057,24.5918129 C80.0715617,24.5918129 78.6578124,25.2725146 77.7155081,26.5657895 L77.6121416,24.8643275 L75.2423254,24.8643275 L75.2555024,25.0818713 C75.3257799,26.1429825 75.355355,27.3084795 75.355355,28.9836257 L75.355355,42.1690058 L77.9474239,42.1690058 L77.9474239,36.0157895 C78.7515158,36.9766082 80.034666,37.5359649 81.4894105,37.5359649 C83.0041837,37.5359649 84.4000708,36.9435673 85.4188019,35.8687135 C86.5523196,34.6704678 87.1517282,32.9482456 87.1517282,30.8903509 C87.1517282,29.0722222 86.6307962,27.5 85.6451541,26.3450292 C84.6803024,25.2143275 83.3280459,24.5918129 81.8364057,24.5918129 Z" id="Fill-140" fill="#FFFFFE"></path>
                        <path d="M98.5574756,27.405848 C96.1384651,26.4701754 95.3633627,25.7347953 95.3633627,24.3754386 C95.3633627,23.2309942 96.2740421,22.0769006 98.3094545,22.0769006 C99.9885014,22.0769006 101.062576,22.6599415 101.352178,22.8394737 L101.571795,22.9748538 L102.303267,20.8149123 L102.158612,20.7304094 C101.724356,20.4763158 100.486886,19.8850877 98.3841244,19.8850877 C95.0787388,19.8850877 92.7701225,21.8336257 92.7701225,24.6225146 C92.7701225,26.8716374 94.2157895,28.4438596 97.3194201,29.5707602 C99.5191062,30.3915205 100.337839,31.2324561 100.337839,32.674269 C100.337839,34.3061404 99.074601,35.3187135 97.043288,35.3187135 C95.7200211,35.3187135 94.3583943,34.9336257 93.3074526,34.2611111 L93.0825646,34.1172515 L92.3868172,36.3269006 L92.5147809,36.4114035 C93.4933952,37.0640351 95.3349589,37.5359649 96.8951196,37.5359649 C101.349835,37.5359649 102.929322,34.8236842 102.929322,32.5008772 C102.929322,30.1064327 101.663156,28.6295322 98.5574756,27.405848" id="Fill-141" fill="#FFFFFE"></path>
                        <path d="M107.595164,21.9172515 L105.052875,22.7143275 L105.052875,24.8643275 L103.191985,24.8643275 L103.191985,26.9327485 L105.052875,26.9327485 L105.052875,33.2690058 C105.052875,34.8008772 105.346283,35.874269 105.950377,36.552924 C106.529581,37.1868421 107.420056,37.5359649 108.458113,37.5359649 C109.437899,37.5359649 110.133939,37.3426901 110.461608,37.2269006 L110.606848,37.175731 L110.482691,35.1035088 L110.234084,35.1795322 C109.906122,35.280117 109.569962,35.3187135 109.028239,35.3187135 C108.024149,35.3187135 107.595164,34.6842105 107.595164,33.1944444 L107.595164,26.9327485 L110.721927,26.9327485 L110.721927,24.8643275 L107.595164,24.8643275 L107.595164,21.9172515" id="Fill-142" fill="#FFFFFE"></path>
                        <path d="M117.070036,26.6353801 C119.401786,26.6353801 120.463269,28.9049708 120.463269,31.0149123 C120.463269,33.6093567 119.014674,35.4926901 117.020842,35.4926901 L116.995659,35.4926901 C115.030232,35.4926901 113.603012,33.6409357 113.603012,31.0897661 C113.603012,28.872807 114.675623,26.6353801 117.070036,26.6353801 Z M117.144999,24.5918129 C113.518387,24.5918129 110.986054,27.2950292 110.986054,31.1628655 C110.986054,34.9154971 113.436689,37.5359649 116.946465,37.5359649 L116.970477,37.5359649 C119.937652,37.5359649 123.129715,35.4719298 123.129715,30.9400585 C123.129715,29.0976608 122.55871,27.5149123 121.4779,26.3622807 C120.390649,25.2046784 118.891688,24.5918129 117.144999,24.5918129 Z" id="Fill-143" fill="#FFFFFE"></path>
                        <path d="M131.068438,24.7122807 L130.912949,24.672807 C130.684547,24.6157895 130.498312,24.5918129 130.268446,24.5918129 C128.912383,24.5918129 127.695703,25.3891813 127.018697,26.6754386 L126.942563,24.8643275 L124.61667,24.8643275 L124.631604,25.0818713 C124.70071,26.1064327 124.729407,27.2567251 124.729407,28.8087719 L124.705395,37.2637427 L127.297171,37.2637427 L127.297171,30.6678363 C127.297171,30.3084795 127.321768,29.9690058 127.36862,29.6643275 C127.660857,28.080117 128.731711,27.0561404 130.09568,27.0561404 C130.360978,27.0561404 130.569761,27.0777778 130.791135,27.0997076 L131.068438,27.1280702 L131.068438,24.7122807" id="Fill-144" fill="#FFFFFE"></path>
                        <path d="M136.723143,26.5365497 C137.5123,26.5365497 138.152704,26.7804094 138.625906,27.2611111 C139.371433,28.0190058 139.502033,29.1350877 139.518431,29.6707602 L133.607213,29.6707602 C133.847914,28.1760234 134.784069,26.5365497 136.723143,26.5365497 Z M136.895615,24.5672515 C133.445282,24.5672515 131.035349,27.3204678 131.035349,31.2622807 C131.035349,35.0578947 133.432691,37.5114035 137.143929,37.5114035 C139.095301,37.5114035 140.453122,37.0836257 141.24755,36.7254386 L141.403625,36.6549708 L140.905533,34.7266082 L140.689137,34.8134503 C139.982848,35.1005848 139.043765,35.3935673 137.442023,35.3935673 C136.315826,35.3935673 133.718779,35.0225146 133.559776,31.6409357 L141.925728,31.6660819 L141.959403,31.5005848 C142.012111,31.2377193 142.037294,30.8833333 142.037294,30.4204678 C142.037294,27.7204678 140.690894,24.5672515 136.895615,24.5672515 Z" id="Fill-145" fill="#FFFFFE"></path>
                        <path d="M47.5714335,15.6432749 C47.8654278,15.6912281 48.2932421,15.6912281 48.7479962,15.6912281 C51.2340632,15.702924 52.583977,14.4421053 52.583977,12.255848 C52.5974469,10.3219298 51.3942373,9.13245614 48.93511,9.13245614 C48.3339445,9.13245614 47.8788976,9.18099415 47.5714335,9.24064327 L47.5714335,15.6432749 Z M46.3951636,8.47192982 C47.1172651,8.37573099 47.9594239,8.30380117 48.8812306,8.30380117 C50.5523713,8.30380117 51.742111,8.64035088 52.5306833,9.30116959 C53.3459024,9.96140351 53.8141263,10.9102339 53.8141263,12.219883 C53.8141263,13.5412281 53.3459024,14.6219298 52.5175062,15.3669591 C51.6618775,16.1236842 50.2715541,16.5321637 48.5207656,16.5321637 C47.6786067,16.5321637 46.9969148,16.5081871 46.3951636,16.4359649 L46.3951636,8.47192982 Z" id="Fill-146" fill="#FFFFFE"></path>
                        <path d="M58.0228708,15.7991228 C59.1455541,15.7991228 59.9880057,14.8502924 59.9880057,13.5289474 C59.9880057,12.5438596 59.4398411,11.3067251 58.0498105,11.3067251 C56.6726641,11.3067251 56.0712057,12.4599415 56.0712057,13.5652047 C56.0712057,14.8383041 56.8732478,15.7991228 58.009401,15.7991228 L58.0228708,15.7991228 Z M57.9827541,16.5921053 C56.2448498,16.5921053 54.8817589,15.4391813 54.8817589,13.601462 C54.8817589,11.6552632 56.3119062,10.5140351 58.0893416,10.5140351 C59.947889,10.5140351 61.2038067,11.7269006 61.2038067,13.4929825 C61.2038067,15.6552632 59.5332517,16.5921053 57.9965167,16.5921053 L57.9827541,16.5921053 Z" id="Fill-147" fill="#FFFFFE"></path>
                        <path d="M63.0649895,10.6459064 L63.9335024,13.5894737 C64.1071464,14.2377193 64.2813761,14.8502924 64.4014335,15.4511696 L64.4415502,15.4511696 C64.5885474,14.8622807 64.8023081,14.2377193 65.0163617,13.601462 L66.0722813,10.6459064 L67.0617301,10.6459064 L68.064356,13.552924 C68.3044708,14.2377193 68.4918775,14.8622807 68.6388746,15.4511696 L68.6789914,15.4511696 C68.7858718,14.8622807 68.9598086,14.2497076 69.1735694,13.5652047 L70.0953761,10.6459064 L71.2587617,10.6459064 L69.1735694,16.4599415 L68.1041799,16.4599415 L67.1153167,13.6853801 C66.8880861,13.0245614 66.7006794,12.4479532 66.5399196,11.7631579 L66.5135656,11.7631579 C66.3530986,12.4599415 66.1528077,13.0725146 65.9249914,13.6973684 L64.8828344,16.4599415 L63.813445,16.4599415 L61.8614871,10.6459064 L63.0649895,10.6459064" id="Fill-148" fill="#FFFFFE"></path>
                        <path d="M72.43591,12.219883 C72.43591,11.6070175 72.4224402,11.1269006 72.3820306,10.6459064 L73.425066,10.6459064 L73.4915368,11.5953216 L73.5184766,11.5953216 C73.8394105,11.0546784 74.5875732,10.5140351 75.6569627,10.5140351 C76.5524153,10.5140351 77.9424459,10.9944444 77.9424459,12.9885965 L77.9424459,16.4599415 L76.7670545,16.4599415 L76.7670545,13.1084795 C76.7670545,12.1716374 76.3784785,11.3792398 75.2692651,11.3792398 C74.5076325,11.3792398 73.9055885,11.8716374 73.6924134,12.4599415 C73.6388268,12.5921053 73.6118871,12.7842105 73.6118871,12.9526316 L73.6118871,16.4599415 L72.43591,16.4599415 L72.43591,12.219883" id="Fill-149" fill="#FFFFFE"></path>
                        <polygon id="Fill-150" fill="#FFFFFE" points="79.8542871 16.4599415 81.0305569 16.4599415 81.0305569 7.93157895 79.8542871 7.93157895"></polygon>
                        <path d="M85.65511,15.7991228 C86.7780861,15.7991228 87.6205378,14.8502924 87.6205378,13.5289474 C87.6205378,12.5438596 87.0723732,11.3067251 85.6826354,11.3067251 C84.305489,11.3067251 83.7037378,12.4599415 83.7037378,13.5652047 C83.7037378,14.8383041 84.5057799,15.7991228 85.6422258,15.7991228 L85.65511,15.7991228 Z M85.6155789,16.5921053 C83.8782603,16.5921053 82.5148766,15.4391813 82.5148766,13.601462 C82.5148766,11.6552632 83.9441455,10.5140351 85.7227522,10.5140351 C87.5801282,10.5140351 88.8366316,11.7269006 88.8366316,13.4929825 C88.8366316,15.6552632 87.1657837,16.5921053 85.628756,16.5921053 L85.6155789,16.5921053 Z" id="Fill-151" fill="#FFFFFE"></path>
                        <path d="M93.7299962,13.4929825 C92.4465531,13.4690058 90.9897589,13.6733918 90.9897589,14.8023392 C90.9897589,15.4991228 91.4975139,15.8114035 92.0857952,15.8114035 C92.9411311,15.8114035 93.4892957,15.3309942 93.6761167,14.8383041 C93.7168191,14.7304094 93.7299962,14.6099415 93.7299962,14.5020468 L93.7299962,13.4929825 Z M94.8790335,15.0666667 C94.8790335,15.5710526 94.9059732,16.0631579 94.9727368,16.4599415 L93.9165244,16.4599415 L93.809644,15.7274854 L93.7701129,15.7274854 C93.4225321,16.1839181 92.7136077,16.5921053 91.791801,16.5921053 C90.4822967,16.5921053 89.813489,15.7634503 89.813489,14.9222222 C89.813489,13.5169591 91.2032268,12.7482456 93.7027636,12.7602339 L93.7027636,12.6400585 C93.7027636,12.1599415 93.5563522,11.2830409 92.2327923,11.2950292 C91.6172785,11.2950292 90.9897589,11.4505848 90.5352976,11.7269006 L90.2676574,11.0187135 C90.8023522,10.7184211 91.5909244,10.5140351 92.4067292,10.5140351 C94.3982182,10.5140351 94.8790335,11.7269006 94.8790335,12.8926901 L94.8790335,15.0666667 Z" id="Fill-152" fill="#FFFFFE"></path>
                        <path d="M101.175313,13.0125731 C101.175313,12.8684211 101.162136,12.7002924 101.121433,12.5561404 C100.948375,11.895614 100.306507,11.3429825 99.4245244,11.3429825 C98.207845,11.3429825 97.4857435,12.3038012 97.4857435,13.5774854 C97.4857435,14.7663743 98.1413742,15.7388889 99.3975847,15.7388889 C100.18645,15.7388889 100.908258,15.2587719 101.121433,14.4780702 C101.162136,14.3339181 101.175313,14.1894737 101.175313,14.0216374 L101.175313,13.0125731 Z M102.35129,7.93157895 L102.35129,14.9581871 C102.35129,15.4748538 102.365638,16.0631579 102.404877,16.4599415 L101.34925,16.4599415 L101.295956,15.4511696 L101.269016,15.4511696 C100.908258,16.0997076 100.132863,16.5921053 99.0769435,16.5921053 C97.5126833,16.5921053 96.2962967,15.4032164 96.2962967,13.6371345 C96.2828268,11.6909357 97.6333263,10.5140351 99.1967081,10.5140351 C100.19992,10.5140351 100.868142,10.9347953 101.148959,11.3909357 L101.175313,11.3909357 L101.175313,7.93157895 L102.35129,7.93157895 Z" id="Fill-153" fill="#FFFFFE"></path>
                        <path d="M109.810662,15.7991228 C110.933345,15.7991228 111.775211,14.8502924 111.775211,13.5289474 C111.775211,12.5438596 111.227925,11.3067251 109.837602,11.3067251 C108.460456,11.3067251 107.85929,12.4599415 107.85929,13.5652047 C107.85929,14.8383041 108.661332,15.7991228 109.7969,15.7991228 L109.810662,15.7991228 Z M109.770253,16.5921053 C108.032641,16.5921053 106.669257,15.4391813 106.669257,13.601462 C106.669257,11.6552632 108.100283,10.5140351 109.877133,10.5140351 C111.735973,10.5140351 112.991891,11.7269006 112.991891,13.4929825 C112.991891,15.6552632 111.32075,16.5921053 109.784308,16.5921053 L109.770253,16.5921053 Z" id="Fill-154" fill="#FFFFFE"></path>
                        <path d="M114.476503,12.219883 C114.476503,11.6070175 114.462741,11.1269006 114.422624,10.6459064 L115.465367,10.6459064 L115.532716,11.5953216 L115.55907,11.5953216 C115.880004,11.0546784 116.628167,10.5140351 117.697556,10.5140351 C118.593301,10.5140351 119.983625,10.9944444 119.983625,12.9885965 L119.983625,16.4599415 L118.807062,16.4599415 L118.807062,13.1084795 C118.807062,12.1716374 118.41995,11.3792398 117.309858,11.3792398 C116.548519,11.3792398 115.946182,11.8716374 115.732421,12.4599415 C115.679127,12.5921053 115.65248,12.7842105 115.65248,12.9526316 L115.65248,16.4599415 L114.476503,16.4599415 L114.476503,12.219883" id="Fill-155" fill="#FFFFFE"></path>
                        <path d="M126.145791,9.25292398 L126.145791,10.6459064 L127.829523,10.6459064 L127.829523,11.4505848 L126.145791,11.4505848 L126.145791,14.5862573 C126.145791,15.3067251 126.373608,15.7152047 127.02836,15.7152047 C127.348708,15.7152047 127.536408,15.6912281 127.710052,15.6432749 L127.763345,16.4479532 C127.536408,16.519883 127.175357,16.5921053 126.720603,16.5921053 C126.172731,16.5921053 125.731154,16.4239766 125.450337,16.1479532 C125.129696,15.8233918 124.996461,15.3067251 124.996461,14.6219298 L124.996461,11.4505848 L123.993835,11.4505848 L123.993835,10.6459064 L124.996461,10.6459064 L124.996461,9.57719298 L126.145791,9.25292398" id="Fill-156" fill="#FFFFFE"></path>
                        <path d="M129.153669,7.93157895 L130.329646,7.93157895 L130.329646,11.5590643 L130.356878,11.5590643 C130.543407,11.2587719 130.837401,10.9827485 131.19933,10.8143275 C131.546618,10.6225146 131.960084,10.5140351 132.402247,10.5140351 C133.270467,10.5140351 134.66079,10.9944444 134.66079,13.0005848 L134.66079,16.4599415 L133.484813,16.4599415 L133.484813,13.1207602 C133.484813,12.1716374 133.097116,11.3909357 131.98761,11.3909357 C131.225684,11.3909357 130.637696,11.8716374 130.410172,12.4479532 C130.343116,12.5921053 130.329646,12.7482456 130.329646,12.9526316 L130.329646,16.4599415 L129.153669,16.4599415 L129.153669,7.93157895" id="Fill-157" fill="#FFFFFE"></path>
                        <path d="M140.676838,12.9766082 C140.689137,12.3157895 140.369081,11.2587719 139.058699,11.2587719 C137.855489,11.2587719 137.347441,12.2438596 137.254323,12.9766082 L140.676838,12.9766082 Z M137.240561,13.7333333 C137.268086,15.1625731 138.270712,15.751462 139.446396,15.751462 C140.288262,15.751462 140.810073,15.6190058 141.23818,15.4628655 L141.452233,16.2076023 C141.037011,16.375731 140.315202,16.580117 139.286222,16.580117 C137.307617,16.580117 136.1047,15.3906433 136.1047,13.6494152 C136.1047,11.8836257 137.268086,10.5020468 139.151816,10.5020468 C141.264534,10.5020468 141.81182,12.1716374 141.81182,13.2409357 C141.81182,13.4570175 141.799522,13.6254386 141.772582,13.7453216 L137.240561,13.7333333 Z" id="Fill-158" fill="#FFFFFE"></path>
                    </g>
                </g>
            </g>
        </g>
    </g>
</svg>