<svg xmlns="http://www.w3.org/2000/svg" viewBox="0 0 13 13"><defs><style>.cls-1{fill:#69759b;}.cls-2{fill:#fff;}</style></defs><title>Asset 61</title><g id="Layer_2" data-name="Layer 2"><g id="Layer_1-2" data-name="Layer 1"><circle class="cls-1" cx="6.5" cy="6.5" r="6.5"/><g id="b"><ellipse class="cls-2" cx="6.5" cy="5.12" rx="2.04" ry="1.88"/><path class="cls-1" d="M6.5,7.17a2.13,2.13,0,0,1-2.2-2,2.13,2.13,0,0,1,2.2-2,2.13,2.13,0,0,1,2.2,2A2.13,2.13,0,0,1,6.5,7.17Zm0-3.77A1.82,1.82,0,0,0,4.62,5.12,1.81,1.81,0,0,0,6.5,6.84,1.81,1.81,0,0,0,8.38,5.12,1.82,1.82,0,0,0,6.5,3.4Z"/><rect class="cls-2" x="4.46" y="4.65" width="4.08" height="4.08" rx="0.49" ry="0.49"/><path class="cls-1" d="M8.05,8.89H5a.65.65,0,0,1-.65-.65V5.15A.66.66,0,0,1,5,4.49h3.1a.66.66,0,0,1,.65.66V8.24A.65.65,0,0,1,8.05,8.89ZM5,4.81a.34.34,0,0,0-.33.34V8.24A.33.33,0,0,0,5,8.57h3.1a.33.33,0,0,0,.33-.33V5.15a.34.34,0,0,0-.33-.34Z"/></g><g id="a"><path class="cls-2" d="M5.16,2.74h0a.15.15,0,0,0,0,.2L5.9,4.37a.15.15,0,0,0,.2.06h0a.16.16,0,0,0,.06-.2L5.36,2.8A.16.16,0,0,0,5.16,2.74Z"/><path class="cls-1" d="M6,4.53a.22.22,0,0,1-.2-.12L5,3a.2.2,0,0,1,0-.17.19.19,0,0,1,.11-.14h0a.25.25,0,0,1,.17,0,.24.24,0,0,1,.13.11l.8,1.43a.23.23,0,0,1-.2.34ZM5.24,2.81h0l0,0a.07.07,0,0,0,0,0L6,4.33a.08.08,0,0,0,.09,0,.07.07,0,0,0,0-.09L5.29,2.84s0,0,0,0Z"/><g id="c"><path class="cls-2" d="M9.16,5.12h0a.54.54,0,0,0-.53.54v1.9a.54.54,0,0,0,.53.54h0a.54.54,0,0,0,.54-.54V5.66A.54.54,0,0,0,9.16,5.12Z"/><path class="cls-1" d="M9.16,8.18a.61.61,0,0,1-.61-.62V5.66a.62.62,0,1,1,1.23,0v1.9A.61.61,0,0,1,9.16,8.18Zm0-3a.46.46,0,0,0-.45.46v1.9a.46.46,0,1,0,.91,0V5.66A.46.46,0,0,0,9.16,5.2Z"/></g><g id="c-2" data-name="c"><path class="cls-2" d="M7.26,7.3h0a.54.54,0,0,0-.54.53V9.74a.54.54,0,0,0,.54.53h0a.54.54,0,0,0,.54-.53V7.83A.54.54,0,0,0,7.26,7.3Z"/><path class="cls-1" d="M7.26,10.35a.61.61,0,0,1-.62-.61V7.83a.62.62,0,0,1,1.24,0V9.74A.61.61,0,0,1,7.26,10.35Zm0-3a.46.46,0,0,0-.46.45V9.74a.46.46,0,0,0,.92,0V7.83A.46.46,0,0,0,7.26,7.38Z"/></g></g><g id="a-2" data-name="a"><path class="cls-2" d="M7.84,2.74h0a.15.15,0,0,1,0,.2L7.1,4.37a.15.15,0,0,1-.2.06h0a.16.16,0,0,1-.06-.2l.8-1.43A.16.16,0,0,1,7.84,2.74Z"/><path class="cls-1" d="M7,4.53a.23.23,0,0,1-.2-.34l.8-1.43a.24.24,0,0,1,.13-.11.25.25,0,0,1,.17,0h0A.19.19,0,0,1,8,2.81.2.2,0,0,1,8,3L7.17,4.41A.22.22,0,0,1,7,4.53Zm.79-1.72h0s0,0,0,0L6.92,4.27a.07.07,0,0,0,0,.09.07.07,0,0,0,.09,0L7.82,2.9a.07.07,0,0,0,0,0l0,0h0Z"/><g id="c-3" data-name="c"><path class="cls-2" d="M3.84,5.12h0a.54.54,0,0,1,.53.54v1.9a.54.54,0,0,1-.53.54h0a.54.54,0,0,1-.54-.54V5.66A.54.54,0,0,1,3.84,5.12Z"/><path class="cls-1" d="M3.84,8.18a.61.61,0,0,1-.62-.62V5.66a.62.62,0,1,1,1.23,0v1.9A.61.61,0,0,1,3.84,8.18Zm0-3a.46.46,0,0,0-.46.46v1.9a.46.46,0,1,0,.91,0V5.66A.46.46,0,0,0,3.84,5.2Z"/></g><g id="c-4" data-name="c"><path class="cls-2" d="M5.74,7.3h0a.54.54,0,0,1,.54.53V9.74a.54.54,0,0,1-.54.53h0a.54.54,0,0,1-.54-.53V7.83A.54.54,0,0,1,5.74,7.3Z"/><path class="cls-1" d="M5.74,10.35a.61.61,0,0,1-.62-.61V7.83a.62.62,0,0,1,1.24,0V9.74A.61.61,0,0,1,5.74,10.35Zm0-3a.46.46,0,0,0-.46.45V9.74a.46.46,0,0,0,.92,0V7.83A.46.46,0,0,0,5.74,7.38Z"/></g></g><g id="b-2" data-name="b"><ellipse class="cls-2" cx="6.5" cy="5.12" rx="2.04" ry="1.88"/><rect class="cls-2" x="4.46" y="4.65" width="4.08" height="4.08" rx="0.49" ry="0.49"/></g><path class="cls-1" d="M4.37,5.2H8.63"/><rect class="cls-1" x="4.37" y="5.12" width="4.25" height="0.16"/><circle class="cls-1" cx="5.56" cy="4.21" r="0.09"/><path class="cls-1" d="M5.56,4.38a.18.18,0,0,1-.17-.17.17.17,0,0,1,.34,0A.18.18,0,0,1,5.56,4.38Zm0-.18h0Z"/><circle class="cls-1" cx="7.44" cy="4.21" r="0.09"/><path class="cls-1" d="M7.44,4.38a.18.18,0,0,1-.17-.17.17.17,0,0,1,.34,0A.18.18,0,0,1,7.44,4.38Zm0-.18h0Z"/></g></g></svg>