<svg xmlns="http://www.w3.org/2000/svg" viewBox="0 0 10.99 11"><defs><style>.cls-1{fill:#69759b;}</style></defs><title>Asset 67</title><g id="Layer_2" data-name="Layer 2"><g id="Layer_1-2" data-name="Layer 1"><path class="cls-1" d="M10.31,4.25A2.53,2.53,0,0,0,6.59.84L.89,6.54a2.52,2.52,0,0,0-.15,3.4l-.64.64.32.32.64-.64a2.52,2.52,0,0,0,3.4-.15L10,4.59a2.05,2.05,0,0,1-.14,2.74L8.21,9l.33.33,1.62-1.63A2.52,2.52,0,0,0,10.31,4.25ZM9.84,1.16a2.08,2.08,0,0,1,0,2.92L8.38,5.54,5.46,2.62,6.92,1.16A2.08,2.08,0,0,1,9.84,1.16ZM1.22,9.78a2.06,2.06,0,0,1,0-2.92L5.13,3,8.05,5.87,4.14,9.78A2.06,2.06,0,0,1,1.22,9.78Z"/><path class="cls-1" d="M.42,11a.11.11,0,0,1-.07,0L0,10.65a.11.11,0,0,1,0-.15l.58-.57A2.65,2.65,0,0,1,.82,6.46L6.52.77a2.63,2.63,0,0,1,3.92,3.48,2.63,2.63,0,0,1-.21,3.47L8.61,9.35a.12.12,0,0,1-.14,0L8.14,9a.1.1,0,0,1,0-.14L9.77,7.26A2,2,0,0,0,10,4.74L4.54,10.18a2.65,2.65,0,0,1-3.47.21L.5,11A.11.11,0,0,1,.42,11Zm-.18-.42.18.18L1,10.19a.11.11,0,0,1,.14,0A2.44,2.44,0,0,0,4.39,10L9.91,4.52a.08.08,0,0,1,.08,0,.09.09,0,0,1,.07,0A2.17,2.17,0,0,1,9.91,7.4L8.36,9l.18.19,1.55-1.56a2.44,2.44,0,0,0,.14-3.27.11.11,0,0,1,0-.13A2.42,2.42,0,0,0,6.66.91L1,6.61A2.44,2.44,0,0,0,.82,9.87a.11.11,0,0,1,0,.14Zm2.44-.09h0a2.15,2.15,0,0,1-1.53-.64h0a2.15,2.15,0,0,1,0-3.06L5.06,2.88a.1.1,0,0,1,.14,0L8.12,5.8a.1.1,0,0,1,0,.14L4.21,9.85A2.15,2.15,0,0,1,2.68,10.49Zm2.45-7.4L1.29,6.93a2,2,0,0,0,0,2.78h0a2,2,0,0,0,1.39.58h0a2,2,0,0,0,1.39-.58L7.91,5.87ZM8.38,5.64l-.07,0L5.38,2.69a.12.12,0,0,1,0-.07.19.19,0,0,1,0-.07L6.85,1.09a2.17,2.17,0,0,1,3.06,0h0a2.14,2.14,0,0,1,.63,1.53,2.12,2.12,0,0,1-.63,1.53L8.45,5.62Zm-2.78-3L8.38,5.4,9.77,4a2,2,0,0,0,0-2.78h0A2,2,0,0,0,7,1.23Z"/></g></g></svg>