<svg xmlns="http://www.w3.org/2000/svg" viewBox="0 0 13 13"><defs><style>.cls-1{fill:#69759b;}</style></defs><title>Asset 68</title><g id="Layer_2" data-name="Layer 2"><g id="Layer_1-2" data-name="Layer 1"><path class="cls-1" d="M6.5,0A6.5,6.5,0,1,0,13,6.5,6.51,6.51,0,0,0,6.5,0Zm6.07,6.29H9.85a8.36,8.36,0,0,0-.72-3.2,6.5,6.5,0,0,0,1.56-1A6,6,0,0,1,12.57,6.29ZM6.71.63A6.92,6.92,0,0,1,8.56,2.87a5.79,5.79,0,0,1-1.85.36ZM7.16.46a6,6,0,0,1,3.22,1.36A5.78,5.78,0,0,1,9,2.71,7.39,7.39,0,0,0,7.16.46ZM6.29.63v2.6a5.79,5.79,0,0,1-1.85-.36A6.92,6.92,0,0,1,6.29.63ZM4.05,2.71a5.78,5.78,0,0,1-1.43-.89A6,6,0,0,1,5.84.46,7.39,7.39,0,0,0,4.05,2.71Zm2.24.94V6.29H3.57a8.09,8.09,0,0,1,.68-3A6.17,6.17,0,0,0,6.29,3.65Zm0,3.06v2.8a6.55,6.55,0,0,0-2,.37,7.81,7.81,0,0,1-.75-3.17Zm0,3.22v2.44a6.84,6.84,0,0,1-1.78-2.11A6,6,0,0,1,6.29,9.93Zm-.45,2.61a6,6,0,0,1-3.12-1.29,6.42,6.42,0,0,1,1.4-.84A7.27,7.27,0,0,0,5.84,12.54Zm.87-.17V9.93a6,6,0,0,1,1.78.33A6.84,6.84,0,0,1,6.71,12.37Zm2.17-2a6.42,6.42,0,0,1,1.4.84,6.08,6.08,0,0,1-3.12,1.29A7.27,7.27,0,0,0,8.88,10.41Zm-2.17-.9V6.71H9.43a7.81,7.81,0,0,1-.75,3.17A6.55,6.55,0,0,0,6.71,9.51Zm0-3.22V3.65a6.17,6.17,0,0,0,2-.4,8.09,8.09,0,0,1,.68,3ZM2.3,2.11a6.76,6.76,0,0,0,1.57,1,8.36,8.36,0,0,0-.72,3.2H.43A6.07,6.07,0,0,1,2.3,2.11ZM.43,6.71H3.15A8.22,8.22,0,0,0,3.93,10,6.66,6.66,0,0,0,2.4,11,6,6,0,0,1,.43,6.71ZM10.6,11A6.66,6.66,0,0,0,9.07,10a8.22,8.22,0,0,0,.78-3.33h2.72A6,6,0,0,1,10.6,11Z"/></g></g></svg>