<svg xmlns="http://www.w3.org/2000/svg" viewBox="0 0 18.14 18.14"><defs><style>.cls-1{fill:#69759b;}</style></defs><title>Asset 58</title><g id="Layer_2" data-name="Layer 2"><g id="Layer_1-2" data-name="Layer 1"><path class="cls-1" d="M15.17,18.14H3a3,3,0,0,1-3-3V3A3,3,0,0,1,3,0h12.2a3,3,0,0,1,3,3v12.2A3,3,0,0,1,15.17,18.14ZM3,.92A2.05,2.05,0,0,0,.92,3v12.2a2.05,2.05,0,0,0,2.05,2h12.2a2.05,2.05,0,0,0,2-2V3a2.05,2.05,0,0,0-2-2.05Z"/><path class="cls-1" d="M6.61,8.26H4.54A1.65,1.65,0,0,1,2.88,6.61V4.54A1.66,1.66,0,0,1,4.54,2.88H6.61A1.65,1.65,0,0,1,8.26,4.54V6.61A1.65,1.65,0,0,1,6.61,8.26ZM4.54,3.8a.74.74,0,0,0-.74.74V6.61a.74.74,0,0,0,.74.73H6.61a.73.73,0,0,0,.73-.73V4.54a.74.74,0,0,0-.73-.74Z"/><path class="cls-1" d="M13.61,8.26H11.54A1.65,1.65,0,0,1,9.88,6.61V4.54a1.66,1.66,0,0,1,1.66-1.66h2.07a1.65,1.65,0,0,1,1.65,1.66V6.61A1.65,1.65,0,0,1,13.61,8.26ZM11.54,3.8a.74.74,0,0,0-.74.74V6.61a.74.74,0,0,0,.74.73h2.07a.73.73,0,0,0,.73-.73V4.54a.74.74,0,0,0-.73-.74Z"/><path class="cls-1" d="M6.61,15.26H4.54a1.65,1.65,0,0,1-1.66-1.65V11.54A1.66,1.66,0,0,1,4.54,9.88H6.61a1.65,1.65,0,0,1,1.65,1.66v2.07A1.65,1.65,0,0,1,6.61,15.26ZM4.54,10.8a.74.74,0,0,0-.74.74v2.07a.74.74,0,0,0,.74.73H6.61a.73.73,0,0,0,.73-.73V11.54a.74.74,0,0,0-.73-.74Z"/><path class="cls-1" d="M13.61,15.26H11.54a1.65,1.65,0,0,1-1.66-1.65V11.54a1.66,1.66,0,0,1,1.66-1.66h2.07a1.65,1.65,0,0,1,1.65,1.66v2.07A1.65,1.65,0,0,1,13.61,15.26ZM11.54,10.8a.74.74,0,0,0-.74.74v2.07a.74.74,0,0,0,.74.73h2.07a.73.73,0,0,0,.73-.73V11.54a.74.74,0,0,0-.73-.74Z"/></g></g></svg>