<svg xmlns="http://www.w3.org/2000/svg" viewBox="0 0 13 13"><defs><style>.cls-1{fill:#69759b;}.cls-2{fill:#fff;}</style></defs><title>Asset 62</title><g id="Layer_2" data-name="Layer 2"><g id="Layer_1-2" data-name="Layer 1"><circle class="cls-1" cx="6.5" cy="6.5" r="6.5"/><path class="cls-2" d="M8.38,6.32A1.56,1.56,0,0,1,9.12,5a1.6,1.6,0,0,0-1.26-.69c-.53-.05-1,.32-1.32.32s-.69-.31-1.14-.3A1.69,1.69,0,0,0,4,5.2a3.58,3.58,0,0,0,.43,3.47c.29.42.63.89,1.08.87s.61-.28,1.14-.28.67.28,1.13.27.77-.42,1.05-.84a3.3,3.3,0,0,0,.48-1A1.51,1.51,0,0,1,8.38,6.32Z"/><path class="cls-2" d="M7.51,3.76a1.56,1.56,0,0,0,.36-1.1,1.56,1.56,0,0,0-1,.52,1.46,1.46,0,0,0-.36,1.06A1.28,1.28,0,0,0,7.51,3.76Z"/></g></g></svg>