<svg xmlns="http://www.w3.org/2000/svg" viewBox="0 0 13.54 13"><defs><style>.cls-1{fill:#1a1a1a;}.cls-2{fill:#69759b;}</style></defs><title>Asset 65</title><g id="Layer_2" data-name="Layer 2"><g id="Layer_1-2" data-name="Layer 1"><path class="cls-1" d="M10.22,13a3,3,0,0,1-1.31-.3L4.36,10.55a1.11,1.11,0,0,1-.58-.64,1.14,1.14,0,0,1,0-.85.29.29,0,0,1,.1-.12,2.47,2.47,0,0,1,1.94-.16l0,0L3.78,5.37A1.11,1.11,0,0,1,5,3.69a1.08,1.08,0,0,1,.7.5l.95,1.53a1,1,0,0,1,.27-.23,1.13,1.13,0,0,1,1.1,0A1.16,1.16,0,0,1,8.41,5a1.13,1.13,0,0,1,1.1,0,1.27,1.27,0,0,1,.41-.45,1.16,1.16,0,0,1,.89-.13,1.07,1.07,0,0,1,.66.51l1.66,3a3.46,3.46,0,0,1-.59,4A3.19,3.19,0,0,1,10.22,13ZM4.28,9.36a.59.59,0,0,0,0,.37.61.61,0,0,0,.31.34l4.54,2.14a2.57,2.57,0,0,0,3-.63,2.94,2.94,0,0,0,.52-3.4L11,5.14a.56.56,0,0,0-.33-.25A.67.67,0,0,0,10.2,5a.61.61,0,0,0-.28.46.26.26,0,0,1-.46.16.6.6,0,0,0-.77-.13.59.59,0,0,0-.27.46A.27.27,0,0,1,8,6.07a.59.59,0,0,0-.76-.13.62.62,0,0,0-.27.38.27.27,0,0,1-.21.21.26.26,0,0,1-.27-.12L5.24,4.47a.62.62,0,0,0-.37-.27.65.65,0,0,0-.45.07h0a.61.61,0,0,0-.19.82l2.6,4.19a.27.27,0,0,1,0,.32.26.26,0,0,1-.31.06l-.86-.4A2,2,0,0,0,4.28,9.36Zm0-5.31h0Z"/><path class="cls-1" d="M3.79,7.23H3.7a2.75,2.75,0,1,1,3.64-3,.27.27,0,0,1-.23.3.26.26,0,0,1-.3-.22A2.22,2.22,0,1,0,3.88,6.72.26.26,0,0,1,4,7.06.26.26,0,0,1,3.79,7.23Z"/><path class="cls-1" d="M2.79,8.82l-.11,0A4.61,4.61,0,1,1,9.07,3.44a.26.26,0,0,1-.19.32.26.26,0,0,1-.32-.19A4.08,4.08,0,1,0,2.9,8.31.27.27,0,0,1,3,8.67.27.27,0,0,1,2.79,8.82Z"/><path class="cls-2" d="M10.22,13a3.09,3.09,0,0,1-1.31-.3L4.36,10.55a1.11,1.11,0,0,1-.58-.64,1.09,1.09,0,0,1,0-.85.29.29,0,0,1,.1-.12,2.47,2.47,0,0,1,1.94-.17l0,0L3.78,5.37a1.11,1.11,0,0,1-.14-.85,1.15,1.15,0,0,1,.5-.7A1.11,1.11,0,0,1,5,3.68a1.15,1.15,0,0,1,.7.5l.95,1.54a.87.87,0,0,1,.27-.23A1.12,1.12,0,0,1,8,5.44,1.24,1.24,0,0,1,8.41,5a1.14,1.14,0,0,1,1.1,0,1.08,1.08,0,0,1,.41-.44,1.16,1.16,0,0,1,.89-.13,1,1,0,0,1,.66.51l1.67,3a3.46,3.46,0,0,1-.6,4A3.16,3.16,0,0,1,10.22,13ZM4.28,9.36a.52.52,0,0,0,0,.37.55.55,0,0,0,.3.33l4.55,2.15a2.57,2.57,0,0,0,3-.63,2.92,2.92,0,0,0,.51-3.4L11,5.14a.47.47,0,0,0-.32-.24A.58.58,0,0,0,10.2,5a.57.57,0,0,0-.27.45.27.27,0,0,1-.48.16.57.57,0,0,0-.75-.12.58.58,0,0,0-.28.45.27.27,0,0,1-.18.24A.26.26,0,0,1,8,6.07.6.6,0,0,0,7.19,6a.53.53,0,0,0-.26.37.28.28,0,0,1-.5.09L5.23,4.47a.58.58,0,0,0-.8-.19h0a.56.56,0,0,0-.19.8l2.59,4.2a.27.27,0,0,1-.34.39l-.86-.41A2,2,0,0,0,4.28,9.36Zm0-5.31h0Z"/><path class="cls-2" d="M3.79,7.24l-.09,0a2.75,2.75,0,1,1,3.64-3,.27.27,0,0,1-.23.3.26.26,0,0,1-.3-.22A2.21,2.21,0,1,0,3.88,6.72a.26.26,0,0,1,.17.34A.28.28,0,0,1,3.79,7.24Z"/><path class="cls-2" d="M2.79,8.82a.2.2,0,0,1-.11,0A4.61,4.61,0,1,1,9.07,3.43a.27.27,0,1,1-.52.14A4.07,4.07,0,1,0,2.9,8.31.26.26,0,0,1,3,8.67.25.25,0,0,1,2.79,8.82Z"/></g></g></svg>