<svg xmlns="http://www.w3.org/2000/svg" viewBox="0 0 14.54 14.51"><defs><style>.cls-1{fill:#69759b;}</style></defs><title>Asset 66</title><g id="Layer_2" data-name="Layer 2"><g id="Layer_1-2" data-name="Layer 1"><path class="cls-1" d="M7.27,14.51A.29.29,0,0,1,7,14.28L6.2,9.56,3.88,11a.27.27,0,0,1-.33,0,.29.29,0,0,1,0-.33L4.91,8.3.22,7.5A.26.26,0,0,1,0,7.24.28.28,0,0,1,.22,7L5,6.17,3.51,3.85a.27.27,0,0,1,0-.33.29.29,0,0,1,.33,0l2.33,1.4L7,.19c0-.25.49-.25.53,0l.81,4.73,2.31-1.44a.27.27,0,0,1,.33,0,.28.28,0,0,1,0,.33L9.63,6.18,14.31,7a.29.29,0,0,1,.23.27.27.27,0,0,1-.23.26L9.6,8.3,11,10.52a.26.26,0,0,1,0,.33.27.27,0,0,1-.33.05L8.33,9.58l-.8,4.7A.27.27,0,0,1,7.27,14.51ZM6.4,8.85a.2.2,0,0,1,.11,0,.29.29,0,0,1,.16.2l.6,3.55.59-3.51A.28.28,0,0,1,8,8.92a.25.25,0,0,1,.25,0L10,9.9,8.93,8.25a.25.25,0,0,1,0-.25.27.27,0,0,1,.2-.16l3.55-.6L9.15,6.65A.28.28,0,0,1,9,6.24l1-1.72L8.28,5.58A.25.25,0,0,1,8,5.6a.27.27,0,0,1-.16-.2l-.6-3.55L6.68,5.36a.29.29,0,0,1-.16.2.28.28,0,0,1-.25,0l-1.72-1L5.61,6.23a.25.25,0,0,1,0,.25.29.29,0,0,1-.2.16l-3.55.6,3.51.59a.27.27,0,0,1,.2.16.28.28,0,0,1,0,.25L4.54,10,6.26,8.89A.33.33,0,0,1,6.4,8.85Z"/><path class="cls-1" d="M5.3,13.46H5.22a6.59,6.59,0,0,1-1-.4,5.85,5.85,0,0,1-.86-.53,6,6,0,0,1-.76-.66A6.78,6.78,0,0,1,2,11.1a7.12,7.12,0,0,1-.53-.86,7.1,7.1,0,0,1-.4-1A.27.27,0,0,1,1.23,9a.28.28,0,0,1,.34.17,6.63,6.63,0,0,0,.36.87,8,8,0,0,0,.49.79,5.77,5.77,0,0,0,.61.7,5,5,0,0,0,.7.6,5.44,5.44,0,0,0,.79.49,5.87,5.87,0,0,0,.86.37.27.27,0,0,1,.18.34A.28.28,0,0,1,5.3,13.46Z"/><path class="cls-1" d="M1.32,5.54H1.23a.27.27,0,0,1-.17-.34,6.15,6.15,0,0,1,.4-1A5.85,5.85,0,0,1,2,3.38a6,6,0,0,1,.66-.76A6,6,0,0,1,3.41,2a5.85,5.85,0,0,1,.86-.53,6.59,6.59,0,0,1,1-.4.27.27,0,0,1,.34.17.27.27,0,0,1-.18.34,7.12,7.12,0,0,0-.86.36,7,7,0,0,0-.79.49A5.89,5.89,0,0,0,3,3a5.89,5.89,0,0,0-.61.7,7,7,0,0,0-.49.79,7.12,7.12,0,0,0-.36.86A.26.26,0,0,1,1.32,5.54Z"/><path class="cls-1" d="M13.22,5.54A.26.26,0,0,1,13,5.35a5.87,5.87,0,0,0-.37-.86,5.44,5.44,0,0,0-.49-.79,5,5,0,0,0-.6-.7,5.77,5.77,0,0,0-.7-.61A7,7,0,0,0,10,1.9a6.63,6.63,0,0,0-.87-.36A.28.28,0,0,1,9,1.2.27.27,0,0,1,9.32,1a6.59,6.59,0,0,1,.95.4,5.85,5.85,0,0,1,.86.53,6.78,6.78,0,0,1,.76.66,6,6,0,0,1,.66.76,5.85,5.85,0,0,1,.53.86,6.59,6.59,0,0,1,.4,1,.28.28,0,0,1-.17.34Z"/><path class="cls-1" d="M9.24,13.46A.28.28,0,0,1,9,13.28a.27.27,0,0,1,.17-.34,5.54,5.54,0,0,0,.87-.37,5.44,5.44,0,0,0,.79-.49,5,5,0,0,0,.7-.6,5.69,5.69,0,0,0,.6-.7A5.44,5.44,0,0,0,12.6,10,5.54,5.54,0,0,0,13,9.12.27.27,0,0,1,13.31,9a.28.28,0,0,1,.17.34,7.1,7.1,0,0,1-.4,1,7.12,7.12,0,0,1-.53.86,6,6,0,0,1-.66.76,6,6,0,0,1-.76.66,7.12,7.12,0,0,1-.86.53,6.59,6.59,0,0,1-.95.4Z"/><path class="cls-1" d="M7.27,8.48A1.24,1.24,0,1,1,8.51,7.24,1.25,1.25,0,0,1,7.27,8.48Zm0-1.94a.7.7,0,1,0,.7.7A.7.7,0,0,0,7.27,6.54Z"/></g></g></svg>