<?xml version="1.0" encoding="UTF-8" standalone="no"?>
<svg width="22px" height="25px" viewBox="0 0 22 25" version="1.1" xmlns="http://www.w3.org/2000/svg" xmlns:xlink="http://www.w3.org/1999/xlink">
    <!-- Generator: Sketch 50.2 (55047) - http://www.bohemiancoding.com/sketch -->
    <title>bell</title>
    <desc>Created with Sketch.</desc>
    <defs></defs>
    <g id="instar-web" stroke="none" stroke-width="1" fill="none" fill-rule="evenodd">
        <g id="Web-App-Activities-Survey" transform="translate(-1146.000000, -18.000000)" fill="#FFFFFF" fill-rule="nonzero">
            <g id="nav">
                <path d="M1167.61763,38.4155844 C1165.04316,36.8181818 1164.96475,33.8051948 1164.88634,30.2987013 C1164.87328,29.8311688 1164.86021,29.3636364 1164.84714,28.8961039 C1164.69032,24.5194805 1161.88063,21.4935065 1157.7641,21.1558442 C1157.7641,21.1428571 1157.77717,21.1298701 1157.77717,21.1168831 L1157.77717,18.7792208 C1157.77717,18.3506494 1157.42432,18 1156.99306,18 C1156.56181,18 1156.20896,18.3506494 1156.20896,18.7792208 L1156.20896,21.1168831 C1156.20896,21.1298701 1156.20896,21.1428571 1156.22203,21.1558442 C1152.11857,21.4935065 1149.30888,24.5194805 1149.13899,28.8961039 C1149.12592,29.3636364 1149.11285,29.8441558 1149.09979,30.2987013 C1149.00831,33.7922078 1148.94296,36.8181818 1146.3685,38.4155844 C1146.06793,38.5974026 1145.93725,38.961039 1146.02872,39.2987013 C1146.1202,39.6363636 1146.43384,39.8701299 1146.78669,39.8701299 L1153.85666,39.8701299 C1153.85666,41.5974026 1155.26804,43 1157.00613,43 C1158.74422,43 1160.1556,41.5974026 1160.1556,39.8701299 L1167.22558,39.8701299 C1167.57842,39.8701299 1167.87899,39.6363636 1167.98354,39.2987013 C1168.04888,38.961039 1167.9182,38.5974026 1167.61763,38.4155844 Z M1156.98,41.4155844 C1156.11749,41.4155844 1155.41179,40.7142857 1155.41179,39.8571429 L1158.56127,39.8571429 C1158.56127,40.7142857 1157.85558,41.4155844 1156.98,41.4155844 Z M1148.83842,38.2987013 C1150.51117,36.2207792 1150.58958,33.3506494 1150.65492,30.3376623 C1150.66799,29.8831169 1150.68105,29.4155844 1150.69412,28.9480519 C1150.83787,25.1298701 1153.30779,22.6753247 1156.98,22.6753247 C1160.6522,22.6753247 1163.12212,25.1428571 1163.26587,28.9480519 C1163.27894,29.4155844 1163.29201,29.8831169 1163.30507,30.3376623 C1163.38348,33.3376623 1163.44883,36.2077922 1165.12157,38.2987013 L1148.83842,38.2987013 Z" id="bell"></path>
            </g>
        </g>
    </g>
</svg>