<?xml version="1.0" encoding="UTF-8"?>
<svg width="19px" height="19px" viewBox="0 0 19 19" version="1.1" xmlns="http://www.w3.org/2000/svg" xmlns:xlink="http://www.w3.org/1999/xlink">
    <!-- Generator: sketchtool 51.2 (57519) - http://www.bohemiancoding.com/sketch -->
    <title>561EF693-DD08-4AD1-93FB-09580CBD07AF</title>
    <desc>Created with sketchtool.</desc>
    <defs></defs>
    <g id="instar-web" stroke="none" stroke-width="1" fill="none" fill-rule="evenodd">
        <g id="iPhone-Menu" transform="translate(-326.000000, -42.000000)" fill="#232B45" fill-rule="nonzero">
            <g id="np_close_1786971_000000" transform="translate(326.000000, 42.000000)">
                <path d="M11.1731002,9.49861863 L18.6485268,2.03435224 C19.1135126,1.56818805 19.1135126,0.81384343 18.6485268,0.348790042 C18.183541,-0.116263347 17.4293345,-0.116263347 16.9632097,0.348790042 L9.50002848,7.82530367 L2.0368473,0.348790042 C1.57075089,-0.116263347 0.816515934,-0.116263347 0.351530158,0.348790042 C-0.113455618,0.81384343 -0.113455618,1.56815957 0.351530158,2.03435224 L7.8269568,9.49861863 L0.351530158,16.962885 C0.126823105,17.1865139 0,17.4891461 0,17.8062073 C0,18.1221861 0.126814561,18.4259177 0.351530158,18.6484187 C0.574013094,18.8731585 0.87771476,19 1.19361917,19 C1.51066269,19 1.81323949,18.873167 2.03681882,18.6484187 L9.5,11.1719051 L16.9631812,18.6484187 C17.1867776,18.8731585 17.4893658,19 17.8063808,19 C18.1223137,19 18.4260011,18.873167 18.6484698,18.6484187 C18.8731769,18.4259034 19,18.1221576 19,17.8062073 C19,17.4891176 18.8731854,17.1864969 18.6484698,16.962885 L11.1731002,9.49861863 Z" id="Shape"></path>
            </g>
        </g>
    </g>
</svg>