<svg xmlns="http://www.w3.org/2000/svg" width="10" height="13" viewBox="0 0 10 13">
    <path fill="#303864" fill-rule="nonzero" d="M9.013 13H.987C.443 13 0 12.544 0 11.983V3.637c0-.352.136-.698.372-.948L2.546.393C2.786.139 3.105 0 3.444 0h5.569C9.557 0 10 .456 10 1.016v10.968c0 .56-.442 1.016-.987 1.016zM3.443.812a.485.485 0 0 0-.354.155L.916 3.263a.549.549 0 0 0-.147.374v8.346c0 .112.098.204.219.204h8.025c.12 0 .218-.091.218-.203V1.016c0-.112-.098-.204-.218-.204h-5.57zM5 9.344a.373.373 0 0 1-.272-.12L3.189 7.6a.422.422 0 0 1 0-.574.37.37 0 0 1 .544 0L5 8.363l1.266-1.337a.37.37 0 0 1 .544 0c.15.158.15.415 0 .574L5.272 9.225A.372.372 0 0 1 5 9.344zm0 0a.396.396 0 0 1-.385-.407V4.875c0-.225.173-.406.385-.406.213 0 .385.181.385.406v4.062A.396.396 0 0 1 5 9.344zm2.308 1.625H2.692a.396.396 0 0 1-.384-.407c0-.224.172-.406.384-.406h4.616c.212 0 .384.182.384.406a.396.396 0 0 1-.384.407zM2.885 4.062H1.538a.396.396 0 0 1-.384-.406c0-.224.172-.406.384-.406h1.347c.106 0 .192-.09.192-.203V1.625c0-.225.172-.406.385-.406.212 0 .384.181.384.406v1.422c0 .56-.432 1.015-.961 1.015z"/>
</svg>
