<?xml version="1.0" encoding="UTF-8"?>
<svg width="53px" height="53px" viewBox="0 0 53 53" version="1.1" xmlns="http://www.w3.org/2000/svg" xmlns:xlink="http://www.w3.org/1999/xlink">
    <!-- Generator: sketchtool 51.2 (57519) - http://www.bohemiancoding.com/sketch -->
    <title>2C9E86AE-D117-437E-86A0-338FACFAD60D</title>
    <desc>Created with sketchtool.</desc>
    <defs>
        <linearGradient x1="100%" y1="100%" x2="0%" y2="0%" id="linearGradient-1">
            <stop stop-color="#5172C1" offset="0%"></stop>
            <stop stop-color="#64D1B5" offset="100%"></stop>
        </linearGradient>
    </defs>
    <g id="instar-web" stroke="none" stroke-width="1" fill="none" fill-rule="evenodd">
        <g id="Desktop-HD-Copy" transform="translate(-152.000000, -1324.000000)">
            <g id="BENEFITS" transform="translate(0.000000, 1218.000000)">
                <g id="control-your-data" transform="translate(154.000000, 108.000000)">
                    <g id="icon_controlyourdata">
                        <rect id="Rectangle-5" fill="#D2F6FF" x="9" y="10" width="42" height="41" rx="7"></rect>
                        <path d="M12.2230208,42.9550951 C11.1183943,44.0165204 9.351655,43.9985582 8.27217545,42.9191137 L6.08447691,40.7278227 C5.00499737,39.6483432 4.97985035,37.8852884 6.04489753,36.7769773 L6.13844813,36.6798251 C7.19628097,35.5787909 7.58131591,33.5494357 6.99481927,32.1281225 L6.72855563,31.4876473 C6.14204977,30.073519 4.44008479,28.9005441 2.90012924,28.8718046 L2.77059907,28.8682067 C1.24132871,28.8394212 0.0035979581,27.5764974 0.0035979581,26.047227 L0,22.952762 C0,21.4234916 1.23054588,20.1606138 2.76700111,20.1317823 L2.90013293,20.1281843 C4.42940329,20.0993988 6.13847945,18.9335627 6.72855931,17.5123416 L6.99123052,16.8718664 C7.57773638,15.4577381 7.19992314,13.4247904 6.13485938,12.3165714 L6.0449049,12.2230208 C4.98347963,11.1183943 5.00144178,9.351655 6.08088633,8.27217545 L8.27217729,6.08447691 C9.35165684,5.00499737 11.1147116,4.97985035 12.2230227,6.04489753 L12.3201749,6.13844813 C13.4212091,7.19628097 15.4505643,7.58131591 16.8718775,6.99481927 L17.5123527,6.72855563 C18.926481,6.14204977 20.0994559,4.44008479 20.1281954,2.90012924 L20.1317933,2.77059907 C20.1605788,1.24132871 21.4235026,0.0035979581 22.952773,0.0035979581 L26.047238,0 C27.5765084,0 28.8393862,1.23054588 28.8682177,2.76700111 L28.8718157,2.90013293 C28.9006012,4.42940329 30.0664373,6.13847945 31.4876584,6.72855931 L32.1281336,6.99123052 C33.5422619,7.57773638 35.5752096,7.19992314 36.6834286,6.13485938 L36.7769792,6.0449049 C37.8816057,4.98347963 39.648345,5.00144178 40.7278245,6.08088633 L42.9155231,8.27217729 C43.9950026,9.35165684 44.0201496,11.1147116 42.9551025,12.2230227 L42.8615519,12.3201749 C41.803719,13.4212091 41.4186841,15.4505643 42.0051807,16.8718775 L42.2714444,17.5123527 C42.8579502,18.926481 44.5599152,20.0994559 46.0998708,20.1281954 L46.2294009,20.1317933 C47.7586713,20.1605788 48.996402,21.4235026 48.996402,22.952773 L49,26.047238 C49,27.5765084 47.7694541,28.8393862 46.2329989,28.8682177 L46.0998671,28.8718157 C44.5705967,28.9006012 42.8615206,30.0664373 42.2714407,31.4876584 L42.0087695,32.1281336 C41.4222636,33.5422619 41.8000769,35.5752096 42.8651406,36.6834286 L42.9550951,36.7769792 C44.0165204,37.8816057 43.9985582,39.648345 42.9191137,40.7278245 L40.7278227,42.9155231 C39.6483432,43.9950026 37.8852884,44.0201496 36.7769773,42.9551025 L36.6798251,42.8615519 C35.5787909,41.803719 33.5494357,41.4186841 32.1281225,42.0051807 L31.4876473,42.2714444 C30.073519,42.8579502 28.9005441,44.5599152 28.8718046,46.0998708 L28.8682067,46.2294009 C28.8394212,47.7586713 27.5764974,48.996402 26.047227,48.996402 L22.952762,49 C21.4234916,49 20.1606138,47.7694541 20.1317823,46.2329989 L20.1281843,46.0998671 C20.0993988,44.5705967 18.9335627,42.8615206 17.5123416,42.2714407 L16.8718664,42.0087695 C15.4577381,41.4222636 13.4247904,41.8000769 12.3165714,42.8651406 L12.2230208,42.9550951 Z M19.9159821,35.5644507 C26.0292869,38.0939829 33.0311197,35.1938407 35.5642444,29.0840731 C38.0937766,22.9707683 35.1936344,15.9689355 29.0838668,13.4358109 C22.970562,10.9062787 15.9687292,13.8064209 13.4356046,19.9161885 C10.9060724,26.0294933 13.8062145,33.0313261 19.9159821,35.5644507 Z" id="Shape" stroke="url(#linearGradient-1)" stroke-width="3"></path>
                    </g>
                </g>
            </g>
        </g>
    </g>
</svg>