<?xml version="1.0" encoding="UTF-8"?>
<svg width="56px" height="56px" viewBox="0 0 56 56" version="1.1" xmlns="http://www.w3.org/2000/svg" xmlns:xlink="http://www.w3.org/1999/xlink">
    <!-- Generator: sketchtool 51.2 (57519) - http://www.bohemiancoding.com/sketch -->
    <title>421C9BB5-53B2-4A75-8F2C-2E9587B33DF0</title>
    <desc>Created with sketchtool.</desc>
    <defs>
        <linearGradient x1="100%" y1="100%" x2="0%" y2="0%" id="linearGradient-1">
            <stop stop-color="#5172C1" offset="0%"></stop>
            <stop stop-color="#64D1B5" offset="100%"></stop>
        </linearGradient>
    </defs>
    <g id="instar-web" stroke="none" stroke-width="1" fill="none" fill-rule="evenodd">
        <g id="Desktop-HD-Copy" transform="translate(-533.000000, -1321.000000)">
            <g id="BENEFITS" transform="translate(0.000000, 1218.000000)">
                <g id="get-paid" transform="translate(533.000000, 103.000000)">
                    <g id="icon_getpaid">
                        <rect id="Rectangle-5" fill="#D2F6FF" x="23" y="6" width="33" height="50" rx="3"></rect>
                        <path d="M49.72822,20.4192802 C49.8151896,19.8846559 49.9974913,18.6007156 49.9974913,17.2494212 C49.9974913,15.8661334 49.8059909,14.5569354 49.7223662,14.0458851 C49.8059909,13.5356767 49.9974913,12.2256367 49.9974913,10.842349 C49.9974913,9.37150074 49.7809035,7.97726794 49.7073138,7.54704273 C49.6353966,2.6444959 40.7619876,0 32.4087237,0 C24.0303725,0 15.128531,2.6596506 15.1076249,7.58913913 C15.0281815,8.06482846 14.8266462,9.41107135 14.8266462,10.8339297 C14.8266462,12.2180594 15.0173103,13.5272574 15.1009349,14.0374658 C15.0173103,14.5476742 14.8266462,15.8568722 14.8266462,17.2410019 C14.8266462,18.6133446 15.0148016,19.9132814 15.0992624,20.432751 C15.0181465,20.9202273 14.8450436,22.1157651 14.8266462,23.3963376 C6.53359201,24.1145022 0,31.1294464 0,39.6623869 C0,48.6710166 7.27952367,56 16.2265224,56 C22.4883344,56 27.9222625,52.4049674 30.6275192,47.1631236 C31.231289,47.1883814 31.8292051,47.2060619 32.40956,47.2060619 C32.6989012,47.2060619 32.9807162,47.2060619 33.2909635,47.1984845 C33.5953572,47.1909072 33.8989146,47.1833298 34.195782,47.1631236 C34.3245639,47.1622816 34.4516733,47.1563881 34.6063789,47.1488108 C34.6356475,47.1488108 34.6649161,47.1479688 34.6941847,47.1454431 L35.5806058,47.0814565 C35.8114097,47.0671438 36.02967,47.0469375 36.3073038,47.0216796 C44.2039772,46.2740476 49.4087739,43.4889497 49.6872439,39.9006525 C49.7022963,39.8139339 50,38.187329 50,36.468112 C50,35.1041886 49.8143533,33.7823616 49.7223662,33.2367923 C49.948989,31.8080404 50,30.7025889 50,30.0248369 C50,29.3555041 49.9498252,28.2668912 49.7240387,26.8204589 C49.948989,25.3942328 50,24.2904652 50,23.614397 C49.9991638,22.2277415 49.8101721,20.9177015 49.72822,20.4192802 Z M27.2189794,27.6809093 C28.8688933,27.894759 30.613303,28.0101031 32.40956,28.0101031 C36.0321788,28.0101031 39.4833671,27.5537782 42.3901591,26.6916439 C43.0549748,26.4946327 43.4346306,25.7924647 43.238949,25.123132 C43.0432674,24.4537992 42.3450018,24.0732477 41.6818585,24.268575 C39.0025255,25.064197 35.7963573,25.4843191 32.4103962,25.4843191 C26.9806493,25.4843191 21.9414293,24.3645548 19.2587513,22.5636708 C19.2562426,22.561987 19.2528976,22.5594612 19.2495526,22.5577773 C18.5337258,22.0728268 17.6899533,21.3193012 17.6255624,20.4470638 C17.6255624,20.4403284 17.6238899,20.4335929 17.6238899,20.4276994 C17.6238899,20.4268575 17.6238899,20.4260156 17.6238899,20.4251736 L17.6238899,20.4041254 C17.6238899,20.3611871 17.6155274,20.3207746 17.6113462,20.2795201 C17.6088375,20.25763 17.6096737,20.2357398 17.6054925,20.2138497 C17.6054925,20.2138497 17.6029837,20.2012208 17.6029837,20.198695 C17.5988025,20.1742791 17.5962938,20.1507051 17.59044,20.1262892 C17.5436102,19.8501368 17.3981034,18.9248579 17.3504374,17.8791833 C17.4959442,17.9920017 17.6322523,18.1039781 17.7961566,18.2159545 C18.0119081,18.36245 18.2560921,18.43233 18.4986035,18.43233 C18.9000017,18.43233 19.2955462,18.2378447 19.5380576,17.8766575 C19.9269121,17.2990949 19.7755515,16.5135761 19.2027228,16.1229215 C18.6265491,15.731425 17.6682109,14.94759 17.6255624,14.070301 C17.6255624,14.0593559 17.6247261,14.0484109 17.6247261,14.0374658 C17.6247261,13.9911598 17.6180362,13.9473795 17.6138549,13.9019154 C17.6105099,13.8699221 17.6121824,13.8379289 17.6054925,13.8050937 C17.6029837,13.7924647 17.4106471,12.7291097 17.3521098,11.497369 C20.5273369,13.929699 26.592631,15.2119554 32.4078875,15.2119554 C38.2273252,15.2119554 44.2976368,13.9280152 47.4711913,11.4914755 C47.4134903,12.7282677 47.2186449,13.8000421 47.2161362,13.8118291 C47.2127912,13.8278257 47.2144637,13.8429804 47.211955,13.8589771 C47.20861,13.8884445 47.2061013,13.9128605 47.2035925,13.941486 C47.2010838,13.9751631 47.1960663,14.0071564 47.1960663,14.0416754 C47.1810139,14.7093244 46.6056764,15.4577984 45.5670586,16.1540728 C42.8935793,17.9616923 37.8510144,19.0848242 32.4087237,19.0848242 C28.6272181,19.0848242 25.0004181,18.5451484 22.1981569,17.5651442 C21.5408674,17.3344559 20.8275493,17.684698 20.6017628,18.3439276 C20.3751401,19.0031572 20.721346,19.7221638 21.3752906,19.9511682 C24.4351157,21.0212587 28.3546019,21.6106083 32.4087237,21.6106083 C38.4121356,21.6106083 43.8544263,20.3544517 46.9610811,18.2538413 C47.1484003,18.128394 47.3081233,18.0012629 47.4720276,17.8741318 C47.4251978,18.9113871 47.2821997,19.8299305 47.2328611,20.1178699 C47.2253349,20.1498632 47.2211537,20.1826984 47.2161362,20.2155336 C47.2161362,20.2155336 47.2161362,20.2180594 47.2161362,20.2180594 C47.2153,20.2214271 47.2161362,20.2247948 47.2153,20.2281625 C47.2069375,20.2870975 47.1977388,20.3460324 47.1977388,20.4074932 C47.1977388,20.4125447 47.1994113,20.4175963 47.1994113,20.4226479 C47.1994113,20.4268575 47.1977388,20.4310671 47.1977388,20.4361187 C47.1885401,21.0987161 46.6073489,21.8522416 45.5628774,22.5569354 C45.3671957,22.6891181 45.1564617,22.8179331 44.9331839,22.9425384 C44.3285779,23.2826773 44.1119901,24.0521995 44.4498336,24.6609135 C44.6789651,25.0751421 45.1062869,25.3091981 45.5461524,25.3091981 C45.7535415,25.3091981 45.9634393,25.2569985 46.1566122,25.1492317 C46.427556,24.9968428 46.6826111,24.8385603 46.9242863,24.6769101 C46.9543911,24.6583877 46.9828235,24.6381814 47.0104196,24.6171332 C47.1768326,24.503473 47.3231757,24.3881288 47.4711913,24.2736266 C47.4444314,24.8503473 47.3792042,25.6013471 47.2270074,26.5502 C47.2270074,26.5510419 47.2270074,26.5518838 47.2270074,26.5518838 C47.20861,26.6377605 47.1977388,26.7270048 47.1977388,26.8179331 C47.1977388,26.8221427 47.198575,26.8263523 47.1994113,26.830562 C47.1851951,27.485582 46.6332726,28.2197432 45.6381395,28.9050726 C45.6113796,28.9202273 45.585456,28.9370659 45.5586961,28.9539044 C42.8927431,30.7573142 37.8543594,31.8770785 32.4078875,31.8770785 C31.7263468,31.8770785 31.0799284,31.8551884 30.456925,31.8231951 C29.608135,30.2681541 28.5051262,28.877289 27.2189794,27.6809093 Z M32.4087237,2.52662597 C41.5463866,2.52662597 47.1651252,5.46748053 47.1994113,7.58745527 C47.198575,7.60429383 47.1977388,7.62113239 47.1977388,7.63881288 C47.144219,9.7579457 41.5304979,12.6878552 32.40956,12.6878552 C23.3153819,12.6878552 17.7108595,9.77562618 17.6238899,7.65817723 C17.6247261,7.62702589 17.6247261,7.59587455 17.6230536,7.56472322 C17.6966433,5.44643233 23.3045107,2.52662597 32.4087237,2.52662597 Z M16.2265224,53.4750579 C8.66267498,53.4750579 2.50873877,47.2793096 2.50873877,39.6632288 C2.50873877,32.047148 8.66267498,25.8513997 16.2265224,25.8513997 C23.791206,25.8513997 29.9451422,32.047148 29.9451422,39.6632288 C29.9451422,47.2793096 23.791206,53.4750579 16.2265224,53.4750579 Z M36.0204713,44.5118922 C35.8239534,44.5304146 35.6316168,44.5480951 35.411684,44.5624079 L34.5486779,44.6238687 C34.5277717,44.6238687 34.467562,44.6263944 34.4466559,44.6272364 C34.3178739,44.6339718 34.195782,44.6331299 34.0603101,44.6415491 C33.78853,44.6609135 33.51006,44.666807 33.2056664,44.6743843 C32.9472663,44.6811198 32.6963924,44.6811198 32.4388286,44.6811198 C32.188791,44.6802778 31.9253734,44.6625973 31.6719908,44.6575458 C32.0641903,43.4316986 32.3041929,42.1410229 32.39618,40.8090928 C32.4003613,40.8090928 32.4045425,40.8090928 32.4087237,40.8090928 C33.0601596,40.8090928 33.7023967,40.7939381 34.3345989,40.7653126 C35.0270108,40.7333193 35.5622084,40.1422858 35.530431,39.4460114 C35.4994899,38.748895 34.9107725,38.2184803 34.2208694,38.2420543 C33.6179358,38.2698379 33.0007861,38.2790991 32.3844726,38.2782572 C32.2707431,36.9278047 31.9914368,35.6278678 31.5699687,34.3902336 C31.8484387,34.3952852 32.1218913,34.4045464 32.4087237,34.4045464 C38.3644696,34.4045464 43.7624392,33.1728057 46.879129,31.1058724 C46.9033801,31.0924016 46.9259588,31.0772469 46.9485374,31.0620922 C46.9627536,31.052831 46.9769698,31.0418859 46.991186,31.0317828 C47.1667977,30.912229 47.3181583,30.7918333 47.4728638,30.6722795 C47.4461039,31.2490002 47.381713,32.0025258 47.2278437,32.9547464 C47.2094462,33.0439907 47.198575,33.1357609 47.198575,33.2224795 C47.198575,33.227531 47.2002475,33.2325826 47.2002475,33.2376342 C47.1734876,34.1410229 46.1683196,34.9484319 45.5704036,35.3500316 C45.5503337,35.3635024 45.5294275,35.3778152 45.5110301,35.3929699 C45.5093576,35.3938118 45.5076851,35.3946538 45.5051764,35.3963376 C43.8736599,36.4782151 41.3005302,37.3437171 38.2591025,37.8328773 C37.5758893,37.9423279 37.1092639,38.5906125 37.2188122,39.2793096 C37.3174893,39.9006525 37.8510144,40.3426647 38.4556204,40.3426647 C38.5216839,40.3426647 38.5877473,40.3376131 38.6554833,40.3266681 C42.0882742,39.7743633 44.9340202,38.7985687 46.8699303,37.5154704 C46.9017076,37.4952642 46.9418474,37.4683225 46.981151,37.438013 C47.1634527,37.3150916 47.317322,37.1904862 47.477045,37.0667228 C47.422689,38.3262471 47.2219899,39.4283309 47.2203174,39.4409598 C47.2102825,39.4956851 47.2094462,39.5495685 47.2069375,39.6042938 C47.2061013,39.6160808 47.2027563,39.6270259 47.2027563,39.6388129 C47.147564,41.5196801 42.9696777,43.8543465 36.0204713,44.5118922 Z" id="Shape" fill="url(#linearGradient-1)" fill-rule="nonzero"></path>
                    </g>
                </g>
            </g>
        </g>
    </g>
</svg>