<?xml version="1.0" encoding="UTF-8"?>
<svg width="56px" height="57px" viewBox="0 0 56 57" version="1.1" xmlns="http://www.w3.org/2000/svg" xmlns:xlink="http://www.w3.org/1999/xlink">
    <!-- Generator: sketchtool 51.2 (57519) - http://www.bohemiancoding.com/sketch -->
    <title>7753578D-92B5-431A-B797-2C70E681A390</title>
    <desc>Created with sketchtool.</desc>
    <defs>
        <linearGradient x1="100%" y1="100%" x2="0%" y2="0%" id="linearGradient-1">
            <stop stop-color="#5172C1" offset="0%"></stop>
            <stop stop-color="#64D1B5" offset="100%"></stop>
        </linearGradient>
    </defs>
    <g id="instar-web" stroke="none" stroke-width="1" fill="none" fill-rule="evenodd">
        <g id="Desktop-HD-Copy" transform="translate(-912.000000, -1320.000000)">
            <g id="BENEFITS" transform="translate(0.000000, 1218.000000)">
                <g id="invite-friends" transform="translate(913.000000, 103.000000)">
                    <g id="icon_invitefriends">
                        <rect id="Rectangle-5" fill="#D2F6FF" x="13" y="11" width="42" height="45" rx="7"></rect>
                        <path d="M49.9997017,48.7859419 L49.9997017,20.8863413 C49.9997017,20.7195487 49.9668083,20.5527501 49.8986723,20.4000543 L49.8634296,20.3342791 L49.8610802,20.3319294 C49.8352355,20.2778977 49.8070415,20.2262151 49.7717976,20.1768822 L49.710712,20.1040585 L49.5603438,19.9537082 L43.151049,14.6491697 L43.151049,6.95785043 C43.151049,6.63835607 43.0241743,6.3329345 42.798622,6.10740907 C42.5730696,5.88188364 42.265284,5.75502408 41.9480792,5.75502408 L32.4021034,5.75502408 L25.7859019,0.276620471 C25.3394948,-0.0922068238 24.6957323,-0.0922068238 24.2516649,0.276620471 L17.6047883,5.75502408 L8.0588125,5.75502408 C7.39622999,5.75502408 6.85586677,6.29299545 6.85586677,6.95782637 L6.85586677,14.6491456 L0.439354273,19.9607206 L0.288986058,20.1110709 L0.227900474,20.1838945 L0.227900474,20.1815448 C0.195007126,20.2332281 0.164463131,20.2849137 0.138617842,20.3389436 L0.103375141,20.4047248 C0.035240295,20.5574266 0,20.7242192 0,20.8933632 L0,48.7971737 C0,49.116668 0.126874686,49.4220896 0.352427009,49.647615 C0.577979333,49.8731404 0.883413267,50 1.20296978,50 L48.796916,50 C49.1188002,50 49.4265979,49.870795 49.6521502,49.6429181 C49.8777025,49.4150412 50.0045772,49.1049467 49.9998737,48.7854403 L49.9997017,48.7859419 Z M46.8536979,20.8370264 L43.1485047,23.5973374 L43.1508541,17.7829911 L46.8536979,20.8370264 Z M25.0033917,2.74808269 L28.6122289,5.75508843 L21.3945545,5.75508843 L25.0033917,2.74808269 Z M40.7451395,8.16069302 L40.7451395,25.3896331 L25.0033917,37.1241722 L9.26164395,25.3896331 L9.26164395,8.16069302 L40.7451395,8.16069302 Z M6.8557525,17.7831114 L6.8557525,23.6115304 L3.15055936,20.8512195 L6.8557525,17.7831114 Z M2.40581567,47.5945662 L2.40581567,23.2799178 L7.11655113,26.8037677 C7.25047508,26.9799602 7.43138608,27.1162137 7.63814238,27.1937403 L24.2820994,39.5904221 C24.7073588,39.907565 25.2923934,39.907565 25.7199805,39.5904221 L42.3687493,27.1769011 C42.5755056,27.097029 42.7564166,26.9607695 42.8903406,26.784583 L47.5940388,23.279557 L47.5940388,47.5821773 L2.40581567,47.5945662 Z M23.5585586,27.7777778 L23.5585586,22.5525526 L18.3333333,22.5525526 L18.3333333,19.6696697 L23.5585586,19.6696697 L23.5585586,14.4444444 L26.4414414,14.4444444 L26.4414414,19.6696697 L31.6666667,19.6696697 L31.6666667,22.5525526 L26.4414414,22.5525526 L26.4414414,27.7777778 L23.5585586,27.7777778 Z" id="Combined-Shape" stroke="url(#linearGradient-1)" stroke-width="0.2" fill="url(#linearGradient-1)" fill-rule="nonzero"></path>
                    </g>
                </g>
            </g>
        </g>
    </g>
</svg>