<?xml version="1.0" encoding="UTF-8"?>
<svg width="42px" height="56px" viewBox="0 0 42 56" version="1.1" xmlns="http://www.w3.org/2000/svg" xmlns:xlink="http://www.w3.org/1999/xlink">
    <!-- Generator: sketchtool 51.2 (57519) - http://www.bohemiancoding.com/sketch -->
    <title>01E4E330-4141-424D-A7AC-E9F1AAAAD450</title>
    <desc>Created with sketchtool.</desc>
    <defs>
        <linearGradient x1="100%" y1="100%" x2="0%" y2="0%" id="linearGradient-1">
            <stop stop-color="#5172C1" offset="0%"></stop>
            <stop stop-color="#64D1B5" offset="100%"></stop>
        </linearGradient>
        <linearGradient x1="100%" y1="100%" x2="-120.040446%" y2="-122.79637%" id="linearGradient-2">
            <stop stop-color="#5172C1" offset="0%"></stop>
            <stop stop-color="#64D1B5" offset="100%"></stop>
        </linearGradient>
        <linearGradient x1="100%" y1="100%" x2="-258.210463%" y2="-307.302135%" id="linearGradient-3">
            <stop stop-color="#5172C1" offset="0%"></stop>
            <stop stop-color="#64D1B5" offset="100%"></stop>
        </linearGradient>
    </defs>
    <g id="instar-web" stroke="none" stroke-width="1" fill="none" fill-rule="evenodd">
        <g id="Desktop-HD-Copy" transform="translate(-154.000000, -1603.000000)">
            <g id="BENEFITS" transform="translate(0.000000, 1218.000000)">
                <g id="daily-activities" transform="translate(154.000000, 385.000000)">
                    <g id="icon_dailyactivities">
                        <rect id="Rectangle-5" fill="#D2F6FF" x="11" y="15" width="30" height="41" rx="7"></rect>
                        <path d="M23.6824615,49.2928163 L24.3692308,50.2481269 L1.52914286,50.2481269 C0.94810022,50.2481269 0.474197802,49.7714249 0.474197802,49.1869024 L0.474197802,7.69355547 C0.474197802,7.10905424 0.948079121,6.63233098 1.52914286,6.63233098 L7.38514286,6.63440355 L7.38514286,4.72335049 C7.54380659,4.45804437 7.86112352,4.29844682 8.22994286,4.29844682 L12.7670505,4.29844682 C13.2409319,2.07029988 14.928422,0.372765184 16.9332396,0.372765184 C18.9359473,0.372765184 20.6255262,2.01638967 21.0994286,4.29844682 L25.6880176,4.29844682 C26.0589152,4.29844682 26.4277345,4.50986396 26.5328176,4.82905906 L26.5328176,6.68620192 L32.3904,6.68827502 C32.9714426,6.68827502 33.4453451,7.16497706 33.4453451,7.74949951 L33.4989152,30.3005199 L32.9178514,29.9813248 C32.4439701,29.6621297 31.9164976,29.5564211 31.3890251,29.5564211 L31.3354549,8.86254359 L26.534611,8.86254359 L26.534611,11.4616946 C26.4274286,11.7808897 26.0586303,11.9923069 25.689811,11.9923069 L8.22941538,11.9923069 C7.8585178,11.9923069 7.54326857,11.8327093 7.38461538,11.5674032 L7.38461538,8.91434196 L2.58377143,8.91434196 L2.58377143,48.3393624 L22.0464527,48.3372898 C22.1536352,48.3912 23.6824615,49.2928163 23.6824615,49.2928163 Z M20.043956,39.9556327 L20.0442092,39.9556295 C19.8340431,40.3266866 19.7268976,40.6976801 19.6238769,41.0686948 L8.22941538,41.0686948 C7.64837275,41.0686948 7.17447033,40.5919927 7.17447033,40.0074703 C7.17447033,39.4229691 7.64835165,38.9462458 8.22941538,38.9462458 L20.6250198,38.9483184 L20.043956,39.9556327 Z M23.6824615,33.6397551 L22.7840914,34.1703673 L8.27859692,34.1703673 C7.69755429,34.1703673 7.22365187,33.6936653 7.22365187,33.1091429 C7.22365187,32.5246416 7.69753319,32.0479184 8.27859692,32.0479184 L24.6302453,32.0479184 C24.5251622,32.1018073 24.4736492,32.2075159 24.4200791,32.3132245 L23.6824615,33.6397551 Z M25.7923516,20.2173878 L8.2290989,20.2173878 C7.64803516,20.2173878 7.17415385,19.7406645 7.17415385,19.1561633 C7.17415385,18.5716408 7.64805626,18.0949388 8.2290989,18.0949388 L25.7406593,18.0949388 C26.3217231,18.0949388 26.7956044,18.571662 26.7956044,19.1561633 C26.7956044,19.7386163 26.3732149,20.2173878 25.7921934,20.2173878 L25.7923516,20.2173878 Z M25.7923516,27.3265306 L8.2290989,27.3265306 C7.64803516,27.3265306 7.17415385,26.8498073 7.17415385,26.2653061 C7.17415385,25.6808049 7.64805626,25.2040816 8.2290989,25.2040816 L25.7406593,25.2040816 C26.3217231,25.2040816 26.7956044,25.6808049 26.7956044,26.2653061 C26.7956044,26.8498073 26.3732149,27.3265306 25.7921934,27.3265306 L25.7923516,27.3265306 Z" id="Combined-Shape" stroke="url(#linearGradient-1)" stroke-width="0.45" fill="url(#linearGradient-1)" fill-rule="nonzero"></path>
                        <path d="M40.3797019,41.3534933 L40.3735759,41.342622 L39.2464703,39.3129363 L39.2464703,37.0910694 C39.2464703,37.0376278 39.1858414,36.9370972 39.1123721,36.8949717 L37.1383533,35.7505437 L37.0047136,35.5167975 L36.001392,33.7618949 C35.9618308,33.692056 35.8645832,33.6327061 35.8165451,33.6327061 L33.4897551,33.6327061 L33.257406,33.498279 L31.5197931,32.4929621 C31.4515136,32.4538225 31.3304366,32.4538225 31.2323352,32.5024864 L29.2668198,33.578849 L27.0061187,33.578849 C26.9580891,33.578849 26.8608245,33.6382086 26.819304,33.7114955 L25.6807297,35.7029494 L25.4397107,35.8383878 L23.6545717,36.8414887 C23.5853313,36.8811791 23.5247121,36.9816926 23.5247121,37.0351429 L23.5247121,39.3576139 L23.4035609,39.580782 L22.4682668,41.3022888 C22.42966,41.3799621 22.4141292,41.4421512 22.4141292,41.4935061 C22.4141292,41.5448687 22.4296581,41.6070502 22.4340942,41.6217396 L23.5741363,43.554384 L23.5741363,45.8958898 C23.5741363,45.9493314 23.6347652,46.049862 23.6965723,46.0853306 L25.7301539,47.2280833 L25.8673743,47.4680923 L26.8706959,49.2229949 C26.9102571,49.2928338 27.0075047,49.3521837 27.0566031,49.3521842 L29.2798093,49.3545413 L29.5116665,49.4886839 L31.2013042,50.4682099 C31.2767286,50.5061466 31.3361709,50.5211686 31.3845099,50.5211686 C31.432851,50.5211686 31.4922959,50.5061461 31.516272,50.4959982 L33.4897024,49.3542568 L35.8144352,49.3542568 C35.8624648,49.3542568 35.9597293,49.2948971 36.0012499,49.2216103 L37.1328514,47.2423523 L37.3581776,47.1078482 L39.0609096,46.0916171 C39.13015,46.0519266 39.1907692,45.9514132 39.1907692,45.8979629 L39.1907692,43.676096 L39.316521,43.4496429 L40.3461811,41.5986145 C40.4109476,41.4958744 40.4135877,41.4127599 40.3797019,41.3534933 Z" id="Combined-Shape" stroke="url(#linearGradient-2)" stroke-width="2" fill-rule="nonzero"></path>
                        <polygon id="Shape" fill="url(#linearGradient-3)" fill-rule="nonzero" points="30.2247033 45.0481306 26.7425407 41.5452408 28.0076308 40.2726204 30.1711121 42.4489796 34.7082198 37.8848653 35.9733099 39.1574857"></polygon>
                    </g>
                </g>
            </g>
        </g>
    </g>
</svg>