<?xml version="1.0" encoding="UTF-8"?>
<svg width="55px" height="54px" viewBox="0 0 55 54" version="1.1" xmlns="http://www.w3.org/2000/svg" xmlns:xlink="http://www.w3.org/1999/xlink">
    <!-- Generator: sketchtool 51.2 (57519) - http://www.bohemiancoding.com/sketch -->
    <title>50837071-8BF2-4713-8805-C74A42981937</title>
    <desc>Created with sketchtool.</desc>
    <defs>
        <linearGradient x1="100%" y1="100%" x2="0%" y2="0%" id="linearGradient-1">
            <stop stop-color="#5172C1" offset="0%"></stop>
            <stop stop-color="#64D1B5" offset="100%"></stop>
        </linearGradient>
    </defs>
    <g id="instar-web" stroke="none" stroke-width="1" fill="none" fill-rule="evenodd">
        <g id="Desktop-HD-Copy" transform="translate(-913.000000, -1605.000000)">
            <g id="BENEFITS" transform="translate(0.000000, 1218.000000)">
                <g id="withdraw-tokens" transform="translate(913.000000, 387.000000)">
                    <g id="icon_withdrawtoken">
                        <rect id="Rectangle-5" fill="#D2F6FF" x="15" y="4" width="40" height="50" rx="3"></rect>
                        <path d="M37.6125049,7.83347402 L37.6125381,7.83333333 C38.4665557,7.83333333 39.1576141,8.51355436 39.1576141,9.35422998 L39.1666667,47.435961 C39.1666667,47.4686337 39.1606316,47.4983391 39.1576141,47.5280437 C39.1545958,47.5874576 39.1485607,47.6468645 39.1395073,47.7033043 C39.1304539,47.7478665 39.118383,47.7894524 39.1063121,47.8340101 C39.0912237,47.8874772 39.0791528,47.937974 39.0580285,47.9884724 C39.0399225,48.033027 39.0187983,48.0746175 38.997674,48.1162049 C38.9735322,48.1607595 38.9493873,48.2053218 38.922231,48.2498765 C38.8950748,48.2944312 38.8618796,48.3330482 38.8286844,48.3746356 C38.8045426,48.4013692 38.7864366,48.4340441 38.7622948,48.4607792 C38.7532414,48.4696909 38.744188,48.4756315 38.7351347,48.4845432 C38.6898717,48.5290979 38.6415857,48.5677157 38.5902838,48.6093024 C38.5601092,48.6360352 38.5299324,48.6627695 38.4967372,48.6865335 C38.4363788,48.7281217 38.3730083,48.7578271 38.3096362,48.790502 C38.2794555,48.8053551 38.2553136,48.8231777 38.225136,48.8350597 C38.038035,48.9122962 37.8328258,48.9568531 37.6185701,48.9568531 C37.5189899,48.9568531 37.4194021,48.9449719 37.3228348,48.9271485 C37.2836007,48.9212079 37.2504063,48.9063548 37.2141928,48.8974439 C37.156855,48.8825908 37.0995165,48.8677385 37.0421795,48.8439745 C37.0029469,48.8261518 36.9667342,48.8053581 36.9275039,48.7875347 C36.8792203,48.7637722 36.8279184,48.7400082 36.7826531,48.7103036 C36.7434267,48.6865388 36.7102315,48.6568334 36.6740188,48.6300991 C36.6438411,48.6063351 36.6076284,48.5855414 36.5774515,48.5588071 L34.0908063,46.3249901 L31.604161,48.5588071 C31.0127059,49.0875544 30.110397,49.0905278 29.5219394,48.5588071 L27.0352941,46.3279559 L24.545636,48.5617728 C23.9541809,49.0905202 23.051872,49.0905202 22.4634143,48.5617728 L19.9767691,46.3279559 L17.4871109,48.5617728 C16.8956558,49.0905202 15.9933469,49.0905202 15.4048893,48.5617728 L12.9152311,46.3279559 L10.425573,48.5617728 C10.4014304,48.5825665 10.3712535,48.6003892 10.3440934,48.6211829 C10.2988304,48.6568319 10.2565803,48.6895076 10.2082966,48.7192123 C10.1690672,48.7429763 10.1268147,48.76377 10.084567,48.7845637 C10.0362833,48.811298 9.99101724,48.835062 9.93971609,48.8528854 C9.89445309,48.870708 9.84918545,48.88259 9.80391936,48.894472 C9.75563574,48.906354 9.7043369,48.9212071 9.65303497,48.930118 C9.60173072,48.9390297 9.55043188,48.942 9.49912995,48.9449711 C9.45990047,48.9479414 9.42670529,48.9568524 9.38747503,48.9568524 C9.3723866,48.9568524 9.36031569,48.953882 9.34824478,48.953882 C9.29694054,48.953882 9.2456417,48.9449711 9.19433977,48.9390297 C9.14303552,48.9330884 9.09475189,48.930118 9.04646827,48.918236 C8.99818465,48.9093243 8.95291624,48.8915017 8.90765092,48.8766494 C8.85634667,48.858826 8.80806305,48.846944 8.75977942,48.8261511 C8.71753705,48.8053574 8.67528463,48.7815934 8.63303684,48.7578293 C8.58776612,48.7310973 8.5425008,48.7103036 8.50025301,48.6805982 C8.46102585,48.6538616 8.42783144,48.6211859 8.39161872,48.5914813 C8.34936862,48.5558368 8.30712006,48.5201908 8.26788904,48.4815737 C8.25883644,48.4726627 8.24978307,48.4667214 8.24072969,48.4578097 C8.21658788,48.4310784 8.19848191,48.4013738 8.17735763,48.3746394 C8.14114182,48.3330505 8.10794664,48.2884913 8.07776976,48.2439336 C8.05060964,48.2023447 8.02948614,48.1607588 8.00836186,48.1162011 C7.98422004,48.0716388 7.96007823,48.0270841 7.94197226,47.9795561 C7.92386551,47.9320281 7.90877708,47.8815267 7.89670617,47.8339987 C7.88161696,47.7864707 7.86954682,47.741916 7.86049345,47.694388 C7.84842255,47.6409209 7.84540501,47.587453 7.84238671,47.5310133 C7.84238671,47.4953695 7.83333333,47.4656642 7.83333333,47.4300181 L7.83333333,9.35437066 C7.83333333,8.51371785 8.52436856,7.83347402 9.3784093,7.83347402 L16.4368571,7.83347402 C17.2908747,7.83347402 17.9819331,8.51369504 17.9819331,9.35437066 C17.9819331,10.1950235 17.2908978,10.8752673 16.4368571,10.8752673 L10.9234853,10.8752673 L10.9204677,43.9844268 L11.8650499,43.1378197 C12.456505,42.6090724 13.3588139,42.6090724 13.9472716,43.1378197 L16.4369297,45.3716366 L18.9265879,43.1378197 C19.518043,42.6090724 20.4203519,42.6090724 21.0088095,43.1378197 L23.4954548,45.3716366 L25.9881258,43.1407854 C26.5795809,42.6120381 27.4818898,42.6090647 28.0703475,43.1407854 L30.5569927,45.3716366 L33.043638,43.1378197 C33.6350931,42.6090724 34.537402,42.6090724 35.1258596,43.1378197 L36.0674289,43.9844268 L36.0674289,10.8752673 L30.5540571,10.8752673 C29.7000395,10.8752673 29.0089811,10.1950463 29.0089811,9.35437066 C29.0089811,8.51371785 29.7000163,7.83347402 30.5540571,7.83347402 L37.6125049,7.83347402 Z M45.4474871,2.74385906e-15 C46.3056153,0 47,0.690847096 47,1.54465533 L47,14.1220113 C47,14.9757964 46.3056386,15.6666667 45.4474871,15.6666667 C44.5893588,15.6666667 43.8949742,14.9758196 43.8949742,14.1220113 L43.8949742,3.08931066 L3.10502585,3.08931066 L3.10502585,14.1220113 C3.10502585,14.9757964 2.41066444,15.6666667 1.55251292,15.6666667 C0.694384693,15.6666667 0,14.9758196 0,14.1220113 L0,1.54465533 C0,0.690870265 0.694361405,2.74385906e-15 1.55251292,2.74385906e-15 L45.4474871,2.74385906e-15 Z M31.2367614,17.625 L31.236683,17.625 C32.1005611,17.625 32.8051366,18.2847625 32.8020734,19.09375 C32.8020734,19.9055795 32.1005846,20.5625 31.2336245,20.5625 L15.7663656,20.5625 C14.899429,20.5625 14.1979167,19.9056016 14.1979167,19.09375 C14.1979167,18.2819205 14.8994054,17.625 15.7663656,17.625 L31.2367614,17.625 Z M31.2367614,24.4791667 L31.236683,24.4791667 C32.1005611,24.4791667 32.8051366,25.1360651 32.8020734,25.9479167 C32.8020734,26.7597462 32.1005846,27.4166667 31.2336245,27.4166667 L15.7663656,27.4166667 C14.899429,27.4166667 14.1979167,26.7597682 14.1979167,25.9479167 C14.1979167,25.1360871 14.8994054,24.4791667 15.7663656,24.4791667 L31.2367614,24.4791667 Z M31.2367614,33.2916667 L31.236683,33.2916667 C32.1005611,33.2916667 32.8051366,33.9514292 32.8020734,34.7604167 C32.8020734,35.5722462 32.1005846,36.2291667 31.2336245,36.2291667 L15.7663656,36.2291667 C14.899429,36.2291667 14.1979167,35.5722682 14.1979167,34.7604167 C14.1979167,33.9485871 14.8994054,33.2916667 15.7663656,33.2916667 L31.2367614,33.2916667 Z" id="Combined-Shape" fill="url(#linearGradient-1)" fill-rule="nonzero"></path>
                    </g>
                </g>
            </g>
        </g>
    </g>
</svg>