<svg xmlns="http://www.w3.org/2000/svg" xmlns:xlink="http://www.w3.org/1999/xlink" viewBox="0 0 28.25 28.25"><defs><style>.cls-1{fill:url(#linear-gradient);}.cls-2{fill:#fff;}</style><linearGradient id="linear-gradient" x1="-16.27" y1="36" x2="55.64" y2="-15.75" gradientUnits="userSpaceOnUse"><stop offset="0" stop-color="#50be97"/><stop offset="0.43" stop-color="#7db5ab"/><stop offset="0.8" stop-color="#9cafb9"/><stop offset="1" stop-color="#a8adbe"/></linearGradient></defs><title>Asset 68</title><g id="Layer_2" data-name="Layer 2"><g id="Layer_1-2" data-name="Layer 1"><rect class="cls-1" width="28.25" height="28.25" rx="14.13" ry="14.13"/><path class="cls-2" d="M16.48,18.24a.22.22,0,0,1-.22-.22V9.16H9.07v1.51a.22.22,0,0,1-.22.22.22.22,0,0,1-.22-.22V8.94a.21.21,0,0,1,.22-.22h7.63a.22.22,0,0,1,.22.22V18A.22.22,0,0,1,16.48,18.24Z"/><path class="cls-2" d="M8.85,12A.24.24,0,0,1,8.69,12a.22.22,0,0,1-.06-.15.23.23,0,0,1,.06-.16.23.23,0,0,1,.31,0,.24.24,0,0,1,.07.16.24.24,0,0,1-.22.22Z"/><path class="cls-2" d="M16.48,19.54H10.31a1.69,1.69,0,0,1-1.68-1.7V13a.21.21,0,0,1,.22-.22.22.22,0,0,1,.22.22v4.88a1.25,1.25,0,0,0,1.24,1.26h6.17a.22.22,0,0,1,.22.22A.22.22,0,0,1,16.48,19.54Z"/><path class="cls-2" d="M16.48,19.54a.22.22,0,0,1-.22-.22.22.22,0,0,1,.22-.22,2.61,2.61,0,0,0,2.12-.82A3.25,3.25,0,0,0,19.16,16H16.48a.22.22,0,1,1,0-.44h2.88a.22.22,0,0,1,.21.18,3.83,3.83,0,0,1-.63,2.86A3,3,0,0,1,16.48,19.54Z"/><path class="cls-2" d="M14.9,11.11H10.42a.22.22,0,0,1-.22-.22.22.22,0,0,1,.22-.22H14.9a.22.22,0,0,1,.22.22A.22.22,0,0,1,14.9,11.11Z"/><path class="cls-2" d="M14.9,13.33H10.42a.22.22,0,1,1,0-.44H14.9a.22.22,0,0,1,0,.44Z"/><path class="cls-2" d="M14.9,15.55H10.42a.22.22,0,0,1,0-.44H14.9a.22.22,0,0,1,0,.44Z"/><path class="cls-2" d="M14.9,17.75H10.42a.22.22,0,0,1-.22-.22v-2.2a.22.22,0,0,1,.44,0v2h4v-2a.22.22,0,1,1,.44,0v2.2A.22.22,0,0,1,14.9,17.75Z"/></g></g></svg>