<?xml version="1.0" encoding="UTF-8"?>
<svg width="56px" height="53px" viewBox="0 0 56 53" version="1.1" xmlns="http://www.w3.org/2000/svg" xmlns:xlink="http://www.w3.org/1999/xlink">
    <!-- Generator: sketchtool 51.2 (57519) - http://www.bohemiancoding.com/sketch -->
    <title>CA6678A1-A6BC-4D70-9ED2-6FB030BA1417</title>
    <desc>Created with sketchtool.</desc>
    <defs>
        <linearGradient x1="100%" y1="100%" x2="0%" y2="0%" id="linearGradient-1">
            <stop stop-color="#5172C1" offset="0%"></stop>
            <stop stop-color="#64D1B5" offset="100%"></stop>
        </linearGradient>
    </defs>
    <g id="instar-web" stroke="none" stroke-width="1" fill="none" fill-rule="evenodd">
        <g id="Desktop-HD-Copy" transform="translate(-533.000000, -1611.000000)">
            <g id="BENEFITS" transform="translate(0.000000, 1218.000000)">
                <g id="get-paid" transform="translate(533.000000, 393.000000)">
                    <g id="icon_userfriendly">
                        <rect id="Rectangle-5" fill="#D2F6FF" x="14" y="3" width="42" height="50" rx="3"></rect>
                        <path d="M25,0 C11.211413,0 0,11.211413 0,25 C0,38.788587 11.211413,50 25,50 C38.788587,50 50,38.788587 50,25 C50,11.211413 38.788587,0 25,0 Z M25,3.26086957 C37.0244565,3.26086957 46.7391304,12.9755435 46.7391304,25 C46.7391304,37.0244565 37.0244565,46.7391304 25,46.7391304 C12.9755435,46.7391304 3.26086957,37.0244565 3.26086957,25 C3.26086957,12.9755435 12.9755435,3.26086957 25,3.26086957 Z M15.7608696,14.673913 C13.6591304,14.673913 11.9565217,16.3765217 11.9565217,18.4782609 C11.9565217,20.58 13.6591304,22.2826087 15.7608696,22.2826087 C17.8626087,22.2826087 19.5652174,20.58 19.5652174,18.4782609 C19.5652174,16.3765217 17.8626087,14.673913 15.7608696,14.673913 Z M34.2391304,14.673913 C32.1373913,14.673913 30.4347826,16.3765217 30.4347826,18.4782609 C30.4347826,20.58 32.1373913,22.2826087 34.2391304,22.2826087 C36.3408696,22.2826087 38.0434783,20.58 38.0434783,18.4782609 C38.0434783,16.3765217 36.3408696,14.673913 34.2391304,14.673913 Z M12.873913,29.8913043 C12.3495435,29.9210261 11.8718478,30.2182391 11.5831522,30.7404891 C11.3071685,31.2669837 11.3453804,31.9357065 11.6850543,32.4219022 C14.5998913,36.7824457 19.4828804,39.6740761 25.0002717,39.6740761 C30.517663,39.6740761 35.4008152,36.7826087 38.3154891,32.4219022 C38.7910326,31.7107065 38.5851033,30.6386413 37.873913,30.1630978 C37.1627228,29.6875543 36.0736413,29.8934837 35.5980978,30.6046739 C33.24375,34.1266848 29.3839674,36.4133696 25.0002717,36.4133696 C20.6165761,36.4133696 16.7567935,34.1269565 14.4024457,30.6046739 C13.9608696,30.0866739 13.3982609,29.8616304 12.873913,29.8913587 L12.873913,29.8913043 Z" id="Shape" fill="url(#linearGradient-1)" fill-rule="nonzero"></path>
                    </g>
                </g>
            </g>
        </g>
    </g>
</svg>