<?xml version="1.0" encoding="UTF-8"?>
<svg width="70px" height="70px" viewBox="0 0 70 70" version="1.1" xmlns="http://www.w3.org/2000/svg" xmlns:xlink="http://www.w3.org/1999/xlink">
    <!-- Generator: sketchtool 51.2 (57519) - http://www.bohemiancoding.com/sketch -->
    <title>CFBDA249-15A8-4712-A583-A7CC2900C5E8</title>
    <desc>Created with sketchtool.</desc>
    <defs></defs>
    <g id="instar-web" stroke="none" stroke-width="1" fill="none" fill-rule="evenodd">
        <g id="Desktop-HD-Copy" transform="translate(-685.000000, -144.000000)" fill-rule="nonzero">
            <g id="HEADER">
                <g id="Logo_Token_Artboard-17" transform="translate(685.000000, 144.000000)">
                    <circle id="Oval" fill="#303864" cx="35" cy="35" r="35"></circle>
                    <path d="M31.4431427,24.5477527 L35.3943662,20.6562034 L39.3902724,24.5980474 L45.0394369,24.5980474 L45.0394369,30.1618942 L49.0353431,34.0974514 L45.0394369,38.0330086 C45.0429516,40.222482 46.8442119,41.9965384 49.0672593,42 L61.8337327,42 C65.7044074,29.2817068 59.6828365,15.6700264 47.5899186,9.80204885 C35.4970007,3.93407135 20.8695528,7.52600484 12.9892054,18.2986412 C12.1187478,19.5096855 12.0085689,21.0983313 12.7037402,22.4147032 C13.3989114,23.731075 14.7828182,24.5543523 16.2893388,24.5477527 L31.4431427,24.5477527 Z" id="Shape" fill="#FFFFFF"></path>
                    <path d="M38.494494,43.6048406 L34.5238671,47.492025 L30.5405138,43.6048406 L24.9090959,43.6048406 L24.9090959,38.0490418 L20.9257426,34.1368595 L24.9090959,30.2246772 C24.9090959,28.0295236 23.0971989,26.25 20.8621108,26.25 L8.22482708,26.25 C4.2378433,38.9562374 10.2496966,52.6235718 22.402623,58.4817709 C34.5555494,64.33997 49.2415886,60.6498518 57.0368126,49.7793392 C57.8870454,48.5723203 57.9843908,47.001412 57.2894735,45.7020347 C56.5945562,44.4026575 55.2223711,43.5898326 53.7279568,43.5923417 L38.494494,43.6048406 Z" id="Shape" fill="#FFFFFF"></path>
                    <path d="M42.4356223,31.9420601 L45.5,35 L42.4227468,38.0772532 L42.4227468,38.0965665 L42.4227468,42.4227468 L38.0772532,42.4227468 L38.0579399,42.4356223 L35,45.5 L31.9227468,42.4227468 L31.9034335,42.4227468 L27.5772532,42.4227468 L27.5772532,38.0772532 L27.5643777,38.0579399 L24.5,35 L27.5772532,31.9227468 L27.5772532,31.9034335 L27.5772532,27.5772532 L31.9227468,27.5772532 L31.9420601,27.5643777 L35,24.5 L38.0772532,27.5772532 L38.0901288,27.5772532 L42.4227468,27.5772532 L42.4227468,31.9227468 L42.4356223,31.9420601 Z" id="Combined-Shape" fill="#63CAB6"></path>
                </g>
            </g>
        </g>
    </g>
</svg>