<?xml version="1.0" encoding="UTF-8"?>
<svg width="24px" height="24px" viewBox="0 0 24 24" version="1.1" xmlns="http://www.w3.org/2000/svg" xmlns:xlink="http://www.w3.org/1999/xlink">
    <!-- Generator: sketchtool 51.2 (57519) - http://www.bohemiancoding.com/sketch -->
    <title>6E11E222-6A02-48B0-B4F5-04ACACC408E5</title>
    <desc>Created with sketchtool.</desc>
    <defs></defs>
    <g id="instar-web" stroke="none" stroke-width="1" fill="none" fill-rule="evenodd">
        <g id="Desktop-HD-Copy" transform="translate(-1175.000000, -2828.000000)" fill-rule="nonzero">
            <g id="FOOTER" transform="translate(0.000000, 2458.000000)">
                <g id="medium" transform="translate(1175.000000, 370.000000)">
                    <circle id="Oval-5-Copy" fill="#12100E" cx="12" cy="12" r="12"></circle>
                    <path d="M7.42296919,9.03997647 C7.43787827,8.88535165 7.38170382,8.73252221 7.27170868,8.62845384 L6.15126051,7.21164021 L6.15126051,7 L9.6302521,7 L12.3193277,13.1904761 L14.6834735,7 L18,7 L18,7.21164021 L17.0420168,8.17577895 C16.9594282,8.24186036 16.91846,8.35046983 16.9355743,8.4579659 L16.9355743,15.5420341 C16.91846,15.6495302 16.9594282,15.7581396 17.0420168,15.824221 L17.977591,16.7883598 L17.977591,17 L13.2717087,17 L13.2717087,16.7883598 L14.2408964,15.8007055 C14.3361345,15.7007642 14.3361345,15.6713698 14.3361345,15.5185186 L14.3361345,9.79247501 L11.6414566,16.9764844 L11.2773109,16.9764844 L8.14005602,9.79247501 L8.14005602,14.6072898 C8.11389873,14.8097182 8.17794687,15.0135192 8.31372549,15.159906 L9.57422969,16.7648442 L9.57422969,16.9764844 L6,16.9764844 L6,16.7648442 L7.2605042,15.159906 C7.39529424,15.0132765 7.45560768,14.8081235 7.42296919,14.6072898 L7.42296919,9.03997647 Z" id="Shape" fill="#FFFFFF"></path>
                </g>
            </g>
        </g>
    </g>
</svg>