<?xml version="1.0" encoding="UTF-8"?>
<svg width="24px" height="24px" viewBox="0 0 24 24" version="1.1" xmlns="http://www.w3.org/2000/svg" xmlns:xlink="http://www.w3.org/1999/xlink">
    <!-- Generator: sketchtool 51.2 (57519) - http://www.bohemiancoding.com/sketch -->
    <title>2FF03591-8199-4536-9874-848D27875CDF</title>
    <desc>Created with sketchtool.</desc>
    <defs></defs>
    <g id="instar-web" stroke="none" stroke-width="1" fill="none" fill-rule="evenodd">
        <g id="Desktop-HD-Copy" transform="translate(-1262.000000, -2828.000000)">
            <g id="FOOTER" transform="translate(0.000000, 2458.000000)">
                <g id="reddit" transform="translate(1262.000000, 370.000000)">
                    <circle id="Oval-5-Copy-2" stroke="#3375B0" stroke-width="2" fill="#FFFFFF" fill-rule="nonzero" cx="12" cy="12" r="11"></circle>
                    <path d="M13.4660404,14.2135535 C13.1772904,14.5015535 12.6845404,14.6418035 11.9600404,14.6418035 C11.9577904,14.6418035 11.9555404,14.6425535 11.9532904,14.6425535 C11.9517904,14.6425535 11.9495404,14.6418035 11.9472904,14.6418035 C11.2220404,14.6418035 10.7300404,14.5015535 10.4420404,14.2135535 C10.3137904,14.0860535 10.1060404,14.0860535 9.97854044,14.2135535 C9.85029044,14.3418035 9.85029044,14.5488035 9.97854044,14.6770535 C10.3955404,15.0948035 11.0397904,15.2973035 11.9472904,15.2973035 L11.9532904,15.2973035 L11.9600404,15.2973035 C12.8675404,15.2973035 13.5117904,15.0948035 13.9295404,14.6770535 C14.0570404,14.5495535 14.0570404,14.3418035 13.9295404,14.2135535 C13.8012904,14.0860535 13.5942904,14.0853035 13.4660404,14.2135535" id="Fill-253" fill="#EB5030"></path>
                    <path d="M10.5188529,12.1183676 C10.5188529,11.6698676 10.1551029,11.2941176 9.70660294,11.2941176 C9.25810294,11.2941176 8.88235294,11.6698676 8.88235294,12.1183676 C8.88235294,12.5668676 9.25810294,12.9306176 9.70660294,12.9306176 C10.1551029,12.9306176 10.5188529,12.5668676 10.5188529,12.1183676" id="Fill-254" fill="#EB5030"></path>
                    <path d="M13.9433971,11.2941176 C13.4948971,11.2941176 13.1176471,11.6698676 13.1176471,12.1183676 C13.1176471,12.5668676 13.4948971,12.9306176 13.9433971,12.9306176 C14.3918971,12.9306176 14.7556471,12.5668676 14.7556471,12.1183676 C14.7556471,11.6698676 14.3918971,11.2941176 13.9433971,11.2941176" id="Fill-255" fill="#EB5030"></path>
                    <path d="M17.331,13.1085 C17.34375,13.21275 17.35125,13.3185 17.35125,13.42425 C17.35125,14.41875 16.773,15.3435 15.72375,16.02825 C14.718,16.6845 13.38675,17.046 11.976,17.046 C10.5645,17.046 9.234,16.6845 8.2275,16.02825 C7.17825,15.3435 6.60075,14.41875 6.60075,13.42425 C6.60075,13.308 6.609,13.1925 6.62475,13.0785 C6.2475,12.81825 6,12.38325 6,11.892 C6,11.09625 6.64725,10.44975 7.44225,10.44975 C7.77675,10.44975 8.08425,10.5645 8.3295,10.75575 C9.27375,10.17075 10.485,9.837 11.77425,9.8055 L12.54825,7.35675 C12.6,7.19325 12.7695,7.09725 12.936,7.137 L14.92875,7.60575 C15.12975,7.21875 15.534,6.954 15.999,6.954 C16.66425,6.954 17.20575,7.4955 17.20575,8.16075 C17.20575,8.82525 16.66425,9.36675 15.999,9.36675 C15.36375,9.36675 14.84175,8.8725 14.79675,8.24775 L13.0815,7.84425 L12.4575,9.81675 C13.65375,9.88725 14.76975,10.22025 15.6495,10.773 C15.89775,10.57125 16.2135,10.44975 16.55775,10.44975 C17.3535,10.44975 18,11.09625 18,11.892 C18,12.40275 17.733,12.852 17.331,13.1085 M12,0 C5.373,0 0,5.373 0,12 C0,18.62775 5.373,24 12,24 C18.62775,24 24,18.62775 24,12 C24,5.373 18.62775,0 12,0" id="Fill-256" fill="#EB5030"></path>
                </g>
            </g>
        </g>
    </g>
</svg>