<?xml version="1.0" encoding="UTF-8"?>
<svg width="24px" height="24px" viewBox="0 0 24 24" version="1.1" xmlns="http://www.w3.org/2000/svg" xmlns:xlink="http://www.w3.org/1999/xlink">
    <!-- Generator: sketchtool 51.2 (57519) - http://www.bohemiancoding.com/sketch -->
    <title>96AB217F-7D29-4090-B3DC-2763E0051D46</title>
    <desc>Created with sketchtool.</desc>
    <defs></defs>
    <g id="instar-web" stroke="none" stroke-width="1" fill="none" fill-rule="evenodd">
        <g id="Desktop-HD-Copy" transform="translate(-1132.000000, -2828.000000)" fill-rule="nonzero">
            <g id="FOOTER" transform="translate(0.000000, 2458.000000)">
                <g id="telegram" transform="translate(1132.000000, 370.000000)">
                    <circle id="Oval-5" fill="#FFFFFF" cx="12" cy="12" r="12"></circle>
                    <path d="M10.2343066,14.3852467 C10.5588369,14.626957 10.8844844,14.8697844 11.2090147,15.111509 C10.8688137,15.4472248 10.5286127,15.7817947 10.1906463,16.1175106 C10.1593105,16.149962 10.1290978,16.1835336 10.0988822,16.2171052 L10.1156685,15.9955368 C10.1537166,15.4584029 10.1928849,14.9212691 10.2342905,14.3852525 L10.2343066,14.3852467 Z M12.9044334,9.65732292 C11.2537923,10.6991334 9.60211999,11.7431784 7.95024709,12.7838717 C7.91667391,12.8051333 7.87974598,12.8208007 7.84281519,12.837585 C8.05879915,13.5291556 8.27589467,14.2206976 8.49075847,14.9133854 C8.64519111,15.4001576 8.80523313,15.8858125 8.95071024,16.3748478 C9.0111414,16.5773917 9.1152157,16.6859271 9.33568888,16.6478894 C9.39723733,15.8198152 9.45543104,14.9928583 9.51809965,14.1658727 C9.524814,14.0696355 9.53712398,13.9711609 9.54831523,13.8749323 C9.45543104,13.8212189 9.49571944,13.7182668 9.52817189,13.6846981 C9.58524545,13.6265101 9.642319,13.5660818 9.69939256,13.5067736 C9.71953589,13.4877502 9.74079824,13.4687274 9.76094101,13.4497028 C9.79003643,13.4194886 9.81689441,13.3903946 9.84599269,13.3601805 C9.98252002,13.2326119 10.1190473,13.1039232 10.2555804,12.9752202 C10.3339169,12.901365 10.4122533,12.8275098 10.490587,12.7547719 C10.7020932,12.5567027 10.9147281,12.357522 11.1295919,12.1628074 C11.677953,11.6648342 12.237487,11.1769448 12.7869653,10.681206 C13.4875072,10.0478465 14.1858146,9.4111065 14.8796528,8.77101482 C14.9311313,8.70051708 14.9635843,8.60875457 15.0083476,8.53154193 C14.8841305,8.54832744 14.7386477,8.52706582 14.6390397,8.58525532 C14.054868,8.93214352 13.4796633,9.29473036 12.9044586,9.65728855 L12.9044334,9.65732292 Z M24,12.0005729 C24,18.6275156 18.6272591,24 12,24 C5.37159501,24 0,18.6275156 0,12.0005729 C0,5.37248442 5.37159501,0 12,0 C18.6272591,0 24,5.37248442 24,12.0005729 Z M17.3581302,7.21993841 C17.3514159,7.17405715 17.3469392,7.12705866 17.3379866,7.0822975 C17.2327921,6.5731519 16.9530079,6.41871518 16.4539223,6.58991048 C16.3800636,6.61452926 16.3050847,6.63019408 16.231226,6.65145599 C15.9525734,6.76671489 15.6761612,6.88980878 15.3941453,6.99499248 C14.9252552,7.17179976 14.4518673,7.33741173 13.9796253,7.50751844 C13.6909056,7.62725489 13.4055379,7.75258612 13.1145836,7.86672492 C12.3860521,8.15095896 11.6564319,8.43072979 10.9267831,8.71270357 C9.42497109,9.29123254 7.92327366,9.86979016 6.420373,10.4494364 C6.08240657,10.5792423 5.74220555,10.7034563 5.40873694,10.8422173 C5.11554812,10.9630738 4.8156269,11.0805701 4.54481257,11.2439361 C4.4250704,11.315554 4.29301798,11.5046709 4.30756855,11.6243988 C4.32099725,11.7452553 4.50564719,11.8493246 4.61977998,11.9578801 C4.6399236,11.9780228 4.67573338,11.9836178 4.70594896,11.9925689 C5.50160393,12.2387567 6.29840485,12.484956 7.09517712,12.7311208 C7.09070079,12.8139282 7.10077275,12.8989759 7.12651286,12.9829034 L7.4163498,13.9117009 L7.79683062,15.1303216 C7.84159391,15.2713199 7.8863572,15.4111982 7.93112049,15.5499449 C8.03967255,15.8890124 8.15157934,16.2403982 8.25453348,16.5828174 C8.47722978,17.3269842 9.07817805,17.3851665 9.25723122,17.3851665 C9.28408919,17.3851665 9.31206732,17.3829283 9.34004259,17.3818094 C9.36801958,17.3829283 9.3948787,17.3840476 9.42173667,17.3840476 C9.88168845,17.3840476 10.1771118,17.1311477 10.3528131,16.9789484 C10.3852662,16.9509727 10.4166019,16.9241149 10.4389821,16.9073305 C10.4759129,16.8804738 10.5094832,16.8502597 10.5385815,16.8178082 C10.5609629,16.7943087 10.5822247,16.7696896 10.6046077,16.7461904 C10.6415385,16.7047867 10.676229,16.6667404 10.7064446,16.6354061 C10.9739042,16.3701967 11.2402522,16.1072102 11.508832,15.8431409 L11.8266585,15.5297985 C11.8714218,15.5611327 11.9161851,15.591344 11.9609484,15.6215581 C12.6827475,16.1609264 13.4045753,16.7025293 14.128609,17.2385459 C14.6691203,17.6380302 15.0473666,17.5351011 15.3092426,16.9240862 C15.4211494,16.4082086 15.5319389,15.8923309 15.6416226,15.3775991 C15.7434594,14.8628386 15.8430559,14.3503413 15.9437784,13.8378154 C16.0086844,13.5558215 16.071353,13.2726933 16.1351418,12.9918367 C16.3041221,12.197337 16.4731082,11.4028086 16.6409598,10.6083088 C16.6957959,10.3542889 16.7495119,10.1013977 16.8032278,9.84850075 C16.8166568,9.78807248 16.8323233,9.7276442 16.8446335,9.66721879 C17.0158542,8.85143422 17.1870691,8.03567829 17.3583012,7.21989372 L17.3581302,7.21993841 Z" id="Shape" fill="#68B2E1"></path>
                </g>
            </g>
        </g>
    </g>
</svg>