<?xml version="1.0" encoding="UTF-8"?>
<svg width="24px" height="24px" viewBox="0 0 24 24" version="1.1" xmlns="http://www.w3.org/2000/svg" xmlns:xlink="http://www.w3.org/1999/xlink">
    <!-- Generator: sketchtool 51.2 (57519) - http://www.bohemiancoding.com/sketch -->
    <title>226983F7-CC13-4B3E-A04F-FB95EB9065B5</title>
    <desc>Created with sketchtool.</desc>
    <defs></defs>
    <g id="instar-web" stroke="none" stroke-width="1" fill="none" fill-rule="evenodd">
        <g id="Desktop-HD-Copy" transform="translate(-1218.000000, -2828.000000)">
            <g id="FOOTER" transform="translate(0.000000, 2458.000000)">
                <g id="twitter" transform="translate(1218.000000, 370.000000)">
                    <circle id="Oval-5-Copy" stroke="#4DA9E7" stroke-width="2" fill="#FFFFFF" fill-rule="nonzero" cx="12" cy="12" r="11"></circle>
                    <path d="M16.7715,9.55275 C16.776,9.6585 16.779,9.76425 16.779,9.8715 C16.779,13.12425 14.3025,16.87575 9.774,16.87575 C8.3835,16.87575 7.08975,16.4685 6,15.77025 C6.19275,15.79275 6.3885,15.804 6.58725,15.804 C7.74075,15.804 8.802,15.411 9.645,14.75025 C8.56725,14.73075 7.65825,14.019 7.34475,13.041 C7.4955,13.0695 7.64925,13.0845 7.80825,13.0845 C8.0325,13.0845 8.25,13.0545 8.457,12.99825 C7.3305,12.7725 6.48225,11.77725 6.48225,10.58475 L6.48225,10.55325 C6.81375,10.73775 7.194,10.84875 7.5975,10.8615 C6.93675,10.41975 6.50175,9.666 6.50175,8.8125 C6.50175,8.361 6.62325,7.938 6.8355,7.57425 C8.04975,9.06375 9.864,10.044 11.91,10.14675 C11.868,9.96675 11.84625,9.7785 11.84625,9.58575 C11.84625,8.226 12.94875,7.1235 14.30775,7.1235 C15.0165,7.1235 15.65625,7.42275 16.10475,7.90125 C16.66575,7.791 17.193,7.58625 17.6685,7.30425 C17.48475,7.87875 17.094,8.361 16.58625,8.66625 C17.08425,8.60625 17.55825,8.47425 18,8.2785 C17.67,8.772 17.25225,9.2055 16.7715,9.55275 M12,0 C5.37225,0 0,5.37225 0,12 C0,18.627 5.37225,24 12,24 C18.62775,24 24,18.627 24,12 C24,5.37225 18.62775,0 12,0" id="Fill-184" fill="#4DA9E7"></path>
                </g>
            </g>
        </g>
    </g>
</svg>