<?xml version="1.0" encoding="utf-8"?>
<!-- Generator: Adobe Illustrator 20.1.0, SVG Export Plug-In . SVG Version: 6.00 Build 0)  -->
<svg version="1.1" id="Слой_1" xmlns="http://www.w3.org/2000/svg" xmlns:xlink="http://www.w3.org/1999/xlink" x="0px" y="0px"
	 viewBox="0 0 543 361" style="enable-background:new 0 0 543 361;" xml:space="preserve">
<style type="text/css">
	.st0{font-family:'MyriadPro-Regular';}
	.st1{font-size:10px;}
	.st2{fill:none;stroke:#000000;stroke-width:0.75;stroke-miterlimit:10;}
	.st3{font-size:7px;}
	.st4{font-size:8.5px;}
	.st5{font-size:20px;}
	.st6{font-size:12px;}
	.st7{font-size:9px;}
	.st8{fill:none;stroke:#000000;stroke-miterlimit:10;}
	.st9{font-size:8px;}
	.st10{fill:none;stroke:#000000;stroke-width:0.5;stroke-miterlimit:10;}
	.st11{font-size:6.79px;}
	.st12{fill:none;stroke:#000000;stroke-width:2;stroke-miterlimit:10;}
	.st13{font-size:5.6px;}
	.st14{font-size:6.72px;}
	.st15{font-size:6.65px;}
	.st16{font-size:4.75px;}
	.st17{fill:none;stroke:#000000;stroke-width:0.5;stroke-miterlimit:10;stroke-dasharray:2,1;}
</style>
<text transform="matrix(1 0 0 1 7.3999 12.1411)" class="st0 st1">     </text>
<line class="st2" x1="352.6" y1="89" x2="425.3" y2="89"/>
<line class="st2" x1="353" y1="76.8" x2="353" y2="89.4"/>
<text transform="matrix(1 0 0 1 357.6602 84.8911)" class="st0 st3">Form </text>
<text transform="matrix(1 0 0 1 375.9443 84.8911)" class="st0 st4">1099-MISC</text>
<line class="st2" x1="353" y1="28.7" x2="353" y2="77.2"/>
<text transform="matrix(1 0 0 1 363 57.2778)" class="st0 st5">20</text>
<text transform="matrix(1 0 0 1 388.2803 57.2778)" class="st0 st5">14</text>
<line class="st2" x1="424.6" y1="89" x2="533.3" y2="89"/>
<line class="st2" x1="425" y1="16.8" x2="425" y2="89.4"/>
<text transform="matrix(1 0 0 1 450.8252 48.3682)" class="st0 st6">Miscellaneous </text>
<text transform="matrix(1 0 0 1 490.3652 62.7681)" class="st0 st6">Income</text>
<line class="st2" x1="453.8" y1="88.8" x2="453.8" y2="101.2"/>
<text transform="matrix(1 0 0 1 498.3604 98.1392)" class="st0 st1">Copy B</text>
<line class="st2" x1="453.4" y1="161" x2="533.2" y2="161"/>
<line class="st2" x1="453.8" y1="100.7" x2="453.8" y2="161.4"/>
<text transform="matrix(1 0 0 1 475.5176 111.4248)" class="st0 st7">For Recipient</text>
<line class="st8" x1="360" y1="341" x2="533.3" y2="341"/>
<text transform="matrix(1 0 0 1 362.9033 350.9971)" class="st0 st3">Department of the Treasury - Internal Revenue Service</text>
<line class="st2" x1="453.4" y1="305" x2="533.2" y2="305"/>
<line class="st2" x1="453.8" y1="160.8" x2="453.8" y2="305.4"/>
<text transform="matrix(1 0 0 1 460.3926 172.0122)" class="st0 st9">This is important tax </text>
<text transform="matrix(1 0 0 1 468.9854 181.0122)" class="st0 st9">information and is </text>
<text transform="matrix(1 0 0 1 468.3926 190.0122)" class="st0 st9">being furnished to </text>
<text transform="matrix(1 0 0 1 459.5049 199.0122)" class="st0 st9">the Internal Revenue </text>
<text transform="matrix(1 0 0 1 468.8574 208.0122)" class="st0 st9">Service. If you are </text>
<text transform="matrix(1 0 0 1 475.0732 217.0122)" class="st0 st9">required to file a </text>
<text transform="matrix(1 0 0 1 462.1768 226.0122)" class="st0 st9">return, a negligence </text>
<text transform="matrix(1 0 0 1 476.6973 235.0122)" class="st0 st9">penalty or other </text>
<text transform="matrix(1 0 0 1 474.0166 244.0122)" class="st0 st9">sanction may be </text>
<text transform="matrix(1 0 0 1 469.1289 253.0122)" class="st0 st9">imposed on you if </text>
<text transform="matrix(1 0 0 1 483.8008 262.0122)" class="st0 st9">this income is </text>
<text transform="matrix(1 0 0 1 462.7686 271.0122)" class="st0 st9">taxable and the IRS </text>
<text transform="matrix(1 0 0 1 470.6094 280.0122)" class="st0 st9">determines that it </text>
<text transform="matrix(1 0 0 1 486.4648 289.0122)" class="st0 st9">has not been </text>
<text transform="matrix(1 0 0 1 500.2568 298.0122)" class="st0 st9">reported.</text>
<line class="st8" x1="352.6" y1="17" x2="425.3" y2="17"/>
<line class="st2" x1="353" y1="16.5" x2="353" y2="29.2"/>
<text transform="matrix(1 0 0 1 356.5098 24.5571)" class="st0 st3">OMB No. 1545-0115</text>
<rect x="201.8" y="6" class="st10" width="10" height="10"/>
<text transform="matrix(1 0 0 1 216.2002 14.1401)" class="st0 st1">CORRECTED (if checked)</text>
<line class="st8" x1="6.9" y1="17" x2="252.6" y2="17"/>
<line class="st2" x1="6.9" y1="113" x2="252.6" y2="113"/>
<line class="st8" x1="7.4" y1="16.5" x2="7.4" y2="113.4"/>
<text transform="matrix(1 0 0 1 11.3999 24.998)" class="st0 st3">PAYER’S name, street address, city or town, state or province, country, ZIP </text>
<text transform="matrix(1 0 0 1 11.3999 33.3979)" class="st0 st3">or foreign postal code, and telephone no.</text>
<line class="st2" x1="6.9" y1="161" x2="130.2" y2="161"/>
<line class="st2" x1="129.8" y1="112.8" x2="129.8" y2="161.4"/>
<line class="st8" x1="7.4" y1="112.8" x2="7.4" y2="161.4"/>
<text transform="matrix(1 0 0 1.0309 11.3999 120.999)" class="st0 st11">PAYER’S federal identification number</text>
<line class="st2" x1="129.4" y1="161" x2="252.6" y2="161"/>
<line class="st2" x1="252.2" y1="112.8" x2="252.2" y2="161.4"/>
<line class="st2" x1="129.8" y1="112.8" x2="129.8" y2="161.4"/>
<text transform="matrix(1 0 0 1 133.7998 120.999)" class="st0 st3">RECIPIENT’S identification number</text>
<line class="st8" x1="7.4" y1="160.5" x2="7.4" y2="197.4"/>
<text transform="matrix(1 0 0 1 11.3999 168.998)" class="st0 st3">RECIPIENT’S name</text>
<line class="st8" x1="7.4" y1="196.5" x2="7.4" y2="233.4"/>
<text transform="matrix(1 0 0 1 11.3999 204.998)" class="st0 st3">Street address (including apt. no.)</text>
<line class="st2" x1="6.9" y1="269" x2="252.6" y2="269"/>
<line class="st8" x1="7.4" y1="232.5" x2="7.4" y2="269.4"/>
<text transform="matrix(1 0 0 1 11.3999 240.998)" class="st0 st3">City or town, state or province, country, and ZIP or foreign postal code</text>
<line class="st8" x1="7.4" y1="268.8" x2="7.4" y2="305.4"/>
<text transform="matrix(1 0 0 1 11.3999 276.998)" class="st0 st3">Account number (see instructions)</text>
<line class="st2" x1="209" y1="268.8" x2="209" y2="305.4"/>
<line class="st2" x1="165.8" y1="268.8" x2="165.8" y2="305.4"/>
<text transform="matrix(1 0 0 1 168.7998 276.998)" class="st0 st3">FATCA filing </text>
<text transform="matrix(1 0 0 1 168.7998 285.3979)" class="st0 st3">requirement</text>
<rect x="184.2" y="291" class="st10" width="8" height="8"/>
<line class="st8" x1="251.8" y1="17" x2="353.3" y2="17"/>
<line class="st2" x1="252.2" y1="16.5" x2="252.2" y2="41.3"/>
<text transform="matrix(1 0 0 1 258.2002 24.998)" class="st0 st3">1 </text>
<text transform="matrix(1 0 0 1 264.0381 24.998)" class="st0 st3">Rents</text>
<line class="st2" x1="251.8" y1="53" x2="353.3" y2="53"/>
<line class="st2" x1="252.2" y1="40.8" x2="252.2" y2="53.4"/>
<text transform="matrix(1 0 0 1 256.6201 50.1401)" class="st0 st1">$</text>
<line class="st2" x1="252.2" y1="52.8" x2="252.2" y2="77.3"/>
<text transform="matrix(1 0 0 1 258.2002 60.998)" class="st0 st3">2 </text>
<text transform="matrix(1 0 0 1 264.0381 60.998)" class="st0 st3">Royalties</text>
<line class="st2" x1="251.8" y1="89" x2="353.3" y2="89"/>
<line class="st2" x1="252.2" y1="76.8" x2="252.2" y2="89.4"/>
<text transform="matrix(1 0 0 1 256.6201 86.1401)" class="st0 st1">$</text>
<line class="st2" x1="252.2" y1="88.8" x2="252.2" y2="101.2"/>
<text transform="matrix(1 0 0 1 258.2002 96.998)" class="st0 st3">3 </text>
<text transform="matrix(1 0 0 1 264.0381 96.998)" class="st0 st3">Other income</text>
<line class="st2" x1="251.8" y1="113" x2="353.3" y2="113"/>
<line class="st2" x1="252.2" y1="100.7" x2="252.2" y2="113.4"/>
<text transform="matrix(1 0 0 1 256.6201 110.1382)" class="st0 st1">$</text>
<line class="st12" x1="352" y1="89" x2="454.8" y2="89"/>
<line class="st12" x1="453.8" y1="88" x2="453.8" y2="101.2"/>
<line class="st12" x1="353" y1="88" x2="353" y2="101.2"/>
<text transform="matrix(1 0 0 1 359 96.998)" class="st0 st3">4 </text>
<text transform="matrix(1 0 0 1.0309 364.8379 96.998)" class="st0 st11">Federal income tax withheld</text>
<line class="st12" x1="352" y1="113" x2="454.8" y2="113"/>
<line class="st12" x1="453.8" y1="100.7" x2="453.8" y2="114"/>
<line class="st12" x1="353" y1="100.7" x2="353" y2="114"/>
<text transform="matrix(1 0 0 1 357.4199 110.1382)" class="st0 st1">$</text>
<line class="st2" x1="252.2" y1="112.8" x2="252.2" y2="149.3"/>
<text transform="matrix(1 0 0 1 258.2002 120.999)" class="st0 st3">5 </text>
<text transform="matrix(1 0 0 1 264.0381 120.999)" class="st0 st3">Fishing boat proceeds</text>
<line class="st2" x1="251.8" y1="161" x2="353.3" y2="161"/>
<line class="st2" x1="252.2" y1="148.8" x2="252.2" y2="161.4"/>
<text transform="matrix(1 0 0 1 256.6201 158.1401)" class="st0 st1">$</text>
<line class="st2" x1="353" y1="112.8" x2="353" y2="149.3"/>
<text transform="matrix(1 0 0 1 359 120.999)" class="st0 st3">6 </text>
<text transform="matrix(1 0 0 1.25 364.8379 120.999)" class="st0 st13">Medical and health care payments</text>
<line class="st2" x1="352.6" y1="161" x2="454" y2="161"/>
<line class="st2" x1="353" y1="148.8" x2="353" y2="161.4"/>
<text transform="matrix(1 0 0 1 357.4199 158.1401)" class="st0 st1">$</text>
<line class="st2" x1="252.2" y1="160.8" x2="252.2" y2="197.3"/>
<text transform="matrix(1 0 0 1 258.2002 168.998)" class="st0 st3">7 </text>
<text transform="matrix(1 0 0 1.0417 264.0381 168.998)" class="st0 st14">Nonemployee compensation</text>
<line class="st2" x1="251.8" y1="209" x2="353.3" y2="209"/>
<line class="st2" x1="252.2" y1="196.8" x2="252.2" y2="209.4"/>
<text transform="matrix(1 0 0 1 256.6201 206.1392)" class="st0 st1">$</text>
<line class="st2" x1="353" y1="160.8" x2="353" y2="197.3"/>
<text transform="matrix(1 0 0 1 359 168.998)" class="st0 st3">8 </text>
<text transform="matrix(1 0 0 1.0526 364.8379 168.998)" class="st0 st15">Substitute payments in lieu of </text>
<text transform="matrix(1 0 0 1.0526 364.499 177.3979)" class="st0 st15">dividends or interest</text>
<line class="st2" x1="352.6" y1="209" x2="454" y2="209"/>
<line class="st2" x1="353" y1="196.8" x2="353" y2="209.4"/>
<text transform="matrix(1 0 0 1 357.4199 206.1392)" class="st0 st1">$</text>
<line class="st2" x1="251.8" y1="245" x2="353.3" y2="245"/>
<line class="st2" x1="252.2" y1="208.7" x2="252.2" y2="245.4"/>
<text transform="matrix(1 0 0 1 258.2002 216.9971)" class="st0 st3">9 </text>
<text transform="matrix(1 0 0 1.0526 264.0381 216.9971)" class="st0 st15">Payer made direct sales of </text>
<text transform="matrix(1 0 0 1.0526 263.6992 225.397)" class="st0 st15">$5,000 or more of consumer </text>
<text transform="matrix(1 0 0 1.0526 263.6992 233.7969)" class="st0 st15">products to a buyer </text>
<text transform="matrix(1 0 0 1.0526 263.6992 242.4839)" class="st0 st15">(recipient) for resale </text>
<text transform="matrix(1 0 0 1.0526 324.0322 240.9839)" class="st0 st16">▶</text>
<rect x="340.6" y="234" class="st10" width="8" height="8"/>
<line class="st2" x1="353" y1="208.7" x2="353" y2="233.3"/>
<text transform="matrix(1 0 0 1 355 216.9971)" class="st0 st3">10 </text>
<text transform="matrix(1 0 0 1 364.7305 216.9971)" class="st0 st3">Crop insurance proceeds</text>
<line class="st2" x1="352.6" y1="245" x2="454" y2="245"/>
<line class="st2" x1="353" y1="232.8" x2="353" y2="245.4"/>
<text transform="matrix(1 0 0 1 357.4199 242.1392)" class="st0 st1">$</text>
<line class="st2" x1="252.2" y1="244.7" x2="252.2" y2="257.2"/>
<text transform="matrix(1 0 0 1 254.2002 252.9971)" class="st0 st3">11</text>
<line class="st2" x1="251.8" y1="269" x2="353.3" y2="269"/>
<line class="st2" x1="252.2" y1="256.8" x2="252.2" y2="269.4"/>
<line class="st2" x1="353" y1="244.7" x2="353" y2="257.2"/>
<text transform="matrix(1 0 0 1 355 252.9971)" class="st0 st3">12 </text>
<line class="st2" x1="352.6" y1="269" x2="454" y2="269"/>
<line class="st2" x1="353" y1="256.8" x2="353" y2="269.4"/>
<line class="st2" x1="251.8" y1="269" x2="353.3" y2="269"/>
<line class="st2" x1="252.2" y1="268.6" x2="252.2" y2="293.3"/>
<text transform="matrix(1 0 0 1 254.2002 276.998)" class="st0 st3">13 </text>
<text transform="matrix(1 0 0 1 263.9297 276.998)" class="st0 st3">Excess golden parachute </text>
<text transform="matrix(1 0 0 1 264.2031 285.3979)" class="st0 st3">payments</text>
<line class="st2" x1="251.8" y1="305" x2="353.3" y2="305"/>
<line class="st2" x1="252.2" y1="292.8" x2="252.2" y2="305.4"/>
<text transform="matrix(1 0 0 1 256.6201 302.1401)" class="st0 st1">$</text>
<line class="st2" x1="353" y1="268.8" x2="353" y2="293.3"/>
<text transform="matrix(1 0 0 1 355 276.998)" class="st0 st3">14 </text>
<text transform="matrix(1 0 0 1 364.7305 276.998)" class="st0 st3">Gross proceeds paid to an </text>
<text transform="matrix(1 0 0 1 365.0029 285.3979)" class="st0 st3">attorney</text>
<line class="st2" x1="352.6" y1="305" x2="454" y2="305"/>
<line class="st2" x1="353" y1="292.8" x2="353" y2="305.4"/>
<text transform="matrix(1 0 0 1 357.4199 302.1401)" class="st0 st1">$</text>
<line class="st2" x1="6.9" y1="305" x2="130.1" y2="305"/>
<line class="st8" x1="7.4" y1="304.6" x2="7.4" y2="329.3"/>
<text transform="matrix(1 0 0 1 9.3999 312.998)" class="st0 st3">15a </text>
<text transform="matrix(1 0 0 1 23.1479 312.998)" class="st0 st3">Section 409A deferrals</text>
<line class="st8" x1="7.4" y1="328.8" x2="7.4" y2="341.3"/>
<text transform="matrix(1 0 0 1 11.8198 338.1401)" class="st0 st1">$</text>
<line class="st2" x1="129.4" y1="305" x2="252.4" y2="305"/>
<line class="st2" x1="129.8" y1="304.6" x2="129.8" y2="329.3"/>
<text transform="matrix(1 0 0 1 131.7998 312.998)" class="st0 st3">15b </text>
<text transform="matrix(1 0 0 1 145.8071 312.998)" class="st0 st3">Section 409A income</text>
<line class="st2" x1="129.8" y1="328.8" x2="129.8" y2="341.3"/>
<text transform="matrix(1 0 0 1 134.2202 338.1401)" class="st0 st1">$</text>
<line class="st2" x1="252.2" y1="304.8" x2="252.2" y2="317.2"/>
<text transform="matrix(1 0 0 1 254.2002 312.998)" class="st0 st3">16 </text>
<text transform="matrix(1 0 0 1 263.9297 312.998)" class="st0 st3">State tax withheld</text>
<line class="st17" x1="251.8" y1="329" x2="353.3" y2="329"/>
<line class="st2" x1="252.2" y1="316.7" x2="252.2" y2="329.2"/>
<text transform="matrix(1 0 0 1 256.6201 326.1382)" class="st0 st1">$</text>
<line class="st2" x1="252.2" y1="328.8" x2="252.2" y2="341.3"/>
<text transform="matrix(1 0 0 1 256.6201 338.1401)" class="st0 st1">$</text>
<line class="st2" x1="353" y1="304.8" x2="353" y2="317.2"/>
<text transform="matrix(1 0 0 1 355 312.998)" class="st0 st3">17 </text>
<text transform="matrix(1 0 0 1 364.7305 312.998)" class="st0 st3">State/Payer’s state no.</text>
<line class="st17" x1="352.6" y1="329" x2="454" y2="329"/>
<line class="st2" x1="353" y1="316.7" x2="353" y2="329.2"/>
<line class="st2" x1="353" y1="328.8" x2="353" y2="341.3"/>
<line class="st2" x1="453.8" y1="304.8" x2="453.8" y2="317.2"/>
<text transform="matrix(1 0 0 1 455.7998 312.998)" class="st0 st3">18 </text>
<text transform="matrix(1 0 0 1 465.5303 312.998)" class="st0 st3">State income</text>
<line class="st17" x1="453.4" y1="329" x2="533.2" y2="329"/>
<line class="st2" x1="453.8" y1="316.7" x2="453.8" y2="329.2"/>
<text transform="matrix(1 0 0 1 458.2197 326.1382)" class="st0 st1">$</text>
<line class="st2" x1="453.8" y1="328.8" x2="453.8" y2="341.3"/>
<text transform="matrix(1 0 0 1 458.2197 338.1401)" class="st0 st1">$</text>
<line class="st8" x1="7.2" y1="341" x2="79.7" y2="341"/>
<text transform="matrix(1 0 0 1 7.3999 350.1392)" class="st0 st3">Form </text>
<text transform="matrix(1 0 0 1 25.6841 350.1392)" class="st0 st1">1099-MISC</text>
<line class="st8" x1="79.2" y1="341" x2="202.1" y2="341"/>
<text transform="matrix(1 0 0 1 100.1572 350.7109)" class="st0 st9">(keep for your records)</text>
<line class="st8" x1="201.6" y1="341" x2="360.4" y2="341"/>
<text transform="matrix(1 0 0 1 238.0972 350.9971)" class="st0 st3">www.irs.gov/form1099misc</text>
</svg>
