<svg xmlns="http://www.w3.org/2000/svg" viewBox="0 0 26 26.44"><defs><style>.cls-1{fill:#fff;}.cls-2{fill:#3a446a;stroke:#3a446a;stroke-linecap:round;stroke-linejoin:round;stroke-width:0.39px;}.cls-3{fill:#fc326c;}</style></defs><title>Asset 62</title><g id="Layer_2" data-name="Layer 2"><g id="Layer_1-2" data-name="Layer 1"><circle class="cls-1" cx="13" cy="13.44" r="13"/><path class="cls-2" d="M9.46,11.41v4.64A1.47,1.47,0,0,1,8,17.51v.41h2.72a2.29,2.29,0,0,0,4.56,0H18v-.41a1.47,1.47,0,0,1-1.46-1.46V11.41a3.54,3.54,0,1,0-7.08,0ZM13,19.59a1.86,1.86,0,0,1-1.85-1.67h3.7A1.86,1.86,0,0,1,13,19.59Zm3.12-8.18v4.64a1.9,1.9,0,0,0,.7,1.46H9.18a1.9,1.9,0,0,0,.7-1.46V11.41a3.12,3.12,0,1,1,6.24,0Z"/><circle class="cls-3" cx="21.07" cy="3.5" r="3.5"/></g></g></svg>