<svg xmlns="http://www.w3.org/2000/svg" viewBox="0 0 26 26"><defs><style>.cls-1{fill:#fff;}.cls-2{fill:#3a446a;stroke:#3a446a;stroke-linecap:round;stroke-linejoin:round;stroke-width:0.39px;}</style></defs><title>Asset 60</title><g id="Layer_2" data-name="Layer 2"><g id="Layer_1-2" data-name="Layer 1"><circle class="cls-1" cx="13" cy="13" r="13"/><path class="cls-2" d="M9.46,11v4.64A1.46,1.46,0,0,1,8,17.07v.42h2.72a2.29,2.29,0,0,0,4.56,0H18v-.42a1.46,1.46,0,0,1-1.46-1.46V11a3.54,3.54,0,1,0-7.08,0ZM13,19.15a1.86,1.86,0,0,1-1.85-1.66h3.7A1.86,1.86,0,0,1,13,19.15ZM16.12,11v4.64a1.89,1.89,0,0,0,.7,1.46H9.18a1.89,1.89,0,0,0,.7-1.46V11a3.12,3.12,0,1,1,6.24,0Z"/></g></g></svg>