<?xml version="1.0" encoding="UTF-8"?>
<svg width="306px" height="269px" viewBox="0 0 306 269" version="1.1" xmlns="http://www.w3.org/2000/svg" xmlns:xlink="http://www.w3.org/1999/xlink">
    <!-- Generator: sketchtool 51.2 (57519) - http://www.bohemiancoding.com/sketch -->
    <title>715AC511-A54C-4EBF-B433-D77018BA7394</title>
    <desc>Created with sketchtool.</desc>
    <defs></defs>
    <g id="instar-web" stroke="none" stroke-width="1" fill="none" fill-rule="evenodd">
        <g id="Web-App-Success-Pop-Up" transform="translate(-567.000000, -309.000000)" fill-rule="nonzero">
            <g id="pop-up" transform="translate(461.000000, 250.000000)">
                <g id="Group-4" transform="translate(106.000000, 59.000000)">
                    <rect id="Rectangle" stroke="#75E452" stroke-width="4" transform="translate(291.500000, 100.500000) rotate(-45.000000) translate(-291.500000, -100.500000) " x="284" y="93" width="15" height="15"></rect>
                    <rect id="Rectangle-Copy" fill="#D384EC" transform="translate(36.435029, 172.435029) rotate(-45.000000) translate(-36.435029, -172.435029) " x="26.9350288" y="162.935029" width="19" height="19"></rect>
                    <rect id="Rectangle-Copy-2" stroke="#EEBD6A" stroke-width="4" transform="translate(137.500000, 9.500000) rotate(-90.000000) translate(-137.500000, -9.500000) " x="130" y="2" width="15" height="15"></rect>
                    <polygon id="Triangle" fill="#7AC1FF" points="297.5 205 306 219.315789 289 219.315789"></polygon>
                    <polygon id="Triangle-Copy-2" fill="#FFAD7A" points="220 76.5 234.315789 68 234.315789 85"></polygon>
                    <polygon id="Triangle-Copy" fill="#66EFC8" points="8.5 41.3157895 0 27 17 27"></polygon>
                    <circle id="Oval-2" stroke="#EB4A4A" stroke-width="2" cx="236.5" cy="29.5" r="11.5"></circle>
                    <circle id="Oval-2-Copy" stroke="#7C5FE8" stroke-width="2" cx="30" cy="101" r="6"></circle>
                    <path d="M177,21.0833333 C179,19.4166667 180.666667,18.75 182,19.0833333 C183.333333,19.4166667 184.166667,20.4166667 184.5,22.0833333 C184.833333,23.3142136 185.5,23.9808802 186.5,24.0833333 C187.5,24.1857864 188.5,23.8524531 189.5,23.0833333 C191.833333,22.1230159 193.333333,22.2162698 194,23.3630952 C194.666667,24.5099206 195,25.75 195,27.0833333 C195.666667,29.6944444 197.5,30.1666667 200.5,28.5" id="Path-3" stroke="#52BFFF" stroke-width="2"></path>
                    <path d="M60.2938945,32.9330135 C62.2938945,31.2663468 63.9605611,30.5996802 65.2938945,30.9330135 C66.6272278,31.2663468 67.4605611,32.2663468 67.7938945,33.9330135 C68.1272278,35.1638937 68.7938945,35.8305604 69.7938945,35.9330135 C70.7938945,36.0354666 71.7938945,35.7021333 72.7938945,34.9330135 C75.1272278,33.972696 76.6272278,34.06595 77.2938945,35.2127754 C77.9605611,36.3596008 78.2938945,37.5996802 78.2938945,38.9330135 C78.9605611,41.5441246 80.7938945,42.0163468 83.7938945,40.3496802" id="Path-3-Copy" stroke="#D384EC" stroke-width="2" transform="translate(72.043894, 36.086693) rotate(-86.000000) translate(-72.043894, -36.086693) "></path>
                    <path d="M116.293894,252.933013 C118.293894,251.266347 119.960561,250.59968 121.293894,250.933013 C122.627228,251.266347 123.460561,252.266347 123.793894,253.933013 C124.127228,255.163894 124.793894,255.83056 125.793894,255.933013 C126.793894,256.035467 127.793894,255.702133 128.793894,254.933013 C131.127228,253.972696 132.627228,254.06595 133.293894,255.212775 C133.960561,256.359601 134.293894,257.59968 134.293894,258.933013 C134.960561,261.544125 136.793894,262.016347 139.793894,260.34968" id="Path-3-Copy-2" stroke="#EB4A4A" stroke-width="2" transform="translate(128.043894, 256.086693) rotate(-86.000000) translate(-128.043894, -256.086693) "></path>
                </g>
            </g>
        </g>
    </g>
</svg>