<?xml version="1.0" encoding="UTF-8"?>
<svg width="75px" height="75px" viewBox="0 0 75 75" version="1.1" xmlns="http://www.w3.org/2000/svg" xmlns:xlink="http://www.w3.org/1999/xlink">
    <!-- Generator: sketchtool 51.2 (57519) - http://www.bohemiancoding.com/sketch -->
    <title>98D6E63B-9B04-4D54-9299-074CC2C3087F</title>
    <desc>Created with sketchtool.</desc>
    <defs></defs>
    <g id="instar-web" stroke="none" stroke-width="1" fill="none" fill-rule="evenodd">
        <g id="Web-App-KYC-Error" transform="translate(-683.000000, -342.000000)">
            <g id="form" transform="translate(452.000000, 195.000000)">
                <g id="Group-2" transform="translate(0.000000, 71.000000)">
                    <g id="Group-11" transform="translate(235.000000, 80.000000)">
                        <rect id="Rectangle-16" stroke-opacity="0.35" stroke="#E36777" stroke-width="4" fill="#E36777" x="-2" y="-2" width="71" height="71" rx="35.5"></rect>
                        <path d="M33.5,31.5070533 L40.5127038,24.5247256 C41.1841118,23.8250915 42.3015602,23.8250915 42.996444,24.5247256 C43.667852,25.2007233 43.667852,26.3258106 42.996444,27.0002326 L35.7365565,34 L42.996444,40.9745554 C43.667852,41.6741894 43.667852,42.8008524 42.996444,43.4752744 C42.3015602,44.1749085 41.1825468,44.1749085 40.5127038,43.4752744 L33.5,36.4942822 L26.4872962,43.4752744 C25.8174532,44.1749085 24.6984398,44.1749085 24.003556,43.4752744 C23.332148,42.8008524 23.332148,41.6741894 24.003556,40.9745554 L31.2634435,34 L24.003556,27.0002326 C23.332148,26.3258106 23.332148,25.2007233 24.003556,24.5247256 C24.6984398,23.8250915 25.8158882,23.8250915 26.4872962,24.5247256 L33.5,31.5070533 Z" id="Combined-Shape" fill="#FFFFFF"></path>
                    </g>
                </g>
            </g>
        </g>
    </g>
</svg>