<svg xmlns="http://www.w3.org/2000/svg" viewBox="0 0 12.84 12.53"><defs><style>.cls-1{fill:#69759b;}.cls-2{fill:none;stroke:#69759b;stroke-miterlimit:10;stroke-width:0.75px;}</style></defs><title>Asset 4</title><g id="Layer_2" data-name="Layer 2"><g id="Layer_1-2" data-name="Layer 1"><path class="cls-1" d="M12.78,2.08l-2-2A.2.2,0,0,0,10.62,0H2.53a.2.2,0,0,0-.2.2V12.33a.2.2,0,0,0,.2.2h10.1a.2.2,0,0,0,.2-.2V2.22a.2.2,0,0,0-.06-.14m-2-1.39L12.15,2H10.82Zm1.62,11.44H2.74V.4h7.68V2.22a.2.2,0,0,0,.2.2h1.82Z"/><line class="cls-2" y1="7.27" x2="8.77" y2="7.27"/><polygon class="cls-1" points="6.29 10.33 5.78 9.78 8.49 7.27 5.78 4.75 6.29 4.2 9.59 7.27 6.29 10.33"/></g></g></svg>