<?xml version="1.0" encoding="UTF-8"?>
<svg width="25px" height="25px" viewBox="0 0 25 25" version="1.1" xmlns="http://www.w3.org/2000/svg" xmlns:xlink="http://www.w3.org/1999/xlink">
    <!-- Generator: sketchtool 51.2 (57519) - http://www.bohemiancoding.com/sketch -->
    <title>DD371897-52B3-4E8F-AC6D-1E181B3DFD12</title>
    <desc>Created with sketchtool.</desc>
    <defs></defs>
    <g id="instar-web" stroke="none" stroke-width="1" fill="none" fill-rule="evenodd">
        <g id="Web-App-Wallet-Transfer-Pop-Up" transform="translate(-922.000000, -476.000000)" fill="#8C9FBF" fill-rule="nonzero">
            <g id="Group-9" transform="translate(443.000000, 243.000000)">
                <g id="to" transform="translate(32.000000, 215.000000)">
                    <g id="Group" transform="translate(447.000000, 18.000000)">
                        <path d="M23.8789238,25 L12.5,25 C11.8807175,25 11.3789238,24.4976431 11.3789238,23.8776655 L11.3789238,13.6083053 L1.12107623,13.6083053 C0.501793722,13.6083053 0,13.1059484 0,12.4859708 C0,11.8659933 0.501793722,11.3636364 1.12107623,11.3636364 L12.5,11.3636364 C13.1192825,11.3636364 13.6210762,11.8659933 13.6210762,12.4859708 L13.6210762,22.7553311 L23.8789238,22.7553311 C24.4982063,22.7553311 25,23.257688 25,23.8776655 C25,24.4976431 24.4982063,25 23.8789238,25 Z M23.9177489,19.3181818 C23.3199134,19.3181818 22.8354978,18.7945856 22.8354978,18.1483957 L22.8354978,13.7032086 L19.2099567,13.7032086 L19.2099567,18.1483957 C19.2099567,18.7945856 18.7255411,19.3181818 18.1277056,19.3181818 C17.5298701,19.3181818 17.0454545,18.7945856 17.0454545,18.1483957 L17.0454545,12.5334225 C17.0454545,11.8872326 17.5298701,11.3636364 18.1277056,11.3636364 L23.9177489,11.3636364 C24.5155844,11.3636364 25,11.8872326 25,12.5334225 L25,18.1483957 C25,18.7945856 24.5155844,19.3181818 23.9177489,19.3181818 Z M6.87229437,7.95454545 L1.08225108,7.95454545 C0.484415584,7.95454545 0,7.47012987 0,6.87229437 L0,1.08225108 C0,0.484415584 0.484415584,0 1.08225108,0 L6.87229437,0 C7.47012987,0 7.95454545,0.484415584 7.95454545,1.08225108 L7.95454545,6.87229437 C7.95454545,7.47012987 7.47012987,7.95454545 6.87229437,7.95454545 Z M2.16450216,5.79004329 L5.79004329,5.79004329 L5.79004329,2.16450216 L2.16450216,2.16450216 L2.16450216,5.79004329 Z M23.9177489,7.95454545 L18.1277056,7.95454545 C17.5298701,7.95454545 17.0454545,7.47012987 17.0454545,6.87229437 L17.0454545,1.08225108 C17.0454545,0.484415584 17.5298701,0 18.1277056,0 L23.9177489,0 C24.5155844,0 25,0.484415584 25,1.08225108 L25,6.87229437 C25,7.47012987 24.5155844,7.95454545 23.9177489,7.95454545 Z M19.2099567,5.79004329 L22.8354978,5.79004329 L22.8354978,2.16450216 L19.2099567,2.16450216 L19.2099567,5.79004329 Z M6.87229437,25 L1.08225108,25 C0.484415584,25 0,24.5155844 0,23.9177489 L0,18.1277056 C0,17.5298701 0.484415584,17.0454545 1.08225108,17.0454545 L6.87229437,17.0454545 C7.47012987,17.0454545 7.95454545,17.5298701 7.95454545,18.1277056 L7.95454545,23.9177489 C7.95454545,24.5155844 7.47012987,25 6.87229437,25 Z M2.16450216,22.8354978 L5.79004329,22.8354978 L5.79004329,19.2099567 L2.16450216,19.2099567 L2.16450216,22.8354978 Z M12.5,7.95454545 C11.8722727,7.95454545 11.3636364,7.47012987 11.3636364,6.87229437 L11.3636364,1.08225108 C11.3636364,0.484415584 11.8722727,0 12.5,0 C13.1277273,0 13.6363636,0.484415584 13.6363636,1.08225108 L13.6363636,6.87229437 C13.6363636,7.47012987 13.1277273,7.95454545 12.5,7.95454545 Z" id="Combined-Shape"></path>
                    </g>
                </g>
            </g>
        </g>
    </g>
</svg>