<svg xmlns="http://www.w3.org/2000/svg" xmlns:xlink="http://www.w3.org/1999/xlink" viewBox="0 0 28.25 28.25"><defs><style>.cls-1{fill:url(#linear-gradient);}.cls-2{fill:#fff;}</style><linearGradient id="linear-gradient" x1="-16.27" y1="36" x2="55.64" y2="-15.75" gradientUnits="userSpaceOnUse"><stop offset="0" stop-color="#fc326c"/><stop offset="0.19" stop-color="#e84f7f"/><stop offset="0.56" stop-color="#c682a1"/><stop offset="0.84" stop-color="#b0a1b6"/><stop offset="1" stop-color="#a8adbe"/></linearGradient></defs><title>Asset 65</title><g id="Layer_2" data-name="Layer 2"><g id="Layer_1-2" data-name="Layer 1"><rect class="cls-1" width="28.25" height="28.25" rx="14.13" ry="14.13"/><path class="cls-2" d="M16.79,20.42a.31.31,0,0,1-.22-.09.34.34,0,0,1-.1-.23.37.37,0,0,1,.1-.23.35.35,0,0,1,.45,0,.35.35,0,0,1,.09.23.33.33,0,0,1-.09.23A.32.32,0,0,1,16.79,20.42Z"/><path class="cls-2" d="M14.13,22.11a.29.29,0,0,1-.16,0,.32.32,0,0,1-.16-.28V17.07A.32.32,0,0,1,14,16.8l4.69-3a.31.31,0,0,1,.32,0,.32.32,0,0,1,.17.28v4.72a.31.31,0,0,1-.15.26l-1,.66a.32.32,0,0,1-.44-.1.31.31,0,0,1,.1-.44l.88-.56v-4l-4,2.56v4l1.19-.76A.32.32,0,0,1,16,21L14.3,22.06A.37.37,0,0,1,14.13,22.11Z"/><path class="cls-2" d="M14.13,22.11a.41.41,0,0,1-.18-.05l-4.68-3a.3.3,0,0,1-.14-.26V14.11a.31.31,0,0,1,.16-.28.33.33,0,0,1,.33,0l4.68,3a.33.33,0,0,1,.15.27v4.72a.33.33,0,0,1-.17.28A.28.28,0,0,1,14.13,22.11ZM9.77,18.65l4,2.56v-4l-4-2.56Z"/><path class="cls-2" d="M9.45,14.43a.35.35,0,0,1-.28-.15.32.32,0,0,1,.11-.44l3.26-2a.32.32,0,1,1,.34.54l-3.27,2A.33.33,0,0,1,9.45,14.43Z"/><path class="cls-2" d="M18.81,14.43a.34.34,0,0,1-.17,0l-3.41-2a.32.32,0,0,1-.11-.44.31.31,0,0,1,.43-.11l3.42,2a.32.32,0,0,1,.11.44A.32.32,0,0,1,18.81,14.43Z"/><path class="cls-2" d="M15.39,14.77a.32.32,0,0,1-.32-.32V10.61a.32.32,0,0,1,.32-.32h1L14.13,7l-2.27,3.28h1a.32.32,0,0,1,.32.32v3.84a.32.32,0,0,1-.64,0V10.93H11.25a.32.32,0,0,1-.28-.17.3.3,0,0,1,0-.33l2.87-4.16a.34.34,0,0,1,.53,0l2.88,4.16a.35.35,0,0,1,0,.33.34.34,0,0,1-.29.17H15.71v3.52A.32.32,0,0,1,15.39,14.77Z"/></g></g></svg>