<svg xmlns="http://www.w3.org/2000/svg" viewBox="0 0 128.45 128.45"><defs><style>.cls-1{fill:#fff;}.cls-2,.cls-3{fill:none;stroke:#3a446a;stroke-miterlimit:10;}.cls-3{stroke-width:1.87px;}.cls-4{fill:#3a446a;}</style></defs><title>Asset 3</title><g id="Layer_2" data-name="Layer 2"><g id="Layer_1-2" data-name="Layer 1"><rect class="cls-1" width="128.45" height="128.45"/><polyline class="cls-2" points="43.12 14.31 14.31 14.31 14.31 43.12"/><polyline class="cls-2" points="114.14 43.12 114.14 14.31 85.33 14.31"/><polyline class="cls-2" points="14.31 85.33 14.31 114.14 43.12 114.14"/><polyline class="cls-2" points="85.33 114.14 114.14 114.14 114.14 85.33"/><rect class="cls-3" x="33.42" y="76.93" width="19.04" height="19.04"/><rect class="cls-4" x="38.49" y="82" width="8.91" height="8.91"/><rect class="cls-3" x="33.42" y="35.96" width="19.04" height="19.04"/><rect class="cls-4" x="38.49" y="41.02" width="8.91" height="8.91"/><rect class="cls-3" x="75.99" y="35.96" width="19.04" height="19.04"/><rect class="cls-4" x="81.05" y="41.02" width="8.91" height="8.91"/><rect class="cls-4" x="57.25" y="34.34" width="3.4" height="3.4"/><rect class="cls-4" x="67.56" y="34.34" width="3.4" height="3.4"/><rect class="cls-4" x="62.4" y="34.34" width="3.4" height="3.4"/><rect class="cls-4" x="62.4" y="39.32" width="3.4" height="3.4"/><rect class="cls-4" x="57.25" y="44.31" width="3.4" height="3.4"/><rect class="cls-4" x="67.56" y="44.31" width="3.4" height="3.4"/><rect class="cls-4" x="62.4" y="44.31" width="3.4" height="3.4"/><rect class="cls-4" x="57.25" y="49.29" width="3.4" height="3.4"/><rect class="cls-4" x="67.56" y="49.29" width="3.4" height="3.4"/><rect class="cls-4" x="67.56" y="54.27" width="3.4" height="3.4"/><rect class="cls-4" x="62.4" y="54.27" width="3.4" height="3.4"/><rect class="cls-4" x="31.86" y="64.27" width="3.4" height="3.4"/><rect class="cls-4" x="36.97" y="69.46" width="3.4" height="3.4"/><rect class="cls-4" x="36.97" y="59.07" width="3.4" height="3.4"/><rect class="cls-4" x="36.97" y="64.27" width="3.4" height="3.4"/><rect class="cls-4" x="42.08" y="69.46" width="3.4" height="3.4"/><rect class="cls-4" x="42.08" y="59.07" width="3.4" height="3.4"/><rect class="cls-4" x="47.19" y="69.46" width="3.4" height="3.4"/><rect class="cls-4" x="47.19" y="59.07" width="3.4" height="3.4"/><rect class="cls-4" x="47.19" y="64.27" width="3.4" height="3.4"/><rect class="cls-4" x="52.3" y="69.46" width="3.4" height="3.4"/><rect class="cls-4" x="52.3" y="59.07" width="3.4" height="3.4"/><rect class="cls-4" x="52.3" y="64.27" width="3.4" height="3.4"/><rect class="cls-4" x="72.67" y="69.09" width="3.4" height="3.4"/><rect class="cls-4" x="72.67" y="59.07" width="3.4" height="3.4"/><rect class="cls-4" x="77.8" y="69.09" width="3.4" height="3.4"/><rect class="cls-4" x="77.8" y="59.07" width="3.4" height="3.4"/><rect class="cls-4" x="77.8" y="64.08" width="3.4" height="3.4"/><rect class="cls-4" x="82.93" y="69.09" width="3.4" height="3.4"/><rect class="cls-4" x="82.93" y="59.07" width="3.4" height="3.4"/><rect class="cls-4" x="88.06" y="69.09" width="3.4" height="3.4"/><rect class="cls-4" x="88.06" y="59.07" width="3.4" height="3.4"/><rect class="cls-4" x="88.06" y="64.08" width="3.4" height="3.4"/><rect class="cls-4" x="93.19" y="69.09" width="3.4" height="3.4"/><rect class="cls-4" x="93.19" y="59.07" width="3.4" height="3.4"/><rect class="cls-4" x="93.19" y="64.08" width="3.4" height="3.4"/><rect class="cls-4" x="57.25" y="69.22" width="3.4" height="3.4"/><rect class="cls-4" x="57.25" y="59.26" width="3.4" height="3.4"/><rect class="cls-4" x="62.4" y="69.22" width="3.4" height="3.4"/><rect class="cls-4" x="62.4" y="59.26" width="3.4" height="3.4"/><rect class="cls-4" x="62.4" y="64.24" width="3.4" height="3.4"/><rect class="cls-4" x="67.56" y="69.22" width="3.4" height="3.4"/><rect class="cls-4" x="67.56" y="64.24" width="3.4" height="3.4"/><rect class="cls-4" x="57.25" y="94.14" width="3.4" height="3.4"/><rect class="cls-4" x="67.56" y="94.14" width="3.4" height="3.4"/><rect class="cls-4" x="62.4" y="94.14" width="3.4" height="3.4"/><rect class="cls-4" x="82.93" y="94.14" width="3.4" height="3.4"/><rect class="cls-4" x="88.06" y="94.14" width="3.4" height="3.4"/><rect class="cls-4" x="67.56" y="89.16" width="3.4" height="3.4"/><rect class="cls-4" x="62.4" y="89.16" width="3.4" height="3.4"/><rect class="cls-4" x="72.67" y="89.13" width="3.4" height="3.4"/><rect class="cls-4" x="77.8" y="89.13" width="3.4" height="3.4"/><rect class="cls-4" x="88.06" y="89.13" width="3.4" height="3.4"/><rect class="cls-4" x="93.19" y="89.13" width="3.4" height="3.4"/><rect class="cls-4" x="57.25" y="84.17" width="3.4" height="3.4"/><rect class="cls-4" x="67.56" y="84.17" width="3.4" height="3.4"/><rect class="cls-4" x="77.8" y="84.12" width="3.4" height="3.4"/><rect class="cls-4" x="82.93" y="84.12" width="3.4" height="3.4"/><rect class="cls-4" x="88.06" y="84.12" width="3.4" height="3.4"/><rect class="cls-4" x="57.25" y="79.19" width="3.4" height="3.4"/><rect class="cls-4" x="67.56" y="79.19" width="3.4" height="3.4"/><rect class="cls-4" x="62.4" y="79.19" width="3.4" height="3.4"/><rect class="cls-4" x="72.67" y="79.11" width="3.4" height="3.4"/><rect class="cls-4" x="77.8" y="79.11" width="3.4" height="3.4"/><rect class="cls-4" x="82.93" y="79.11" width="3.4" height="3.4"/><rect class="cls-4" x="93.19" y="79.11" width="3.4" height="3.4"/><rect class="cls-4" x="57.25" y="74.21" width="3.4" height="3.4"/><rect class="cls-4" x="67.56" y="74.21" width="3.4" height="3.4"/><rect class="cls-4" x="77.8" y="74.1" width="3.4" height="3.4"/><rect class="cls-4" x="82.93" y="74.1" width="3.4" height="3.4"/><rect class="cls-4" x="88.06" y="74.1" width="3.4" height="3.4"/><rect class="cls-4" x="93.19" y="74.1" width="3.4" height="3.4"/></g></g></svg>