<svg xmlns="http://www.w3.org/2000/svg" viewBox="0 0 11 11"><defs><style>.cls-1{fill:#fff;}</style></defs><title>Asset 64</title><g id="Layer_2" data-name="Layer 2"><g id="Layer_1-2" data-name="Layer 1"><path class="cls-1" d="M2.37,9.81a.27.27,0,0,1-.15-.05A5.7,5.7,0,0,1,1.7,9.3,5.37,5.37,0,0,1,9.3,1.7.24.24,0,0,1,9.3,2,.23.23,0,0,1,9,2,4.9,4.9,0,0,0,2,9a6.27,6.27,0,0,0,.48.42.24.24,0,0,1,.05.34A.25.25,0,0,1,2.37,9.81Z"/><path class="cls-1" d="M2.37,9.94a.35.35,0,0,1-.22-.08,5.06,5.06,0,0,1-.54-.47A5.5,5.5,0,0,1,9.39,1.61a.36.36,0,0,1-.52.51A4.77,4.77,0,0,0,2.12,8.87a4.45,4.45,0,0,0,.47.41.35.35,0,0,1,.14.24.41.41,0,0,1-.07.27A.4.4,0,0,1,2.37,9.94ZM5.5.25a5.25,5.25,0,0,0-3.71,9,3.73,3.73,0,0,0,.51.45.11.11,0,0,0,.16,0,.11.11,0,0,0,0-.08.12.12,0,0,0,0-.08A4,4,0,0,1,2,9.05,5,5,0,0,1,9.05,2a.12.12,0,0,0,.16,0,.1.1,0,0,0,0-.16A5.22,5.22,0,0,0,5.5.25Z"/><path class="cls-1" d="M3.24,10.35a.23.23,0,0,1-.17-.07A.23.23,0,0,1,3,10.12.24.24,0,0,1,3.07,10a.25.25,0,0,1,.34,0,.21.21,0,0,1,.07.17.2.2,0,0,1-.07.16A.21.21,0,0,1,3.24,10.35Z"/><path class="cls-1" d="M3.24,10.48a.39.39,0,0,1-.25-.1.4.4,0,0,1-.11-.26.37.37,0,0,1,.73,0,.36.36,0,0,1-.11.25A.36.36,0,0,1,3.24,10.48Zm0-.48a.11.11,0,0,0-.09,0,.11.11,0,0,0,0,.08.09.09,0,0,0,0,.08.12.12,0,0,0,.16,0,.08.08,0,0,0,0-.07.15.15,0,0,0,0-.09A.09.09,0,0,0,3.25,10Z"/><path class="cls-1" d="M5.51,10.88a5.16,5.16,0,0,1-1.28-.16.24.24,0,0,1-.17-.28.24.24,0,0,1,.29-.18,4.9,4.9,0,0,0,6-5,.24.24,0,1,1,.48,0,5.39,5.39,0,0,1-1.57,4A5.33,5.33,0,0,1,5.51,10.88Z"/><path class="cls-1" d="M5.51,11h0a5.92,5.92,0,0,1-1.31-.15.37.37,0,0,1-.26-.44.35.35,0,0,1,.44-.27A4.73,4.73,0,0,0,8.87,8.87a4.8,4.8,0,0,0,1.4-3.56A.38.38,0,0,1,10.36,5a.37.37,0,0,1,.63.24A5.49,5.49,0,0,1,5.51,11Zm-1.22-.62a.11.11,0,0,0-.11.09.1.1,0,0,0,.08.13,5.28,5.28,0,0,0,1.25.15,5.25,5.25,0,0,0,5.23-5.46c0-.07-.05-.13-.11-.11a.11.11,0,0,0-.08,0,.13.13,0,0,0,0,.08A5.07,5.07,0,0,1,9.05,9.05a5,5,0,0,1-4.73,1.33Z"/><path class="cls-1" d="M10.32,3.47h-.06l-2-.52a.23.23,0,0,1-.17-.17.22.22,0,0,1,.06-.23L9.86.9a.25.25,0,0,1,.25-.05.23.23,0,0,1,.15.19l.29,2.11a.24.24,0,0,1,0,.08.25.25,0,0,1-.24.24ZM8.77,2.59,10,2.91,9.85,1.57Z"/><path class="cls-1" d="M10.33,3.59h0v0h-.09l-2-.52a.37.37,0,0,1-.27-.26A.38.38,0,0,1,8,2.44L9.78.81a.34.34,0,0,1,.37-.08.37.37,0,0,1,.24.29l.29,2.11s0,.06,0,.1a.36.36,0,0,1-.11.26A.37.37,0,0,1,10.33,3.59ZM10,1A.11.11,0,0,0,10,1L8.21,2.63a.11.11,0,0,0,0,.11.11.11,0,0,0,.08.08l2.07.52h0a.1.1,0,0,0,.11-.11v0l-.3-2.13A.12.12,0,0,0,10.06,1ZM10,3h0L8.74,2.71a.12.12,0,0,1-.09-.09.15.15,0,0,1,0-.13l1.09-1a.11.11,0,0,1,.12,0,.12.12,0,0,1,.09.1l.18,1.34a.11.11,0,0,1,0,.11A.12.12,0,0,1,10,3ZM9,2.52l.87.22-.13-.92Z"/></g></g></svg>