<svg xmlns="http://www.w3.org/2000/svg" viewBox="0 0 10.42 10.34"><defs><style>.cls-1{fill:#3a446a;}</style></defs><title>Asset 59</title><g id="Layer_2" data-name="Layer 2"><g id="Layer_1-2" data-name="Layer 1"><path class="cls-1" d="M9.11,4.6H8.86V2.79A1.31,1.31,0,0,0,7.55,1.48H7.3V1.13A1.12,1.12,0,0,0,6.87.22a1.21,1.21,0,0,0-1-.18L.46,1.48H.38A.38.38,0,0,0,0,1.86V10a.38.38,0,0,0,.38.37H7.55A1.31,1.31,0,0,0,8.86,9V7.22h.25a1.31,1.31,0,0,0,0-2.62ZM7.8,6.54V9a.25.25,0,0,1-.25.25H1.06V2.54H7.55a.25.25,0,0,1,.25.25v2.5a.36.36,0,0,0,.37.37h.94a.25.25,0,0,1,0,.5H8.17A.37.37,0,0,0,7.8,6.54ZM6.23,1.07a.15.15,0,0,1,0,.06v.35H4.58l1.55-.41C6.19,1.05,6.22,1.06,6.23,1.07Z"/></g></g></svg>