<?xml version="1.0" encoding="UTF-8"?>
<svg width="16px" height="16px" viewBox="0 0 16 16" version="1.1" xmlns="http://www.w3.org/2000/svg" xmlns:xlink="http://www.w3.org/1999/xlink">
    <!-- Generator: sketchtool 51.2 (57519) - http://www.bohemiancoding.com/sketch -->
    <title>AEA0FDE1-1F59-4C20-A4CB-A12D03904BB7</title>
    <desc>Created with sketchtool.</desc>
    <defs></defs>
    <g id="instar-web" stroke="none" stroke-width="1" fill="none" fill-rule="evenodd">
        <g id="Web-App-Dropdown" transform="translate(-1338.000000, -304.000000)" fill-rule="nonzero">
            <g id="Group-4-Copy-2" transform="translate(1293.000000, 300.000000)">
                <g id="Group-8">
                    <g id="Logo_Token_Artboard-17" transform="translate(46.000000, 5.000000)">
                        <ellipse id="Oval" stroke="#FFFFFF" fill="#63CAB6" cx="6.98284314" cy="6.97620081" rx="6.98284314" ry="6.97620081"></ellipse>
                        <path d="M6.19695588,5.03047498 L6.98284314,4.24533529 L7.77761765,5.04062219 L8.90122059,5.04062219 L8.90122059,6.16315632 L9.6959951,6.95717481 L8.90122059,7.7511933 C8.90191965,8.19293058 9.26018526,8.55085539 9.70234314,8.55155379 L12.2415588,8.55155379 C13.0114251,5.98557406 11.8137516,3.23934896 9.40850423,2.05545493 C7.00325683,0.871560911 4.09389857,1.59625159 2.52651961,3.76968524 C2.35338804,4.01401953 2.33147376,4.33453683 2.46974137,4.60012149 C2.60800898,4.86570614 2.88326416,5.03180648 3.18290686,5.03047498 L6.19695588,5.03047498 Z" id="Shape" fill="#FFFFFF"></path>
                        <path d="M7.77507843,8.87880103 L6.98284314,9.66774592 L6.18806863,8.87880103 L5.06446569,8.87880103 L5.06446569,7.7511933 L4.26969118,6.95717481 L5.06446569,6.16315632 C5.06446569,5.71762683 4.70294879,5.35645382 4.2569951,5.35645382 L1.73555392,5.35645382 C0.940055039,7.93531818 2.13956395,10.7092473 4.56436423,11.8982303 C6.98916451,13.0872133 9.91938155,12.3382651 11.4747157,10.1319804 C11.6443575,9.88700321 11.6637803,9.56817086 11.5251276,9.3044486 C11.3864749,9.04072634 11.1126911,8.875755 10.8145196,8.87626423 L7.77507843,8.87880103 Z" id="Shape" fill="#FFFFFF"></path>
                        <path d="M8.4492402,6.37371074 L9.05357353,6.97620081 L8.44670098,7.58249608 L8.44670098,7.58630128 L8.44670098,8.43866618 L7.58971569,8.43866618 L7.58590686,8.44120298 L6.98284314,9.04496145 L6.37597059,8.43866618 L6.37216176,8.43866618 L5.51898529,8.43866618 L5.51898529,7.58249608 L5.51644608,7.57869088 L4.91211275,6.97620081 L5.51898529,6.36990554 L5.51898529,6.36610034 L5.51898529,5.51373544 L6.37597059,5.51373544 L6.37977941,5.51119864 L6.98284314,4.90744017 L7.58971569,5.51373544 L7.5922549,5.51373544 L8.44670098,5.51373544 L8.44670098,6.36990554 L8.4492402,6.37371074 Z" id="Combined-Shape" fill="#63CAB6"></path>
                    </g>
                </g>
            </g>
        </g>
    </g>
</svg>