<svg xmlns="http://www.w3.org/2000/svg" width="37.438" height="30.938" viewBox="0 0 37.438 30.938">
  <metadata><?xpacket begin="﻿" id="W5M0MpCehiHzreSzNTczkc9d"?>
<x:xmpmeta xmlns:x="adobe:ns:meta/" x:xmptk="Adobe XMP Core 5.6-c138 79.159824, 2016/09/14-01:09:01        ">
   <rdf:RDF xmlns:rdf="http://www.w3.org/1999/02/22-rdf-syntax-ns#">
      <rdf:Description rdf:about=""
            xmlns:xmp="http://ns.adobe.com/xap/1.0/">
         <xmp:CreatorTool>Adobe Photoshop CC 2017 (Macintosh)</xmp:CreatorTool>
      </rdf:Description>
   </rdf:RDF>
</x:xmpmeta>
                                                                                                    
                                                                                                    
                                                                                                    
                                                                                                    
                                                                                                    
                                                                                                    
                                                                                                    
                                                                                                    
                                                                                                    
                                                                                                    
                                                                                                    
                                                                                                    
                                                                                                    
                                                                                                    
                                                                                                    
                                                                                                    
                                                                                                    
                                                                                                    
                                                                                                    
                                                                                                    
                           
<?xpacket end="w"?></metadata>
<defs>
    <style>
      .cls-1 {
        fill: #8694b0;
        fill-rule: evenodd;
      }
    </style>
  </defs>
  <path id="Home" class="cls-1" d="M290.667,174.436L275.45,161.85a4.157,4.157,0,0,0-4.965,0l-15.217,12.586a2.566,2.566,0,0,0,0,4.107,3.891,3.891,0,0,0,2.482.851,4.157,4.157,0,0,0,1.171-.176v10.826a2.17,2.17,0,0,0,2.341,1.936h4.682a2.17,2.17,0,0,0,2.341-1.936v-6.778h9.365v6.778a2.17,2.17,0,0,0,2.341,1.936h4.682a2.17,2.17,0,0,0,2.341-1.936V179.218a4.152,4.152,0,0,0,1.171.176,3.891,3.891,0,0,0,2.482-.851A2.566,2.566,0,0,0,290.667,174.436Zm-17.7-11.5a1.3,1.3,0,0,1,.827.284,0.856,0.856,0,0,1,0,1.369l-0.827.684-0.828-.684a0.856,0.856,0,0,1,0-1.369A1.3,1.3,0,0,1,272.968,162.935Zm-16.045,14.239a0.856,0.856,0,0,1,0-1.369l12.887-10.658a2.916,2.916,0,0,0,.675.81l0.827,0.684-12.734,10.533A1.388,1.388,0,0,1,256.923,177.174Zm23.068,12.87v-6.778a2.17,2.17,0,0,0-2.341-1.936h-9.365a2.17,2.17,0,0,0-2.341,1.936v6.778h-4.682V177.692l11.706-9.682,11.7,9.682v12.352h-4.682Zm9.021-12.87a1.388,1.388,0,0,1-1.655,0l-12.734-10.533,0.827-.684a2.916,2.916,0,0,0,.675-0.81l12.887,10.658A0.856,0.856,0,0,1,289.012,177.174Zm-16.044-5.526c-2.582,0-4.683,1.737-4.683,3.873s2.1,3.873,4.683,3.873,4.682-1.737,4.682-3.873S275.549,171.648,272.968,171.648Zm0,5.81a1.971,1.971,0,1,1,2.341-1.937A2.171,2.171,0,0,1,272.968,177.458Z" transform="translate(-254.25 -161.031)"/>
</svg>
