<?xml version="1.0" encoding="utf-8"?>
<!-- Generator: Adobe Illustrator 22.1.0, SVG Export Plug-In . SVG Version: 6.00 Build 0)  -->
<!DOCTYPE svg PUBLIC "-//W3C//DTD SVG 1.1//EN" "http://www.w3.org/Graphics/SVG/1.1/DTD/svg11.dtd">
<svg width="100" version="1.1" id="Laag_1" xmlns="http://www.w3.org/2000/svg" xmlns:xlink="http://www.w3.org/1999/xlink" x="0px" y="0px"
	 viewBox="0 0 794 143.1" style="enable-background:new 0 0 794 143.1;" xml:space="preserve">
<style type="text/css">
	.st0{fill:#FFFFFF;}
</style>
<path class="st0" d="M495.3,1.1h-25.7c-3.2,0-6.2,2.6-6.6,5.9l-6.5,49.5l-1.6,12l-57-65.6c-1-1.1-2.4-1.7-3.9-1.7h-13.6
	c-3.2,0-6.2,2.6-6.6,5.9l-12.6,95.9c-2.5,19,8.9,34.9,26.4,38.6h0.1c3.2,0,6.2-2.6,6.6-5.9L403,70l35.2,40.6l25.3,29.2
	c1,1.1,2.4,1.7,3.9,1.7h9.4c3.2,0,6.2-2.6,6.6-5.9l10.4-79.1L500.4,7C500.8,3.7,498.6,1.1,495.3,1.1"/>
<path class="st0" d="M114.9,131.7l-49-64.8l54.5-56.1c1.7-1.7,2.3-4.2,1.6-6.2c-0.7-2.1-2.6-3.4-4.9-3.4H88.2
	c-1.7,0-3.5,0.8-4.8,2.1l-37.7,39L50.5,7c0.4-3.2-1.8-5.9-5.1-5.9H19.7c-3.2,0-6.2,2.6-6.6,5.9L0.3,103.3
	c-2.4,18.3,8.1,33.7,24.4,38.1h2.1c3.2,0,6.2-2.6,6.6-5.9l5.3-40l26,34.8l6.8,9.1c0.9,1.3,2.5,2,4.1,2h33.4c2.3,0,4.6-1.4,5.8-3.5
	C116.2,135.9,116.2,133.4,114.9,131.7"/>
<path class="st0" d="M614,131.7l-49-64.8l54.5-56.1c1.7-1.7,2.3-4.2,1.6-6.2c-0.7-2.1-2.6-3.4-4.9-3.4h-28.9c-1.7,0-3.5,0.8-4.8,2.1
	l-37.7,39L549.6,7c0.4-3.2-1.8-5.9-5.1-5.9h-25.7c-3.2,0-6.2,2.6-6.6,5.9l-12.7,96.4c-2.4,18.3,8.1,33.7,24.4,38.1h2.2
	c3.2,0,6.2-2.6,6.6-5.9l5.3-40l26,34.8l6.8,9.1c0.9,1.3,2.5,2,4.1,2h33.4c2.3,0,4.6-1.4,5.8-3.5C615.3,135.9,615.3,133.4,614,131.7"
	/>
<path class="st0" d="M353.5,36.8c3.2,0,6.2-2.6,6.6-5.9l3.2-24c0.2-1.6-0.2-3-1.2-4.1c-1-1.1-2.4-1.7-3.9-1.7c0,0-94.5,0.1-94.5,0.1
	c-3.2,0-6.2,2.6-6.6,5.9l-12.5,95c-2.9,21.7,12.4,39.4,34.2,39.4h60.8c3.2,0,6.2-2.6,6.6-5.9l3.2-24c0.4-3.2-1.9-5.9-5.1-5.9h-21.6
	h-41.1l2.3-17.5h38.8h6.9c3.2,0,6.2-2.6,6.6-5.9l3.1-23.9c0.4-3.2-1.8-5.9-5.1-5.9h-45.7l2.1-15.7H353.5z"/>
<path class="st0" d="M735.7,22.9C724.1,9.6,708.2,2.8,688.4,2.8c-19.8,0-37.5,6.8-52.7,20.1c-15.1,13.4-24.1,30.2-26.7,50
	c-2.6,19.8,2,36.6,13.6,50c11.6,13.4,27.5,20.2,47.4,20.2c19.8,0,37.5-6.8,52.7-20.1c15.1-13.4,24.1-30.2,26.7-50
	C751.9,53.1,747.3,36.3,735.7,22.9 M699.4,97.7c-6.9,6.5-15,9.7-24.8,9.7c-9.9,0-17.2-3.2-22.4-9.7c-5.3-6.7-7.2-14.8-5.9-24.7
	c1.3-10,5.4-18.1,12.4-24.7c6.9-6.5,15-9.7,24.8-9.7c9.9,0,17.2,3.2,22.4,9.7c5.3,6.7,7.2,14.8,5.9,24.7
	C710.5,82.9,706.5,91,699.4,97.7"/>
<path class="st0" d="M238.1,133.3L203.7,4.8c-0.6-2.2-2.6-3.7-5-3.7H173c-2.4,0-4.7,1.5-5.9,3.7l-42,78.9l-4.1,7.6
	c-1.4,3.4-2.4,7-2.9,10.7c-2.1,15.9,5.5,29.5,18.2,35.8c0,0,0.1-0.1,0.1-0.1l8.4-16H189h6.1l4.2,16c0.6,2.2,2.5,3.7,5,3.7
	c0,0,27.4-0.1,27.4-0.1c1.9,0,3.9-1,5.2-2.6C238.1,137.2,238.6,135.1,238.1,133.3 M164.7,84.3l10.4-19.5l4-7.6l2.8,10.9l4.2,16.2
	H164.7z"/>
<path class="st0" d="M752.7,0v5.8h6.5v1.6h-6.5v11.7c0,2.6,0.5,4.4,3.5,4.4c0.9,0,2-0.3,3-0.8l0.7,1.6c-1.2,0.6-2.4,1-3.6,1
	c-4.1,0-5.4-2.4-5.4-6.2V7.4h-4.1V5.8h4.1V0.2L752.7,0z"/>
<path class="st0" d="M792.1,25V13.5c0-3.7-2.5-6.3-6.1-6.3c-3.7,0-6.2,2.7-6.2,6.4V25h-1.9V13.6c0-3.7-2.5-6.4-6.2-6.4
	c-3.7,0-6.1,2.7-6.1,6.4V25h-1.9V5.8h1.8l0,3.2c1.3-2.5,3.8-3.6,6.3-3.6c2.9,0,6,1.3,7.1,4.7c1.2-3.1,4.2-4.7,7.1-4.7
	c4.7,0,8.1,3.3,8.1,8.1V25H792.1z"/>
</svg>
