<svg width="152" height="29" viewBox="0 0 152 29" fill="none" xmlns="http://www.w3.org/2000/svg">
<path d="M41.2603 9.48898L40.8327 10.5552C40.4052 10.2353 39.9776 10.0221 39.55 9.80883C39.0156 9.5956 38.4811 9.5956 37.9466 9.5956C36.6639 9.5956 35.7019 10.0221 35.0606 10.7684C34.4192 11.5147 34.0985 12.6875 34.0985 14.2868C34.0985 15.886 34.4192 16.9522 35.0606 17.8052C35.7019 18.6581 36.6639 18.9779 37.8398 18.9779C38.3742 18.9779 38.9087 18.8713 39.55 18.6581C40.0845 18.4449 40.6189 18.2316 41.0465 17.8052L41.1534 18.8713C40.0845 19.511 39.0156 19.8309 37.8398 19.8309C36.2364 19.8309 35.0606 19.2978 34.2054 18.3382C33.3503 17.3787 32.9227 15.9927 32.9227 14.1802C32.9227 12.3677 33.3503 10.9816 34.3123 10.0221C35.1675 9.06251 36.4502 8.52942 38.1604 8.52942C39.2293 8.63604 40.2983 8.84927 41.2603 9.48898Z" fill="#927B62"/>
<path d="M49.9184 19.8309H44.36V8.74265H45.4289V18.8713H49.9184V19.8309Z" fill="#927B62"/>
<path d="M60.9282 15.886C60.9282 17.1654 60.6075 18.125 59.8593 18.8713C59.111 19.6176 58.0421 19.9375 56.6525 19.9375C55.2629 19.9375 54.194 19.6176 53.4457 18.8713C52.6975 18.125 52.3768 17.1654 52.3768 15.886V8.74265H53.4457V15.7794C53.4457 16.8456 53.6595 17.5919 54.3009 18.125C54.8353 18.6581 55.6905 18.9779 56.7594 18.9779C57.8283 18.9779 58.6834 18.6581 59.2179 18.125C59.7524 17.5919 60.073 16.739 60.073 15.7794V8.74265H61.142L60.9282 15.886Z" fill="#927B62"/>
<path d="M72.045 16.739C72.045 17.8051 71.6174 18.5515 70.8692 19.0846C70.1209 19.6176 68.9451 19.8309 67.4486 19.8309C66.3797 19.8309 65.5246 19.8309 64.9901 19.8309V8.74265H67.9831C69.052 8.74265 69.8002 8.95588 70.4416 9.38235C70.9761 9.80882 71.2967 10.4485 71.2967 11.3015C71.2967 12.5809 70.6554 13.5404 69.4796 13.9669C71.1898 14.2868 72.045 15.1397 72.045 16.739ZM70.014 18.3382C70.6554 17.9118 70.8692 17.3787 70.8692 16.6324C70.8692 15.3529 70.014 14.7132 68.4106 14.5H66.059V18.8713C66.5935 18.8713 67.0211 18.9779 67.5555 18.9779C68.6244 18.9779 69.4796 18.7647 70.014 18.3382ZM69.4796 10.0221C69.052 9.7022 68.5175 9.59559 67.7693 9.59559H66.1659V13.6471H68.3038C69.5865 13.4338 70.1209 12.6875 70.1209 11.4081C70.1209 10.7684 69.9071 10.3419 69.4796 10.0221Z" fill="#927B62"/>
<path d="M83.0548 19.8309H81.7721L77.8171 8.74265H78.9929L82.5204 18.6581H82.6273L86.4754 8.74265H87.5443L83.0548 19.8309Z" fill="#927B62"/>
<path d="M96.6301 19.8309H90.3235V16.5257V8.84926H96.6301V9.80882L91.3924 9.59558V13.5404H95.6681V14.5H91.3924V16.3125V18.8713H96.6301V19.8309Z" fill="#927B62"/>
<path d="M105.395 19.8309H99.8369V8.74265H100.906V18.8713H105.395V19.8309Z" fill="#927B62"/>
<path d="M115.122 10.0221C115.978 10.9816 116.405 12.261 116.405 14.0735C116.405 15.9927 115.978 17.3787 115.016 18.4449C114.16 19.511 112.878 19.9375 111.168 19.9375C109.564 19.9375 108.388 19.4044 107.533 18.4449C106.678 17.4853 106.25 16.0993 106.25 14.2868C106.25 12.4743 106.678 11.0882 107.64 10.0221C108.495 9.06251 109.885 8.52942 111.488 8.52942C113.092 8.63604 114.267 9.06251 115.122 10.0221ZM107.319 14.1802C107.319 17.3787 108.602 18.9779 111.168 18.9779C112.45 18.9779 113.519 18.5515 114.16 17.8052C114.802 17.0588 115.229 15.7794 115.229 14.2868C115.229 11.1949 113.947 9.5956 111.274 9.5956C108.709 9.5956 107.319 11.0882 107.319 14.1802Z" fill="#927B62"/>
<path d="M127.094 9.48898L126.667 10.5552C126.239 10.2353 125.812 10.0221 125.384 9.80883C124.85 9.5956 124.315 9.5956 123.781 9.5956C122.498 9.5956 121.536 10.0221 120.895 10.7684C120.253 11.5147 119.933 12.6875 119.933 14.2868C119.933 15.886 120.253 16.9522 120.895 17.8052C121.536 18.6581 122.498 18.9779 123.674 18.9779C124.208 18.9779 124.743 18.8713 125.384 18.6581C125.918 18.4449 126.453 18.2316 126.88 17.8052L126.987 18.8713C125.918 19.511 124.85 19.8309 123.674 19.8309C122.07 19.8309 120.895 19.2978 120.039 18.3382C119.184 17.3787 118.757 15.9927 118.757 14.1802C118.757 12.3677 119.184 10.9816 120.146 10.0221C121.001 9.06251 122.284 8.52942 123.994 8.52942C125.063 8.63604 126.132 8.84927 127.094 9.48898Z" fill="#927B62"/>
<path d="M131.263 19.8309H130.194V8.74265H131.37L131.263 19.8309Z" fill="#927B62"/>
<path d="M141.952 9.59558H138.532V19.7243H137.463V9.59558H134.042V8.63602H141.952V9.59558Z" fill="#927B62"/>
<path d="M152 19.8309H150.824L149.755 16.6324H144.411L143.235 19.8309H142.166L146.655 8.74265H147.938L152 19.8309ZM149.435 15.6728L147.297 9.91544H147.19L144.838 15.6728H147.083H149.435ZM145.266 4.37132V4.26471L145.693 3.625H145.8C146.869 4.69118 148.045 5.75735 149.328 6.82353L148.9 7.35662H148.793C147.51 6.29044 146.335 5.33088 145.266 4.37132Z" fill="#927B62"/>
<path d="M9.72715 29L0 19.2978V17.8051L9.72715 27.4007L19.3474 17.8051V19.2978L9.72715 29Z" fill="#927B62"/>
<path d="M9.72715 20.0441L0 10.4485V0L9.72715 9.70221L19.3474 0V1.49265L9.72715 11.1949L1.06892 2.55882V9.91544L9.72715 18.5515L19.3474 8.84927V10.4485L9.72715 20.0441Z" fill="#927B62"/>
</svg>
